  0
SECTION
  2
HEADER
  9
$ACADVER
  1
AC1014
  9
$HANDSEED
  5
FFFF
  9
$MEASUREMENT
 70
     1
  0
ENDSEC
  0
SECTION
  2
TABLES
  0
TABLE
  2
VPORT
  5
8
330
0
100
AcDbSymbolTable
 70
     4
  0
VPORT
  5
2E
330
8
100
AcDbSymbolTableRecord
100
AcDbViewportTableRecord
  2
*ACTIVE
 70
     0
 10
0.0
 20
0.0
 11
1.0
 21
1.0
 12
210.0
 22
148.5
 13
0.0
 23
0.0
 14
10.0
 24
10.0
 15
10.0
 25
10.0
 16
0.0
 26
0.0
 36
1.0
 17
0.0
 27
0.0
 37
0.0
 40
341.0
 41
1.24
 42
50.0
 43
0.0
 44
0.0
 50
0.0
 51
0.0
 71
     0
 72
   100
 73
     1
 74
     3
 75
     0
 76
     0
 77
     0
 78
     0
  0
ENDTAB
  0
TABLE
  2
LTYPE
  5
5
330
0
100
AcDbSymbolTable
 70
     1
  0
LTYPE
  5
14
330
5
100
AcDbSymbolTableRecord
100
AcDbLinetypeTableRecord
  2
BYBLOCK
 70
     0
  3

 72
    65
 73
     0
 40
0.0
  0
LTYPE
  5
15
330
5
100
AcDbSymbolTableRecord
100
AcDbLinetypeTableRecord
  2
BYLAYER
 70
     0
  3

 72
    65
 73
     0
 40
0.0
  0
LTYPE
  5
16
330
5
100
AcDbSymbolTableRecord
100
AcDbLinetypeTableRecord
  2
CONTINUOUS
 70
     0
  3
Solid line
 72
    65
 73
     0
 40
0.0
  0
ENDTAB
  0
TABLE
  2
LAYER
  5
2
100
AcDbSymbolTable
 70
2
  0
LAYER
  5
50
100
AcDbSymbolTableRecord
100
AcDbLayerTableRecord
  2
0
 70
0
  6
CONTINUOUS
  0
LAYER
  5
51
100
AcDbSymbolTableRecord
100
AcDbLayerTableRecord
  2
detection
 70
0
  6
CONTINUOUS
  0
ENDTAB
  0
TABLE
  2
STYLE
  5
3
330
0
100
AcDbSymbolTable
 70
     1
  0
STYLE
  5
11
330
3
100
AcDbSymbolTableRecord
100
AcDbTextStyleTableRecord
  2
STANDARD
 70
     0
 40
0.0
 41
1.0
 50
0.0
 71
     0
 42
2.5
  3
txt
  4

  0
ENDTAB
  0
TABLE
  2
VIEW
  5
6
330
0
100
AcDbSymbolTable
 70
     0
  0
ENDTAB
  0
TABLE
  2
UCS
  5
7
330
0
100
AcDbSymbolTable
 70
     0
  0
ENDTAB
  0
TABLE
  2
APPID
  5
9
330
0
100
AcDbSymbolTable
 70
     2
  0
APPID
  5
12
330
9
100
AcDbSymbolTableRecord
100
AcDbRegAppTableRecord
  2
ACAD
 70
     0
  0
ENDTAB
  0
TABLE
  2
DIMSTYLE
  5
A
330
0
100
AcDbSymbolTable
 70
     1
  0
DIMSTYLE
105
27
330
A
100
AcDbSymbolTableRecord
100
AcDbDimStyleTableRecord
  2
ISO-25
 70
     0
  3

  4

  5

  6

  7

 40
1.0
 41
2.5
 42
0.625
 43
3.75
 44
1.25
 45
0.0
 46
0.0
 47
0.0
 48
0.0
140
2.5
141
2.5
142
0.0
143
0.03937007874016
144
1.0
145
0.0
146
1.0
147
0.625
 71
     0
 72
     0
 73
     0
 74
     0
 75
     0
 76
     0
 77
     1
 78
     8
170
     0
171
     3
172
     1
173
     0
174
     0
175
     0
176
     0
177
     0
178
     0
270
     2
271
     2
272
     2
273
     2
274
     3
340
11
275
     0
280
     0
281
     0
282
     0
283
     0
284
     8
285
     0
286
     0
287
     3
288
     0
  0
ENDTAB
  0
TABLE
  2
BLOCK_RECORD
  5
1
330
0
100
AcDbSymbolTable
 70
     1
  0
BLOCK_RECORD
  5
1F
330
1
100
AcDbSymbolTableRecord
100
AcDbBlockTableRecord
  2
*MODEL_SPACE
  0
BLOCK_RECORD
  5
1B
330
1
100
AcDbSymbolTableRecord
100
AcDbBlockTableRecord
  2
*PAPER_SPACE
  0
ENDTAB
  0
ENDSEC
  0
SECTION
  2
BLOCKS
  0
BLOCK
  5
20
330
1F
100
AcDbEntity
  8
0
100
AcDbBlockBegin
  2
*MODEL_SPACE
 70
     0
 10
0.0
 20
0.0
 30
0.0
  3
*MODEL_SPACE
  1

  0
ENDBLK
  5
21
330
1F
100
AcDbEntity
  8
0
100
AcDbBlockEnd
  0
BLOCK
  5
1C
330
1B
100
AcDbEntity
 67
     1
  8
0
100
AcDbBlockBegin
  2
*PAPER_SPACE
  1

  0
ENDBLK
  5
1D
330
1B
100
AcDbEntity
 67
     1
  8
0
100
AcDbBlockEnd
  0
ENDSEC
  0
SECTION
  2
ENTITIES
  0
SPLINE
  5
100
100
AcDbEntity
  8
detection
 62
1
100
AcDbSpline
 70
8
 71
3
 72
8
 73
4
 74
0
 40
0
 40
0
 40
0
 40
0
 40
1
 40
1
 40
1
 40
1
 10
37.947296
 20
250.397677
 30
0.0
 10
37.947296
 20
245.753225
 30
0.0
 10
35.469510
 20
241.461573
 30
0.0
 10
31.447296
 20
239.139347
 30
0.0
  0
SPLINE
  5
101
100
AcDbEntity
  8
detection
 62
1
100
AcDbSpline
 70
8
 71
3
 72
8
 73
4
 74
0
 40
0
 40
0
 40
0
 40
0
 40
1
 40
1
 40
1
 40
1
 10
31.447296
 20
239.139347
 30
0.0
 10
27.425082
 20
236.817121
 30
0.0
 10
22.469510
 20
236.817121
 30
0.0
 10
18.447296
 20
239.139347
 30
0.0
  0
SPLINE
  5
102
100
AcDbEntity
  8
detection
 62
1
100
AcDbSpline
 70
8
 71
3
 72
8
 73
4
 74
0
 40
0
 40
0
 40
0
 40
0
 40
1
 40
1
 40
1
 40
1
 10
18.447296
 20
239.139347
 30
0.0
 10
14.425082
 20
241.461573
 30
0.0
 10
11.947296
 20
245.753225
 30
0.0
 10
11.947296
 20
250.397677
 30
0.0
  0
SPLINE
  5
103
100
AcDbEntity
  8
detection
 62
1
100
AcDbSpline
 70
8
 71
3
 72
8
 73
4
 74
0
 40
0
 40
0
 40
0
 40
0
 40
1
 40
1
 40
1
 40
1
 10
11.947296
 20
250.397677
 30
0.0
 10
11.947296
 20
255.042130
 30
0.0
 10
14.425082
 20
259.333781
 30
0.0
 10
18.447296
 20
261.656008
 30
0.0
  0
SPLINE
  5
104
100
AcDbEntity
  8
detection
 62
1
100
AcDbSpline
 70
8
 71
3
 72
8
 73
4
 74
0
 40
0
 40
0
 40
0
 40
0
 40
1
 40
1
 40
1
 40
1
 10
18.447296
 20
261.656008
 30
0.0
 10
22.469510
 20
263.978234
 30
0.0
 10
27.425082
 20
263.978234
 30
0.0
 10
31.447296
 20
261.656008
 30
0.0
  0
SPLINE
  5
105
100
AcDbEntity
  8
detection
 62
1
100
AcDbSpline
 70
8
 71
3
 72
8
 73
4
 74
0
 40
0
 40
0
 40
0
 40
0
 40
1
 40
1
 40
1
 40
1
 10
31.447296
 20
261.656008
 30
0.0
 10
35.469510
 20
259.333781
 30
0.0
 10
37.947296
 20
255.042130
 30
0.0
 10
37.947296
 20
250.397677
 30
0.0
  0
SPLINE
  5
106
100
AcDbEntity
  8
detection
 62
1
100
AcDbSpline
 70
8
 71
3
 72
8
 73
4
 74
0
 40
0
 40
0
 40
0
 40
0
 40
1
 40
1
 40
1
 40
1
 10
38.847304
 20
253.897677
 30
0.0
 10
38.847304
 20
253.361779
 30
0.0
 10
38.561406
 20
252.866588
 30
0.0
 10
38.097304
 20
252.598639
 30
0.0
  0
SPLINE
  5
107
100
AcDbEntity
  8
detection
 62
1
100
AcDbSpline
 70
8
 71
3
 72
8
 73
4
 74
0
 40
0
 40
0
 40
0
 40
0
 40
1
 40
1
 40
1
 40
1
 10
38.097304
 20
252.598639
 30
0.0
 10
37.633202
 20
252.330690
 30
0.0
 10
37.061406
 20
252.330690
 30
0.0
 10
36.597304
 20
252.598639
 30
0.0
  0
SPLINE
  5
108
100
AcDbEntity
  8
detection
 62
1
100
AcDbSpline
 70
8
 71
3
 72
8
 73
4
 74
0
 40
0
 40
0
 40
0
 40
0
 40
1
 40
1
 40
1
 40
1
 10
36.597304
 20
252.598639
 30
0.0
 10
36.133202
 20
252.866588
 30
0.0
 10
35.847304
 20
253.361779
 30
0.0
 10
35.847304
 20
253.897677
 30
0.0
  0
SPLINE
  5
109
100
AcDbEntity
  8
detection
 62
1
100
AcDbSpline
 70
8
 71
3
 72
8
 73
4
 74
0
 40
0
 40
0
 40
0
 40
0
 40
1
 40
1
 40
1
 40
1
 10
35.847304
 20
253.897677
 30
0.0
 10
35.847304
 20
254.433576
 30
0.0
 10
36.133202
 20
254.928766
 30
0.0
 10
36.597304
 20
255.196715
 30
0.0
  0
SPLINE
  5
10a
100
AcDbEntity
  8
detection
 62
1
100
AcDbSpline
 70
8
 71
3
 72
8
 73
4
 74
0
 40
0
 40
0
 40
0
 40
0
 40
1
 40
1
 40
1
 40
1
 10
36.597304
 20
255.196715
 30
0.0
 10
37.061406
 20
255.464665
 30
0.0
 10
37.633202
 20
255.464665
 30
0.0
 10
38.097304
 20
255.196715
 30
0.0
  0
SPLINE
  5
10b
100
AcDbEntity
  8
detection
 62
1
100
AcDbSpline
 70
8
 71
3
 72
8
 73
4
 74
0
 40
0
 40
0
 40
0
 40
0
 40
1
 40
1
 40
1
 40
1
 10
38.097304
 20
255.196715
 30
0.0
 10
38.561406
 20
254.928766
 30
0.0
 10
38.847304
 20
254.433576
 30
0.0
 10
38.847304
 20
253.897677
 30
0.0
  0
LWPOLYLINE
  5
10c
100
AcDbEntity
  8
detection
 62
1
100
AcDbPolyline
 90
1
 70
1
 10
37.947296
 20
250.397677
 30
0.0
  0
SPLINE
  5
10d
100
AcDbEntity
  8
detection
 62
1
100
AcDbSpline
 70
8
 71
3
 72
8
 73
4
 74
0
 40
0
 40
0
 40
0
 40
0
 40
1
 40
1
 40
1
 40
1
 10
38.847304
 20
246.884921
 30
0.0
 10
38.847304
 20
246.349023
 30
0.0
 10
38.561406
 20
245.853832
 30
0.0
 10
38.097304
 20
245.585883
 30
0.0
  0
SPLINE
  5
10e
100
AcDbEntity
  8
detection
 62
1
100
AcDbSpline
 70
8
 71
3
 72
8
 73
4
 74
0
 40
0
 40
0
 40
0
 40
0
 40
1
 40
1
 40
1
 40
1
 10
38.097304
 20
245.585883
 30
0.0
 10
37.633202
 20
245.317934
 30
0.0
 10
37.061406
 20
245.317934
 30
0.0
 10
36.597304
 20
245.585883
 30
0.0
  0
SPLINE
  5
10f
100
AcDbEntity
  8
detection
 62
1
100
AcDbSpline
 70
8
 71
3
 72
8
 73
4
 74
0
 40
0
 40
0
 40
0
 40
0
 40
1
 40
1
 40
1
 40
1
 10
36.597304
 20
245.585883
 30
0.0
 10
36.133202
 20
245.853832
 30
0.0
 10
35.847304
 20
246.349023
 30
0.0
 10
35.847304
 20
246.884921
 30
0.0
  0
SPLINE
  5
110
100
AcDbEntity
  8
detection
 62
1
100
AcDbSpline
 70
8
 71
3
 72
8
 73
4
 74
0
 40
0
 40
0
 40
0
 40
0
 40
1
 40
1
 40
1
 40
1
 10
35.847304
 20
246.884921
 30
0.0
 10
35.847304
 20
247.420820
 30
0.0
 10
36.133202
 20
247.916010
 30
0.0
 10
36.597304
 20
248.183959
 30
0.0
  0
SPLINE
  5
111
100
AcDbEntity
  8
detection
 62
1
100
AcDbSpline
 70
8
 71
3
 72
8
 73
4
 74
0
 40
0
 40
0
 40
0
 40
0
 40
1
 40
1
 40
1
 40
1
 10
36.597304
 20
248.183959
 30
0.0
 10
37.061406
 20
248.451909
 30
0.0
 10
37.633202
 20
248.451909
 30
0.0
 10
38.097304
 20
248.183959
 30
0.0
  0
SPLINE
  5
112
100
AcDbEntity
  8
detection
 62
1
100
AcDbSpline
 70
8
 71
3
 72
8
 73
4
 74
0
 40
0
 40
0
 40
0
 40
0
 40
1
 40
1
 40
1
 40
1
 10
38.097304
 20
248.183959
 30
0.0
 10
38.561406
 20
247.916010
 30
0.0
 10
38.847304
 20
247.420820
 30
0.0
 10
38.847304
 20
246.884921
 30
0.0
  0
LWPOLYLINE
  5
113
100
AcDbEntity
  8
detection
 62
1
100
AcDbPolyline
 90
1
 70
1
 10
38.847304
 20
253.897677
 30
0.0
  0
SPLINE
  5
114
100
AcDbEntity
  8
detection
 62
1
100
AcDbSpline
 70
8
 71
3
 72
8
 73
4
 74
0
 40
0
 40
0
 40
0
 40
0
 40
1
 40
1
 40
1
 40
1
 10
28.866203
 20
264.185422
 30
0.0
 10
29.330305
 20
263.917473
 30
0.0
 10
29.616203
 20
263.422283
 30
0.0
 10
29.616203
 20
262.886384
 30
0.0
  0
SPLINE
  5
115
100
AcDbEntity
  8
detection
 62
1
100
AcDbSpline
 70
8
 71
3
 72
8
 73
4
 74
0
 40
0
 40
0
 40
0
 40
0
 40
1
 40
1
 40
1
 40
1
 10
29.616203
 20
262.886384
 30
0.0
 10
29.616203
 20
262.350486
 30
0.0
 10
29.330305
 20
261.855295
 30
0.0
 10
28.866203
 20
261.587346
 30
0.0
  0
SPLINE
  5
116
100
AcDbEntity
  8
detection
 62
1
100
AcDbSpline
 70
8
 71
3
 72
8
 73
4
 74
0
 40
0
 40
0
 40
0
 40
0
 40
1
 40
1
 40
1
 40
1
 10
28.866203
 20
261.587346
 30
0.0
 10
28.402101
 20
261.319397
 30
0.0
 10
27.830305
 20
261.319397
 30
0.0
 10
27.366203
 20
261.587346
 30
0.0
  0
SPLINE
  5
117
100
AcDbEntity
  8
detection
 62
1
100
AcDbSpline
 70
8
 71
3
 72
8
 73
4
 74
0
 40
0
 40
0
 40
0
 40
0
 40
1
 40
1
 40
1
 40
1
 10
27.366203
 20
261.587346
 30
0.0
 10
26.902101
 20
261.855295
 30
0.0
 10
26.616203
 20
262.350486
 30
0.0
 10
26.616203
 20
262.886384
 30
0.0
  0
SPLINE
  5
118
100
AcDbEntity
  8
detection
 62
1
100
AcDbSpline
 70
8
 71
3
 72
8
 73
4
 74
0
 40
0
 40
0
 40
0
 40
0
 40
1
 40
1
 40
1
 40
1
 10
26.616203
 20
262.886384
 30
0.0
 10
26.616203
 20
263.422283
 30
0.0
 10
26.902101
 20
263.917473
 30
0.0
 10
27.366203
 20
264.185422
 30
0.0
  0
SPLINE
  5
119
100
AcDbEntity
  8
detection
 62
1
100
AcDbSpline
 70
8
 71
3
 72
8
 73
4
 74
0
 40
0
 40
0
 40
0
 40
0
 40
1
 40
1
 40
1
 40
1
 10
27.366203
 20
264.185422
 30
0.0
 10
27.830305
 20
264.453372
 30
0.0
 10
28.402101
 20
264.453372
 30
0.0
 10
28.866203
 20
264.185422
 30
0.0
  0
LWPOLYLINE
  5
11a
100
AcDbEntity
  8
detection
 62
1
100
AcDbPolyline
 90
1
 70
1
 10
38.847304
 20
246.884921
 30
0.0
  0
SPLINE
  5
11b
100
AcDbEntity
  8
detection
 62
1
100
AcDbSpline
 70
8
 71
3
 72
8
 73
4
 74
0
 40
0
 40
0
 40
0
 40
0
 40
1
 40
1
 40
1
 40
1
 10
34.939428
 20
260.679044
 30
0.0
 10
35.403529
 20
260.411095
 30
0.0
 10
35.689428
 20
259.915905
 30
0.0
 10
35.689428
 20
259.380006
 30
0.0
  0
SPLINE
  5
11c
100
AcDbEntity
  8
detection
 62
1
100
AcDbSpline
 70
8
 71
3
 72
8
 73
4
 74
0
 40
0
 40
0
 40
0
 40
0
 40
1
 40
1
 40
1
 40
1
 10
35.689428
 20
259.380006
 30
0.0
 10
35.689428
 20
258.844108
 30
0.0
 10
35.403529
 20
258.348917
 30
0.0
 10
34.939428
 20
258.080968
 30
0.0
  0
SPLINE
  5
11d
100
AcDbEntity
  8
detection
 62
1
100
AcDbSpline
 70
8
 71
3
 72
8
 73
4
 74
0
 40
0
 40
0
 40
0
 40
0
 40
1
 40
1
 40
1
 40
1
 10
34.939428
 20
258.080968
 30
0.0
 10
34.475326
 20
257.813019
 30
0.0
 10
33.903529
 20
257.813019
 30
0.0
 10
33.439428
 20
258.080968
 30
0.0
  0
SPLINE
  5
11e
100
AcDbEntity
  8
detection
 62
1
100
AcDbSpline
 70
8
 71
3
 72
8
 73
4
 74
0
 40
0
 40
0
 40
0
 40
0
 40
1
 40
1
 40
1
 40
1
 10
33.439428
 20
258.080968
 30
0.0
 10
32.975326
 20
258.348917
 30
0.0
 10
32.689428
 20
258.844108
 30
0.0
 10
32.689428
 20
259.380006
 30
0.0
  0
SPLINE
  5
11f
100
AcDbEntity
  8
detection
 62
1
100
AcDbSpline
 70
8
 71
3
 72
8
 73
4
 74
0
 40
0
 40
0
 40
0
 40
0
 40
1
 40
1
 40
1
 40
1
 10
32.689428
 20
259.380006
 30
0.0
 10
32.689428
 20
259.915905
 30
0.0
 10
32.975326
 20
260.411095
 30
0.0
 10
33.439428
 20
260.679044
 30
0.0
  0
SPLINE
  5
120
100
AcDbEntity
  8
detection
 62
1
100
AcDbSpline
 70
8
 71
3
 72
8
 73
4
 74
0
 40
0
 40
0
 40
0
 40
0
 40
1
 40
1
 40
1
 40
1
 10
33.439428
 20
260.679044
 30
0.0
 10
33.903529
 20
260.946994
 30
0.0
 10
34.475326
 20
260.946994
 30
0.0
 10
34.939428
 20
260.679044
 30
0.0
  0
LWPOLYLINE
  5
121
100
AcDbEntity
  8
detection
 62
1
100
AcDbPolyline
 90
1
 70
1
 10
28.866203
 20
264.185422
 30
0.0
  0
SPLINE
  5
122
100
AcDbEntity
  8
detection
 62
1
100
AcDbSpline
 70
8
 71
3
 72
8
 73
4
 74
0
 40
0
 40
0
 40
0
 40
0
 40
1
 40
1
 40
1
 40
1
 10
14.966224
 20
260.685442
 30
0.0
 10
15.430326
 20
260.953392
 30
0.0
 10
16.002122
 20
260.953392
 30
0.0
 10
16.466224
 20
260.685442
 30
0.0
  0
SPLINE
  5
123
100
AcDbEntity
  8
detection
 62
1
100
AcDbSpline
 70
8
 71
3
 72
8
 73
4
 74
0
 40
0
 40
0
 40
0
 40
0
 40
1
 40
1
 40
1
 40
1
 10
16.466224
 20
260.685442
 30
0.0
 10
16.930326
 20
260.417493
 30
0.0
 10
17.216224
 20
259.922303
 30
0.0
 10
17.216224
 20
259.386404
 30
0.0
  0
SPLINE
  5
124
100
AcDbEntity
  8
detection
 62
1
100
AcDbSpline
 70
8
 71
3
 72
8
 73
4
 74
0
 40
0
 40
0
 40
0
 40
0
 40
1
 40
1
 40
1
 40
1
 10
17.216224
 20
259.386404
 30
0.0
 10
17.216224
 20
258.850506
 30
0.0
 10
16.930326
 20
258.355315
 30
0.0
 10
16.466224
 20
258.087366
 30
0.0
  0
SPLINE
  5
125
100
AcDbEntity
  8
detection
 62
1
100
AcDbSpline
 70
8
 71
3
 72
8
 73
4
 74
0
 40
0
 40
0
 40
0
 40
0
 40
1
 40
1
 40
1
 40
1
 10
16.466224
 20
258.087366
 30
0.0
 10
16.002122
 20
257.819417
 30
0.0
 10
15.430326
 20
257.819417
 30
0.0
 10
14.966224
 20
258.087366
 30
0.0
  0
SPLINE
  5
126
100
AcDbEntity
  8
detection
 62
1
100
AcDbSpline
 70
8
 71
3
 72
8
 73
4
 74
0
 40
0
 40
0
 40
0
 40
0
 40
1
 40
1
 40
1
 40
1
 10
14.966224
 20
258.087366
 30
0.0
 10
14.502122
 20
258.355315
 30
0.0
 10
14.216224
 20
258.850506
 30
0.0
 10
14.216224
 20
259.386404
 30
0.0
  0
SPLINE
  5
127
100
AcDbEntity
  8
detection
 62
1
100
AcDbSpline
 70
8
 71
3
 72
8
 73
4
 74
0
 40
0
 40
0
 40
0
 40
0
 40
1
 40
1
 40
1
 40
1
 10
14.216224
 20
259.386404
 30
0.0
 10
14.216224
 20
259.922303
 30
0.0
 10
14.502122
 20
260.417493
 30
0.0
 10
14.966224
 20
260.685442
 30
0.0
  0
LWPOLYLINE
  5
128
100
AcDbEntity
  8
detection
 62
1
100
AcDbPolyline
 90
1
 70
1
 10
34.939428
 20
260.679044
 30
0.0
  0
SPLINE
  5
129
100
AcDbEntity
  8
detection
 62
1
100
AcDbSpline
 70
8
 71
3
 72
8
 73
4
 74
0
 40
0
 40
0
 40
0
 40
0
 40
1
 40
1
 40
1
 40
1
 10
21.039449
 20
264.191820
 30
0.0
 10
21.503550
 20
264.459770
 30
0.0
 10
22.075347
 20
264.459770
 30
0.0
 10
22.539449
 20
264.191820
 30
0.0
  0
SPLINE
  5
12a
100
AcDbEntity
  8
detection
 62
1
100
AcDbSpline
 70
8
 71
3
 72
8
 73
4
 74
0
 40
0
 40
0
 40
0
 40
0
 40
1
 40
1
 40
1
 40
1
 10
22.539449
 20
264.191820
 30
0.0
 10
23.003550
 20
263.923871
 30
0.0
 10
23.289449
 20
263.428681
 30
0.0
 10
23.289449
 20
262.892782
 30
0.0
  0
SPLINE
  5
12b
100
AcDbEntity
  8
detection
 62
1
100
AcDbSpline
 70
8
 71
3
 72
8
 73
4
 74
0
 40
0
 40
0
 40
0
 40
0
 40
1
 40
1
 40
1
 40
1
 10
23.289449
 20
262.892782
 30
0.0
 10
23.289449
 20
262.356884
 30
0.0
 10
23.003550
 20
261.861693
 30
0.0
 10
22.539449
 20
261.593744
 30
0.0
  0
SPLINE
  5
12c
100
AcDbEntity
  8
detection
 62
1
100
AcDbSpline
 70
8
 71
3
 72
8
 73
4
 74
0
 40
0
 40
0
 40
0
 40
0
 40
1
 40
1
 40
1
 40
1
 10
22.539449
 20
261.593744
 30
0.0
 10
22.075347
 20
261.325795
 30
0.0
 10
21.503550
 20
261.325795
 30
0.0
 10
21.039449
 20
261.593744
 30
0.0
  0
SPLINE
  5
12d
100
AcDbEntity
  8
detection
 62
1
100
AcDbSpline
 70
8
 71
3
 72
8
 73
4
 74
0
 40
0
 40
0
 40
0
 40
0
 40
1
 40
1
 40
1
 40
1
 10
21.039449
 20
261.593744
 30
0.0
 10
20.575347
 20
261.861693
 30
0.0
 10
20.289449
 20
262.356884
 30
0.0
 10
20.289449
 20
262.892782
 30
0.0
  0
SPLINE
  5
12e
100
AcDbEntity
  8
detection
 62
1
100
AcDbSpline
 70
8
 71
3
 72
8
 73
4
 74
0
 40
0
 40
0
 40
0
 40
0
 40
1
 40
1
 40
1
 40
1
 10
20.289449
 20
262.892782
 30
0.0
 10
20.289449
 20
263.428681
 30
0.0
 10
20.575347
 20
263.923871
 30
0.0
 10
21.039449
 20
264.191820
 30
0.0
  0
LWPOLYLINE
  5
12f
100
AcDbEntity
  8
detection
 62
1
100
AcDbPolyline
 90
1
 70
1
 10
14.966224
 20
260.685442
 30
0.0
  0
SPLINE
  5
130
100
AcDbEntity
  8
detection
 62
1
100
AcDbSpline
 70
8
 71
3
 72
8
 73
4
 74
0
 40
0
 40
0
 40
0
 40
0
 40
1
 40
1
 40
1
 40
1
 10
11.047306
 20
246.897677
 30
0.0
 10
11.047306
 20
247.433576
 30
0.0
 10
11.333204
 20
247.928766
 30
0.0
 10
11.797306
 20
248.196715
 30
0.0
  0
SPLINE
  5
131
100
AcDbEntity
  8
detection
 62
1
100
AcDbSpline
 70
8
 71
3
 72
8
 73
4
 74
0
 40
0
 40
0
 40
0
 40
0
 40
1
 40
1
 40
1
 40
1
 10
11.797306
 20
248.196715
 30
0.0
 10
12.261408
 20
248.464665
 30
0.0
 10
12.833204
 20
248.464665
 30
0.0
 10
13.297306
 20
248.196715
 30
0.0
  0
SPLINE
  5
132
100
AcDbEntity
  8
detection
 62
1
100
AcDbSpline
 70
8
 71
3
 72
8
 73
4
 74
0
 40
0
 40
0
 40
0
 40
0
 40
1
 40
1
 40
1
 40
1
 10
13.297306
 20
248.196715
 30
0.0
 10
13.761408
 20
247.928766
 30
0.0
 10
14.047306
 20
247.433576
 30
0.0
 10
14.047306
 20
246.897677
 30
0.0
  0
SPLINE
  5
133
100
AcDbEntity
  8
detection
 62
1
100
AcDbSpline
 70
8
 71
3
 72
8
 73
4
 74
0
 40
0
 40
0
 40
0
 40
0
 40
1
 40
1
 40
1
 40
1
 10
14.047306
 20
246.897677
 30
0.0
 10
14.047306
 20
246.361779
 30
0.0
 10
13.761408
 20
245.866588
 30
0.0
 10
13.297306
 20
245.598639
 30
0.0
  0
SPLINE
  5
134
100
AcDbEntity
  8
detection
 62
1
100
AcDbSpline
 70
8
 71
3
 72
8
 73
4
 74
0
 40
0
 40
0
 40
0
 40
0
 40
1
 40
1
 40
1
 40
1
 10
13.297306
 20
245.598639
 30
0.0
 10
12.833204
 20
245.330690
 30
0.0
 10
12.261408
 20
245.330690
 30
0.0
 10
11.797306
 20
245.598639
 30
0.0
  0
SPLINE
  5
135
100
AcDbEntity
  8
detection
 62
1
100
AcDbSpline
 70
8
 71
3
 72
8
 73
4
 74
0
 40
0
 40
0
 40
0
 40
0
 40
1
 40
1
 40
1
 40
1
 10
11.797306
 20
245.598639
 30
0.0
 10
11.333204
 20
245.866588
 30
0.0
 10
11.047306
 20
246.361779
 30
0.0
 10
11.047306
 20
246.897677
 30
0.0
  0
LWPOLYLINE
  5
136
100
AcDbEntity
  8
detection
 62
1
100
AcDbPolyline
 90
1
 70
1
 10
21.039449
 20
264.191820
 30
0.0
  0
SPLINE
  5
137
100
AcDbEntity
  8
detection
 62
1
100
AcDbSpline
 70
8
 71
3
 72
8
 73
4
 74
0
 40
0
 40
0
 40
0
 40
0
 40
1
 40
1
 40
1
 40
1
 10
11.047306
 20
253.910433
 30
0.0
 10
11.047306
 20
254.446332
 30
0.0
 10
11.333204
 20
254.941522
 30
0.0
 10
11.797306
 20
255.209471
 30
0.0
  0
SPLINE
  5
138
100
AcDbEntity
  8
detection
 62
1
100
AcDbSpline
 70
8
 71
3
 72
8
 73
4
 74
0
 40
0
 40
0
 40
0
 40
0
 40
1
 40
1
 40
1
 40
1
 10
11.797306
 20
255.209471
 30
0.0
 10
12.261408
 20
255.477421
 30
0.0
 10
12.833204
 20
255.477421
 30
0.0
 10
13.297306
 20
255.209471
 30
0.0
  0
SPLINE
  5
139
100
AcDbEntity
  8
detection
 62
1
100
AcDbSpline
 70
8
 71
3
 72
8
 73
4
 74
0
 40
0
 40
0
 40
0
 40
0
 40
1
 40
1
 40
1
 40
1
 10
13.297306
 20
255.209471
 30
0.0
 10
13.761408
 20
254.941522
 30
0.0
 10
14.047306
 20
254.446332
 30
0.0
 10
14.047306
 20
253.910433
 30
0.0
  0
SPLINE
  5
13a
100
AcDbEntity
  8
detection
 62
1
100
AcDbSpline
 70
8
 71
3
 72
8
 73
4
 74
0
 40
0
 40
0
 40
0
 40
0
 40
1
 40
1
 40
1
 40
1
 10
14.047306
 20
253.910433
 30
0.0
 10
14.047306
 20
253.374535
 30
0.0
 10
13.761408
 20
252.879344
 30
0.0
 10
13.297306
 20
252.611395
 30
0.0
  0
SPLINE
  5
13b
100
AcDbEntity
  8
detection
 62
1
100
AcDbSpline
 70
8
 71
3
 72
8
 73
4
 74
0
 40
0
 40
0
 40
0
 40
0
 40
1
 40
1
 40
1
 40
1
 10
13.297306
 20
252.611395
 30
0.0
 10
12.833204
 20
252.343446
 30
0.0
 10
12.261408
 20
252.343446
 30
0.0
 10
11.797306
 20
252.611395
 30
0.0
  0
SPLINE
  5
13c
100
AcDbEntity
  8
detection
 62
1
100
AcDbSpline
 70
8
 71
3
 72
8
 73
4
 74
0
 40
0
 40
0
 40
0
 40
0
 40
1
 40
1
 40
1
 40
1
 10
11.797306
 20
252.611395
 30
0.0
 10
11.333204
 20
252.879344
 30
0.0
 10
11.047306
 20
253.374535
 30
0.0
 10
11.047306
 20
253.910433
 30
0.0
  0
LWPOLYLINE
  5
13d
100
AcDbEntity
  8
detection
 62
1
100
AcDbPolyline
 90
1
 70
1
 10
11.047306
 20
246.897677
 30
0.0
  0
SPLINE
  5
13e
100
AcDbEntity
  8
detection
 62
1
100
AcDbSpline
 70
8
 71
3
 72
8
 73
4
 74
0
 40
0
 40
0
 40
0
 40
0
 40
1
 40
1
 40
1
 40
1
 10
21.028392
 20
236.609929
 30
0.0
 10
20.564291
 20
236.877878
 30
0.0
 10
20.278392
 20
237.373069
 30
0.0
 10
20.278392
 20
237.908967
 30
0.0
  0
SPLINE
  5
13f
100
AcDbEntity
  8
detection
 62
1
100
AcDbSpline
 70
8
 71
3
 72
8
 73
4
 74
0
 40
0
 40
0
 40
0
 40
0
 40
1
 40
1
 40
1
 40
1
 10
20.278392
 20
237.908967
 30
0.0
 10
20.278392
 20
238.444865
 30
0.0
 10
20.564291
 20
238.940056
 30
0.0
 10
21.028392
 20
239.208005
 30
0.0
  0
SPLINE
  5
140
100
AcDbEntity
  8
detection
 62
1
100
AcDbSpline
 70
8
 71
3
 72
8
 73
4
 74
0
 40
0
 40
0
 40
0
 40
0
 40
1
 40
1
 40
1
 40
1
 10
21.028392
 20
239.208005
 30
0.0
 10
21.492494
 20
239.475954
 30
0.0
 10
22.064291
 20
239.475954
 30
0.0
 10
22.528392
 20
239.208005
 30
0.0
  0
SPLINE
  5
141
100
AcDbEntity
  8
detection
 62
1
100
AcDbSpline
 70
8
 71
3
 72
8
 73
4
 74
0
 40
0
 40
0
 40
0
 40
0
 40
1
 40
1
 40
1
 40
1
 10
22.528392
 20
239.208005
 30
0.0
 10
22.992494
 20
238.940056
 30
0.0
 10
23.278392
 20
238.444865
 30
0.0
 10
23.278392
 20
237.908967
 30
0.0
  0
SPLINE
  5
142
100
AcDbEntity
  8
detection
 62
1
100
AcDbSpline
 70
8
 71
3
 72
8
 73
4
 74
0
 40
0
 40
0
 40
0
 40
0
 40
1
 40
1
 40
1
 40
1
 10
23.278392
 20
237.908967
 30
0.0
 10
23.278392
 20
237.373069
 30
0.0
 10
22.992494
 20
236.877878
 30
0.0
 10
22.528392
 20
236.609929
 30
0.0
  0
SPLINE
  5
143
100
AcDbEntity
  8
detection
 62
1
100
AcDbSpline
 70
8
 71
3
 72
8
 73
4
 74
0
 40
0
 40
0
 40
0
 40
0
 40
1
 40
1
 40
1
 40
1
 10
22.528392
 20
236.609929
 30
0.0
 10
22.064291
 20
236.341980
 30
0.0
 10
21.492494
 20
236.341980
 30
0.0
 10
21.028392
 20
236.609929
 30
0.0
  0
LWPOLYLINE
  5
144
100
AcDbEntity
  8
detection
 62
1
100
AcDbPolyline
 90
1
 70
1
 10
11.047306
 20
253.910433
 30
0.0
  0
SPLINE
  5
145
100
AcDbEntity
  8
detection
 62
1
100
AcDbSpline
 70
8
 71
3
 72
8
 73
4
 74
0
 40
0
 40
0
 40
0
 40
0
 40
1
 40
1
 40
1
 40
1
 10
14.955167
 20
240.116307
 30
0.0
 10
14.491066
 20
240.384256
 30
0.0
 10
14.205167
 20
240.879447
 30
0.0
 10
14.205167
 20
241.415345
 30
0.0
  0
SPLINE
  5
146
100
AcDbEntity
  8
detection
 62
1
100
AcDbSpline
 70
8
 71
3
 72
8
 73
4
 74
0
 40
0
 40
0
 40
0
 40
0
 40
1
 40
1
 40
1
 40
1
 10
14.205167
 20
241.415345
 30
0.0
 10
14.205167
 20
241.951243
 30
0.0
 10
14.491066
 20
242.446434
 30
0.0
 10
14.955167
 20
242.714383
 30
0.0
  0
SPLINE
  5
147
100
AcDbEntity
  8
detection
 62
1
100
AcDbSpline
 70
8
 71
3
 72
8
 73
4
 74
0
 40
0
 40
0
 40
0
 40
0
 40
1
 40
1
 40
1
 40
1
 10
14.955167
 20
242.714383
 30
0.0
 10
15.419269
 20
242.982332
 30
0.0
 10
15.991066
 20
242.982332
 30
0.0
 10
16.455167
 20
242.714383
 30
0.0
  0
SPLINE
  5
148
100
AcDbEntity
  8
detection
 62
1
100
AcDbSpline
 70
8
 71
3
 72
8
 73
4
 74
0
 40
0
 40
0
 40
0
 40
0
 40
1
 40
1
 40
1
 40
1
 10
16.455167
 20
242.714383
 30
0.0
 10
16.919269
 20
242.446434
 30
0.0
 10
17.205167
 20
241.951243
 30
0.0
 10
17.205167
 20
241.415345
 30
0.0
  0
SPLINE
  5
149
100
AcDbEntity
  8
detection
 62
1
100
AcDbSpline
 70
8
 71
3
 72
8
 73
4
 74
0
 40
0
 40
0
 40
0
 40
0
 40
1
 40
1
 40
1
 40
1
 10
17.205167
 20
241.415345
 30
0.0
 10
17.205167
 20
240.879447
 30
0.0
 10
16.919269
 20
240.384256
 30
0.0
 10
16.455167
 20
240.116307
 30
0.0
  0
SPLINE
  5
14a
100
AcDbEntity
  8
detection
 62
1
100
AcDbSpline
 70
8
 71
3
 72
8
 73
4
 74
0
 40
0
 40
0
 40
0
 40
0
 40
1
 40
1
 40
1
 40
1
 10
16.455167
 20
240.116307
 30
0.0
 10
15.991066
 20
239.848358
 30
0.0
 10
15.419269
 20
239.848358
 30
0.0
 10
14.955167
 20
240.116307
 30
0.0
  0
LWPOLYLINE
  5
14b
100
AcDbEntity
  8
detection
 62
1
100
AcDbPolyline
 90
1
 70
1
 10
21.028392
 20
236.609929
 30
0.0
  0
SPLINE
  5
14c
100
AcDbEntity
  8
detection
 62
1
100
AcDbSpline
 70
8
 71
3
 72
8
 73
4
 74
0
 40
0
 40
0
 40
0
 40
0
 40
1
 40
1
 40
1
 40
1
 10
34.928393
 20
240.109925
 30
0.0
 10
34.464291
 20
239.841976
 30
0.0
 10
33.892495
 20
239.841976
 30
0.0
 10
33.428393
 20
240.109925
 30
0.0
  0
SPLINE
  5
14d
100
AcDbEntity
  8
detection
 62
1
100
AcDbSpline
 70
8
 71
3
 72
8
 73
4
 74
0
 40
0
 40
0
 40
0
 40
0
 40
1
 40
1
 40
1
 40
1
 10
33.428393
 20
240.109925
 30
0.0
 10
32.964291
 20
240.377875
 30
0.0
 10
32.678393
 20
240.873065
 30
0.0
 10
32.678393
 20
241.408963
 30
0.0
  0
SPLINE
  5
14e
100
AcDbEntity
  8
detection
 62
1
100
AcDbSpline
 70
8
 71
3
 72
8
 73
4
 74
0
 40
0
 40
0
 40
0
 40
0
 40
1
 40
1
 40
1
 40
1
 10
32.678393
 20
241.408963
 30
0.0
 10
32.678393
 20
241.944862
 30
0.0
 10
32.964291
 20
242.440052
 30
0.0
 10
33.428393
 20
242.708002
 30
0.0
  0
SPLINE
  5
14f
100
AcDbEntity
  8
detection
 62
1
100
AcDbSpline
 70
8
 71
3
 72
8
 73
4
 74
0
 40
0
 40
0
 40
0
 40
0
 40
1
 40
1
 40
1
 40
1
 10
33.428393
 20
242.708002
 30
0.0
 10
33.892495
 20
242.975951
 30
0.0
 10
34.464291
 20
242.975951
 30
0.0
 10
34.928393
 20
242.708002
 30
0.0
  0
SPLINE
  5
150
100
AcDbEntity
  8
detection
 62
1
100
AcDbSpline
 70
8
 71
3
 72
8
 73
4
 74
0
 40
0
 40
0
 40
0
 40
0
 40
1
 40
1
 40
1
 40
1
 10
34.928393
 20
242.708002
 30
0.0
 10
35.392495
 20
242.440052
 30
0.0
 10
35.678393
 20
241.944862
 30
0.0
 10
35.678393
 20
241.408963
 30
0.0
  0
SPLINE
  5
151
100
AcDbEntity
  8
detection
 62
1
100
AcDbSpline
 70
8
 71
3
 72
8
 73
4
 74
0
 40
0
 40
0
 40
0
 40
0
 40
1
 40
1
 40
1
 40
1
 10
35.678393
 20
241.408963
 30
0.0
 10
35.678393
 20
240.873065
 30
0.0
 10
35.392495
 20
240.377875
 30
0.0
 10
34.928393
 20
240.109925
 30
0.0
  0
LWPOLYLINE
  5
152
100
AcDbEntity
  8
detection
 62
1
100
AcDbPolyline
 90
1
 70
1
 10
14.955167
 20
240.116307
 30
0.0
  0
SPLINE
  5
153
100
AcDbEntity
  8
detection
 62
1
100
AcDbSpline
 70
8
 71
3
 72
8
 73
4
 74
0
 40
0
 40
0
 40
0
 40
0
 40
1
 40
1
 40
1
 40
1
 10
28.855168
 20
236.603547
 30
0.0
 10
28.391067
 20
236.335598
 30
0.0
 10
27.819270
 20
236.335598
 30
0.0
 10
27.355168
 20
236.603547
 30
0.0
  0
SPLINE
  5
154
100
AcDbEntity
  8
detection
 62
1
100
AcDbSpline
 70
8
 71
3
 72
8
 73
4
 74
0
 40
0
 40
0
 40
0
 40
0
 40
1
 40
1
 40
1
 40
1
 10
27.355168
 20
236.603547
 30
0.0
 10
26.891067
 20
236.871497
 30
0.0
 10
26.605168
 20
237.366687
 30
0.0
 10
26.605168
 20
237.902585
 30
0.0
  0
SPLINE
  5
155
100
AcDbEntity
  8
detection
 62
1
100
AcDbSpline
 70
8
 71
3
 72
8
 73
4
 74
0
 40
0
 40
0
 40
0
 40
0
 40
1
 40
1
 40
1
 40
1
 10
26.605168
 20
237.902585
 30
0.0
 10
26.605168
 20
238.438484
 30
0.0
 10
26.891067
 20
238.933674
 30
0.0
 10
27.355168
 20
239.201624
 30
0.0
  0
SPLINE
  5
156
100
AcDbEntity
  8
detection
 62
1
100
AcDbSpline
 70
8
 71
3
 72
8
 73
4
 74
0
 40
0
 40
0
 40
0
 40
0
 40
1
 40
1
 40
1
 40
1
 10
27.355168
 20
239.201624
 30
0.0
 10
27.819270
 20
239.469573
 30
0.0
 10
28.391067
 20
239.469573
 30
0.0
 10
28.855168
 20
239.201624
 30
0.0
  0
SPLINE
  5
157
100
AcDbEntity
  8
detection
 62
1
100
AcDbSpline
 70
8
 71
3
 72
8
 73
4
 74
0
 40
0
 40
0
 40
0
 40
0
 40
1
 40
1
 40
1
 40
1
 10
28.855168
 20
239.201624
 30
0.0
 10
29.319270
 20
238.933674
 30
0.0
 10
29.605168
 20
238.438484
 30
0.0
 10
29.605168
 20
237.902585
 30
0.0
  0
SPLINE
  5
158
100
AcDbEntity
  8
detection
 62
1
100
AcDbSpline
 70
8
 71
3
 72
8
 73
4
 74
0
 40
0
 40
0
 40
0
 40
0
 40
1
 40
1
 40
1
 40
1
 10
29.605168
 20
237.902585
 30
0.0
 10
29.605168
 20
237.366687
 30
0.0
 10
29.319270
 20
236.871497
 30
0.0
 10
28.855168
 20
236.603547
 30
0.0
  0
LWPOLYLINE
  5
159
100
AcDbEntity
  8
detection
 62
1
100
AcDbPolyline
 90
1
 70
1
 10
34.928393
 20
240.109925
 30
0.0
  0
SPLINE
  5
15a
100
AcDbEntity
  8
detection
 62
1
100
AcDbSpline
 70
8
 71
3
 72
8
 73
4
 74
0
 40
0
 40
0
 40
0
 40
0
 40
1
 40
1
 40
1
 40
1
 10
32.947296
 20
250.397677
 30
0.0
 10
32.947296
 20
247.539553
 30
0.0
 10
31.422505
 20
244.898536
 30
0.0
 10
28.947296
 20
243.469474
 30
0.0
  0
SPLINE
  5
15b
100
AcDbEntity
  8
detection
 62
1
100
AcDbSpline
 70
8
 71
3
 72
8
 73
4
 74
0
 40
0
 40
0
 40
0
 40
0
 40
1
 40
1
 40
1
 40
1
 10
28.947296
 20
243.469474
 30
0.0
 10
26.472087
 20
242.040412
 30
0.0
 10
23.422505
 20
242.040412
 30
0.0
 10
20.947296
 20
243.469474
 30
0.0
  0
SPLINE
  5
15c
100
AcDbEntity
  8
detection
 62
1
100
AcDbSpline
 70
8
 71
3
 72
8
 73
4
 74
0
 40
0
 40
0
 40
0
 40
0
 40
1
 40
1
 40
1
 40
1
 10
20.947296
 20
243.469474
 30
0.0
 10
18.472087
 20
244.898536
 30
0.0
 10
16.947296
 20
247.539553
 30
0.0
 10
16.947296
 20
250.397677
 30
0.0
  0
SPLINE
  5
15d
100
AcDbEntity
  8
detection
 62
1
100
AcDbSpline
 70
8
 71
3
 72
8
 73
4
 74
0
 40
0
 40
0
 40
0
 40
0
 40
1
 40
1
 40
1
 40
1
 10
16.947296
 20
250.397677
 30
0.0
 10
16.947296
 20
253.255802
 30
0.0
 10
18.472087
 20
255.896818
 30
0.0
 10
20.947296
 20
257.325881
 30
0.0
  0
SPLINE
  5
15e
100
AcDbEntity
  8
detection
 62
1
100
AcDbSpline
 70
8
 71
3
 72
8
 73
4
 74
0
 40
0
 40
0
 40
0
 40
0
 40
1
 40
1
 40
1
 40
1
 10
20.947296
 20
257.325881
 30
0.0
 10
23.422505
 20
258.754943
 30
0.0
 10
26.472087
 20
258.754943
 30
0.0
 10
28.947296
 20
257.325881
 30
0.0
  0
SPLINE
  5
15f
100
AcDbEntity
  8
detection
 62
1
100
AcDbSpline
 70
8
 71
3
 72
8
 73
4
 74
0
 40
0
 40
0
 40
0
 40
0
 40
1
 40
1
 40
1
 40
1
 10
28.947296
 20
257.325881
 30
0.0
 10
31.422505
 20
255.896818
 30
0.0
 10
32.947296
 20
253.255802
 30
0.0
 10
32.947296
 20
250.397677
 30
0.0
  0
LWPOLYLINE
  5
160
100
AcDbEntity
  8
detection
 62
1
100
AcDbPolyline
 90
1
 70
1
 10
28.855168
 20
236.603547
 30
0.0
  0
LWPOLYLINE
  5
161
100
AcDbEntity
  8
detection
 62
1
100
AcDbPolyline
 90
1
 70
1
 10
32.947296
 20
250.397677
 30
0.0
  0
SPLINE
  5
162
100
AcDbEntity
  8
detection
 62
4
100
AcDbSpline
 70
8
 71
3
 72
8
 73
4
 74
0
 40
0
 40
0
 40
0
 40
0
 40
1
 40
1
 40
1
 40
1
 10
25.701882
 20
260.703401
 30
0.0
 10
25.653952
 20
260.731181
 30
0.0
 10
25.637582
 20
260.792031
 30
0.0
 10
25.665282
 20
260.840001
 30
0.0
  0
LWPOLYLINE
  5
163
100
AcDbEntity
  8
detection
 62
4
100
AcDbPolyline
 90
2
 70
0
 10
26.999233
 20
259.951717
 30
0.0
 10
25.701882
 20
260.703401
 30
0.0
  0
SPLINE
  5
164
100
AcDbEntity
  8
detection
 62
4
100
AcDbSpline
 70
8
 71
3
 72
8
 73
4
 74
0
 40
0
 40
0
 40
0
 40
0
 40
1
 40
1
 40
1
 40
1
 10
26.615281
 20
262.485449
 30
0.0
 10
26.642981
 20
262.533419
 30
0.0
 10
26.703911
 20
262.549749
 30
0.0
 10
26.751882
 20
262.522049
 30
0.0
  0
LWPOLYLINE
  5
165
100
AcDbEntity
  8
detection
 62
4
100
AcDbPolyline
 90
2
 70
0
 10
25.665282
 20
260.840001
 30
0.0
 10
26.615281
 20
262.485449
 30
0.0
  0
SPLINE
  5
166
100
AcDbEntity
  8
detection
 62
4
100
AcDbSpline
 70
8
 71
3
 72
8
 73
4
 74
0
 40
0
 40
0
 40
0
 40
0
 40
1
 40
1
 40
1
 40
1
 10
34.546109
 20
258.022049
 30
0.0
 10
34.594079
 20
257.994349
 30
0.0
 10
34.610409
 20
257.933419
 30
0.0
 10
34.582709
 20
257.885448
 30
0.0
  0
LWPOLYLINE
  5
167
100
AcDbEntity
  8
detection
 62
4
100
AcDbPolyline
 90
2
 70
0
 10
26.751882
 20
262.522049
 30
0.0
 10
34.546109
 20
258.022049
 30
0.0
  0
SPLINE
  5
168
100
AcDbEntity
  8
detection
 62
4
100
AcDbSpline
 70
8
 71
3
 72
8
 73
4
 74
0
 40
0
 40
0
 40
0
 40
0
 40
1
 40
1
 40
1
 40
1
 10
33.632709
 20
256.239999
 30
0.0
 10
33.605009
 20
256.192029
 30
0.0
 10
33.544079
 20
256.175699
 30
0.0
 10
33.496107
 20
256.203399
 30
0.0
  0
LWPOLYLINE
  5
169
100
AcDbEntity
  8
detection
 62
4
100
AcDbPolyline
 90
2
 70
0
 10
34.582709
 20
257.885448
 30
0.0
 10
33.632709
 20
256.239999
 30
0.0
  0
LWPOLYLINE
  5
16a
100
AcDbEntity
  8
detection
 62
4
100
AcDbPolyline
 90
5
 70
0
 10
33.496107
 20
256.203399
 30
0.0
 10
32.196632
 20
256.953116
 30
0.0
 10
31.045383
 20
254.959857
 30
0.0
 10
25.849231
 20
257.959858
 30
0.0
 10
26.999233
 20
259.951717
 30
0.0
  0
SPLINE
  5
16b
100
AcDbEntity
  8
detection
 62
4
100
AcDbSpline
 70
8
 71
3
 72
8
 73
4
 74
0
 40
0
 40
0
 40
0
 40
0
 40
1
 40
1
 40
1
 40
1
 10
16.399582
 20
256.204028
 30
0.0
 10
16.351552
 20
256.176408
 30
0.0
 10
16.290671
 20
256.192658
 30
0.0
 10
16.262980
 20
256.240628
 30
0.0
  0
LWPOLYLINE
  5
16c
100
AcDbEntity
  8
detection
 62
4
100
AcDbPolyline
 90
2
 70
0
 10
17.699234
 20
256.951727
 30
0.0
 10
16.399582
 20
256.204028
 30
0.0
  0
SPLINE
  5
16d
100
AcDbEntity
  8
detection
 62
4
100
AcDbSpline
 70
8
 71
3
 72
8
 73
4
 74
0
 40
0
 40
0
 40
0
 40
0
 40
1
 40
1
 40
1
 40
1
 10
15.312980
 20
257.886074
 30
0.0
 10
15.285280
 20
257.934044
 30
0.0
 10
15.301610
 20
257.994984
 30
0.0
 10
15.349580
 20
258.022677
 30
0.0
  0
LWPOLYLINE
  5
16e
100
AcDbEntity
  8
detection
 62
4
100
AcDbPolyline
 90
2
 70
0
 10
16.262980
 20
256.240628
 30
0.0
 10
15.312980
 20
257.886074
 30
0.0
  0
SPLINE
  5
16f
100
AcDbEntity
  8
detection
 62
4
100
AcDbSpline
 70
8
 71
3
 72
8
 73
4
 74
0
 40
0
 40
0
 40
0
 40
0
 40
1
 40
1
 40
1
 40
1
 10
23.143809
 20
262.522677
 30
0.0
 10
23.191789
 20
262.550377
 30
0.0
 10
23.252719
 20
262.534037
 30
0.0
 10
23.280412
 20
262.486077
 30
0.0
  0
LWPOLYLINE
  5
170
100
AcDbEntity
  8
detection
 62
4
100
AcDbPolyline
 90
2
 70
0
 10
15.349580
 20
258.022677
 30
0.0
 10
23.143809
 20
262.522677
 30
0.0
  0
SPLINE
  5
171
100
AcDbEntity
  8
detection
 62
4
100
AcDbSpline
 70
8
 71
3
 72
8
 73
4
 74
0
 40
0
 40
0
 40
0
 40
0
 40
1
 40
1
 40
1
 40
1
 10
24.230412
 20
260.840628
 30
0.0
 10
24.258112
 20
260.792658
 30
0.0
 10
24.241782
 20
260.731718
 30
0.0
 10
24.193812
 20
260.704026
 30
0.0
  0
LWPOLYLINE
  5
172
100
AcDbEntity
  8
detection
 62
4
100
AcDbPolyline
 90
2
 70
0
 10
23.280412
 20
262.486077
 30
0.0
 10
24.230412
 20
260.840628
 30
0.0
  0
LWPOLYLINE
  5
173
100
AcDbEntity
  8
detection
 62
4
100
AcDbPolyline
 90
5
 70
0
 10
24.193812
 20
260.704026
 30
0.0
 10
22.894800
 20
259.953506
 30
0.0
 10
24.045388
 20
257.959865
 30
0.0
 10
18.849235
 20
254.959866
 30
0.0
 10
17.699234
 20
256.951727
 30
0.0
  0
SPLINE
  5
174
100
AcDbEntity
  8
detection
 62
4
100
AcDbSpline
 70
8
 71
3
 72
8
 73
4
 74
0
 40
0
 40
0
 40
0
 40
0
 40
1
 40
1
 40
1
 40
1
 10
15.645001
 20
245.898316
 30
0.0
 10
15.644909
 20
245.842906
 30
0.0
 10
15.600381
 20
245.798310
 30
0.0
 10
15.545001
 20
245.798316
 30
0.0
  0
LWPOLYLINE
  5
175
100
AcDbEntity
  8
detection
 62
4
100
AcDbPolyline
 90
2
 70
0
 10
15.647301
 20
247.397697
 30
0.0
 10
15.645001
 20
245.898316
 30
0.0
  0
SPLINE
  5
176
100
AcDbEntity
  8
detection
 62
4
100
AcDbSpline
 70
8
 71
3
 72
8
 73
4
 74
0
 40
0
 40
0
 40
0
 40
0
 40
1
 40
1
 40
1
 40
1
 10
13.645003
 20
245.798315
 30
0.0
 10
13.589603
 20
245.798317
 30
0.0
 10
13.545000
 20
245.842925
 30
0.0
 10
13.545003
 20
245.898315
 30
0.0
  0
LWPOLYLINE
  5
177
100
AcDbEntity
  8
detection
 62
4
100
AcDbPolyline
 90
2
 70
0
 10
15.545001
 20
245.798316
 30
0.0
 10
13.645003
 20
245.798315
 30
0.0
  0
SPLINE
  5
178
100
AcDbEntity
  8
detection
 62
4
100
AcDbSpline
 70
8
 71
3
 72
8
 73
4
 74
0
 40
0
 40
0
 40
0
 40
0
 40
1
 40
1
 40
1
 40
1
 10
13.545004
 20
254.898315
 30
0.0
 10
13.545013
 20
254.953725
 30
0.0
 10
13.589624
 20
254.998315
 30
0.0
 10
13.645004
 20
254.998315
 30
0.0
  0
LWPOLYLINE
  5
179
100
AcDbEntity
  8
detection
 62
4
100
AcDbPolyline
 90
2
 70
0
 10
13.545003
 20
245.898315
 30
0.0
 10
13.545004
 20
254.898315
 30
0.0
  0
SPLINE
  5
17a
100
AcDbEntity
  8
detection
 62
4
100
AcDbSpline
 70
8
 71
3
 72
8
 73
4
 74
0
 40
0
 40
0
 40
0
 40
0
 40
1
 40
1
 40
1
 40
1
 10
15.545004
 20
254.998315
 30
0.0
 10
15.600404
 20
254.998313
 30
0.0
 10
15.645007
 20
254.953705
 30
0.0
 10
15.645013
 20
254.898315
 30
0.0
  0
LWPOLYLINE
  5
17b
100
AcDbEntity
  8
detection
 62
4
100
AcDbPolyline
 90
2
 70
0
 10
13.645004
 20
254.998315
 30
0.0
 10
15.545004
 20
254.998315
 30
0.0
  0
LWPOLYLINE
  5
17c
100
AcDbEntity
  8
detection
 62
4
100
AcDbPolyline
 90
5
 70
0
 10
15.645013
 20
254.898315
 30
0.0
 10
15.645477
 20
253.398078
 30
0.0
 10
17.947314
 20
253.397696
 30
0.0
 10
17.947313
 20
247.397696
 30
0.0
 10
15.647301
 20
247.397697
 30
0.0
  0
SPLINE
  5
17d
100
AcDbEntity
  8
detection
 62
4
100
AcDbSpline
 70
8
 71
3
 72
8
 73
4
 74
0
 40
0
 40
0
 40
0
 40
0
 40
1
 40
1
 40
1
 40
1
 10
24.192721
 20
240.091967
 30
0.0
 10
24.240631
 20
240.064267
 30
0.0
 10
24.257011
 20
240.003367
 30
0.0
 10
24.229321
 20
239.955377
 30
0.0
  0
LWPOLYLINE
  5
17e
100
AcDbEntity
  8
detection
 62
4
100
AcDbPolyline
 90
2
 70
0
 10
22.895369
 20
240.843657
 30
0.0
 10
24.192721
 20
240.091967
 30
0.0
  0
SPLINE
  5
17f
100
AcDbEntity
  8
detection
 62
4
100
AcDbSpline
 70
8
 71
3
 72
8
 73
4
 74
0
 40
0
 40
0
 40
0
 40
0
 40
1
 40
1
 40
1
 40
1
 10
23.279325
 20
238.309927
 30
0.0
 10
23.251615
 20
238.261927
 30
0.0
 10
23.190705
 20
238.245627
 30
0.0
 10
23.142725
 20
238.273327
 30
0.0
  0
LWPOLYLINE
  5
180
100
AcDbEntity
  8
detection
 62
4
100
AcDbPolyline
 90
2
 70
0
 10
24.229321
 20
239.955377
 30
0.0
 10
23.279325
 20
238.309927
 30
0.0
  0
SPLINE
  5
181
100
AcDbEntity
  8
detection
 62
4
100
AcDbSpline
 70
8
 71
3
 72
8
 73
4
 74
0
 40
0
 40
0
 40
0
 40
0
 40
1
 40
1
 40
1
 40
1
 10
15.348499
 20
242.773327
 30
0.0
 10
15.300519
 20
242.801027
 30
0.0
 10
15.284209
 20
242.861927
 30
0.0
 10
15.311889
 20
242.909927
 30
0.0
  0
LWPOLYLINE
  5
182
100
AcDbEntity
  8
detection
 62
4
100
AcDbPolyline
 90
2
 70
0
 10
23.142725
 20
238.273327
 30
0.0
 10
15.348499
 20
242.773327
 30
0.0
  0
SPLINE
  5
183
100
AcDbEntity
  8
detection
 62
4
100
AcDbSpline
 70
8
 71
3
 72
8
 73
4
 74
0
 40
0
 40
0
 40
0
 40
0
 40
1
 40
1
 40
1
 40
1
 10
16.261889
 20
244.555374
 30
0.0
 10
16.289599
 20
244.603364
 30
0.0
 10
16.350529
 20
244.619664
 30
0.0
 10
16.398498
 20
244.591984
 30
0.0
  0
LWPOLYLINE
  5
184
100
AcDbEntity
  8
detection
 62
4
100
AcDbPolyline
 90
2
 70
0
 10
15.311889
 20
242.909927
 30
0.0
 10
16.261889
 20
244.555374
 30
0.0
  0
LWPOLYLINE
  5
185
100
AcDbEntity
  8
detection
 62
4
100
AcDbPolyline
 90
5
 70
0
 10
16.398498
 20
244.591984
 30
0.0
 10
17.697972
 20
243.842268
 30
0.0
 10
18.849222
 20
245.835526
 30
0.0
 10
24.045373
 20
242.835527
 30
0.0
 10
22.895369
 20
240.843657
 30
0.0
  0
SPLINE
  5
186
100
AcDbEntity
  8
detection
 62
4
100
AcDbSpline
 70
8
 71
3
 72
8
 73
4
 74
0
 40
0
 40
0
 40
0
 40
0
 40
1
 40
1
 40
1
 40
1
 10
33.494873
 20
244.591604
 30
0.0
 10
33.542843
 20
244.619264
 30
0.0
 10
33.603739
 20
244.602964
 30
0.0
 10
33.631464
 20
244.555004
 30
0.0
  0
LWPOLYLINE
  5
187
100
AcDbEntity
  8
detection
 62
4
100
AcDbPolyline
 90
2
 70
0
 10
32.195369
 20
243.843641
 30
0.0
 10
33.494873
 20
244.591604
 30
0.0
  0
SPLINE
  5
188
100
AcDbEntity
  8
detection
 62
4
100
AcDbSpline
 70
8
 71
3
 72
8
 73
4
 74
0
 40
0
 40
0
 40
0
 40
0
 40
1
 40
1
 40
1
 40
1
 10
34.581469
 20
242.909547
 30
0.0
 10
34.609159
 20
242.861547
 30
0.0
 10
34.592879
 20
242.800617
 30
0.0
 10
34.544869
 20
242.772957
 30
0.0
  0
LWPOLYLINE
  5
189
100
AcDbEntity
  8
detection
 62
4
100
AcDbPolyline
 90
2
 70
0
 10
33.631464
 20
244.555004
 30
0.0
 10
34.581469
 20
242.909547
 30
0.0
  0
SPLINE
  5
18a
100
AcDbEntity
  8
detection
 62
4
100
AcDbSpline
 70
8
 71
3
 72
8
 73
4
 74
0
 40
0
 40
0
 40
0
 40
0
 40
1
 40
1
 40
1
 40
1
 10
26.750643
 20
238.272957
 30
0.0
 10
26.702683
 20
238.245157
 30
0.0
 10
26.641821
 20
238.261457
 30
0.0
 10
26.614037
 20
238.309557
 30
0.0
  0
LWPOLYLINE
  5
18b
100
AcDbEntity
  8
detection
 62
4
100
AcDbPolyline
 90
2
 70
0
 10
34.544869
 20
242.772957
 30
0.0
 10
26.750643
 20
238.272957
 30
0.0
  0
SPLINE
  5
18c
100
AcDbEntity
  8
detection
 62
4
100
AcDbSpline
 70
8
 71
3
 72
8
 73
4
 74
0
 40
0
 40
0
 40
0
 40
0
 40
1
 40
1
 40
1
 40
1
 10
25.664036
 20
239.955007
 30
0.0
 10
25.636346
 20
240.003007
 30
0.0
 10
25.652686
 20
240.063927
 30
0.0
 10
25.700646
 20
240.091617
 30
0.0
  0
LWPOLYLINE
  5
18d
100
AcDbEntity
  8
detection
 62
4
100
AcDbPolyline
 90
2
 70
0
 10
26.614037
 20
238.309557
 30
0.0
 10
25.664036
 20
239.955007
 30
0.0
  0
LWPOLYLINE
  5
18e
100
AcDbEntity
  8
detection
 62
4
100
AcDbPolyline
 90
5
 70
0
 10
25.700646
 20
240.091617
 30
0.0
 10
26.999654
 20
240.842137
 30
0.0
 10
25.849068
 20
242.835777
 30
0.0
 10
31.045217
 20
245.835784
 30
0.0
 10
32.195369
 20
243.843641
 30
0.0
  0
SPLINE
  5
18f
100
AcDbEntity
  8
detection
 62
4
100
AcDbSpline
 70
8
 71
3
 72
8
 73
4
 74
0
 40
0
 40
0
 40
0
 40
0
 40
1
 40
1
 40
1
 40
1
 10
34.249601
 20
254.897057
 30
0.0
 10
34.249687
 20
254.952457
 30
0.0
 10
34.294201
 20
254.997057
 30
0.0
 10
34.349601
 20
254.997057
 30
0.0
  0
LWPOLYLINE
  5
190
100
AcDbEntity
  8
detection
 62
4
100
AcDbPolyline
 90
2
 70
0
 10
34.247301
 20
253.397677
 30
0.0
 10
34.249601
 20
254.897057
 30
0.0
  0
SPLINE
  5
191
100
AcDbEntity
  8
detection
 62
4
100
AcDbSpline
 70
8
 71
3
 72
8
 73
4
 74
0
 40
0
 40
0
 40
0
 40
0
 40
1
 40
1
 40
1
 40
1
 10
36.249601
 20
254.997057
 30
0.0
 10
36.305001
 20
254.997057
 30
0.0
 10
36.349601
 20
254.952457
 30
0.0
 10
36.349601
 20
254.897057
 30
0.0
  0
LWPOLYLINE
  5
192
100
AcDbEntity
  8
detection
 62
4
100
AcDbPolyline
 90
2
 70
0
 10
34.349601
 20
254.997057
 30
0.0
 10
36.249601
 20
254.997057
 30
0.0
  0
SPLINE
  5
193
100
AcDbEntity
  8
detection
 62
4
100
AcDbSpline
 70
8
 71
3
 72
8
 73
4
 74
0
 40
0
 40
0
 40
0
 40
0
 40
1
 40
1
 40
1
 40
1
 10
36.349601
 20
245.897058
 30
0.0
 10
36.349601
 20
245.841658
 30
0.0
 10
36.305001
 20
245.797058
 30
0.0
 10
36.249601
 20
245.797058
 30
0.0
  0
LWPOLYLINE
  5
194
100
AcDbEntity
  8
detection
 62
4
100
AcDbPolyline
 90
2
 70
0
 10
36.349601
 20
254.897057
 30
0.0
 10
36.349601
 20
245.897058
 30
0.0
  0
SPLINE
  5
195
100
AcDbEntity
  8
detection
 62
4
100
AcDbSpline
 70
8
 71
3
 72
8
 73
4
 74
0
 40
0
 40
0
 40
0
 40
0
 40
1
 40
1
 40
1
 40
1
 10
34.349601
 20
245.797058
 30
0.0
 10
34.294201
 20
245.797058
 30
0.0
 10
34.249601
 20
245.841658
 30
0.0
 10
34.249601
 20
245.897058
 30
0.0
  0
LWPOLYLINE
  5
196
100
AcDbEntity
  8
detection
 62
4
100
AcDbPolyline
 90
2
 70
0
 10
36.249601
 20
245.797058
 30
0.0
 10
34.349601
 20
245.797058
 30
0.0
  0
LWPOLYLINE
  5
197
100
AcDbEntity
  8
detection
 62
4
100
AcDbPolyline
 90
5
 70
0
 10
34.249601
 20
245.897058
 30
0.0
 10
34.249137
 20
247.397296
 30
0.0
 10
31.947301
 20
247.397677
 30
0.0
 10
31.947301
 20
253.397677
 30
0.0
 10
34.247301
 20
253.397677
 30
0.0
  0
SPLINE
  5
198
100
AcDbEntity
  8
detection
 62
4
100
AcDbSpline
 70
8
 71
3
 72
8
 73
4
 74
0
 40
0
 40
0
 40
0
 40
0
 40
1
 40
1
 40
1
 40
1
 10
11.515791
 20
276.042809
 30
0.0
 10
11.478591
 20
276.042869
 30
0.0
 10
11.448631
 20
276.072909
 30
0.0
 10
11.448631
 20
276.110009
 30
0.0
  0
LWPOLYLINE
  5
199
100
AcDbEntity
  8
detection
 62
4
100
AcDbPolyline
 90
2
 70
0
 10
12.522821
 20
276.040809
 30
0.0
 10
11.515791
 20
276.042809
 30
0.0
  0
SPLINE
  5
19a
100
AcDbEntity
  8
detection
 62
4
100
AcDbSpline
 70
8
 71
3
 72
8
 73
4
 74
0
 40
0
 40
0
 40
0
 40
0
 40
1
 40
1
 40
1
 40
1
 10
11.448630
 20
277.386109
 30
0.0
 10
11.448632
 20
277.423409
 30
0.0
 10
11.478590
 20
277.453309
 30
0.0
 10
11.515790
 20
277.453309
 30
0.0
  0
LWPOLYLINE
  5
19b
100
AcDbEntity
  8
detection
 62
4
100
AcDbPolyline
 90
2
 70
0
 10
11.448631
 20
276.110009
 30
0.0
 10
11.448630
 20
277.386109
 30
0.0
  0
SPLINE
  5
19c
100
AcDbEntity
  8
detection
 62
4
100
AcDbSpline
 70
8
 71
3
 72
8
 73
4
 74
0
 40
0
 40
0
 40
0
 40
0
 40
1
 40
1
 40
1
 40
1
 10
17.560457
 20
277.453309
 30
0.0
 10
17.597657
 20
277.453309
 30
0.0
 10
17.627617
 20
277.423209
 30
0.0
 10
17.627617
 20
277.386109
 30
0.0
  0
LWPOLYLINE
  5
19d
100
AcDbEntity
  8
detection
 62
4
100
AcDbPolyline
 90
2
 70
0
 10
11.515790
 20
277.453309
 30
0.0
 10
17.560457
 20
277.453309
 30
0.0
  0
SPLINE
  5
19e
100
AcDbEntity
  8
detection
 62
4
100
AcDbSpline
 70
8
 71
3
 72
8
 73
4
 74
0
 40
0
 40
0
 40
0
 40
0
 40
1
 40
1
 40
1
 40
1
 10
17.627617
 20
276.110009
 30
0.0
 10
17.627616
 20
276.072709
 30
0.0
 10
17.597657
 20
276.042809
 30
0.0
 10
17.560457
 20
276.042809
 30
0.0
  0
LWPOLYLINE
  5
19f
100
AcDbEntity
  8
detection
 62
4
100
AcDbPolyline
 90
2
 70
0
 10
17.627617
 20
277.386109
 30
0.0
 10
17.627617
 20
276.110009
 30
0.0
  0
LWPOLYLINE
  5
1a0
100
AcDbEntity
  8
detection
 62
4
100
AcDbPolyline
 90
5
 70
0
 10
17.560457
 20
276.042809
 30
0.0
 10
16.552852
 20
276.042499
 30
0.0
 10
16.552596
 20
274.496509
 30
0.0
 10
12.522817
 20
274.496509
 30
0.0
 10
12.522821
 20
276.040809
 30
0.0
  0
LWPOLYLINE
  5
1a1
100
AcDbEntity
  8
detection
 62
7
100
AcDbPolyline
 90
2
 70
0
 10
20.216662
 20
279.358329
 30
0.0
 10
20.216662
 20
274.858329
 30
0.0
  0
SPLINE
  5
1a2
100
AcDbEntity
  8
detection
 62
1
100
AcDbSpline
 70
8
 71
3
 72
8
 73
4
 74
0
 40
0
 40
0
 40
0
 40
0
 40
1
 40
1
 40
1
 40
1
 10
37.947306
 20
217.938434
 30
0.0
 10
37.947306
 20
213.293982
 30
0.0
 10
35.469520
 20
209.002330
 30
0.0
 10
31.447306
 20
206.680104
 30
0.0
  0
SPLINE
  5
1a3
100
AcDbEntity
  8
detection
 62
1
100
AcDbSpline
 70
8
 71
3
 72
8
 73
4
 74
0
 40
0
 40
0
 40
0
 40
0
 40
1
 40
1
 40
1
 40
1
 10
31.447306
 20
206.680104
 30
0.0
 10
27.425092
 20
204.357878
 30
0.0
 10
22.469520
 20
204.357878
 30
0.0
 10
18.447306
 20
206.680104
 30
0.0
  0
SPLINE
  5
1a4
100
AcDbEntity
  8
detection
 62
1
100
AcDbSpline
 70
8
 71
3
 72
8
 73
4
 74
0
 40
0
 40
0
 40
0
 40
0
 40
1
 40
1
 40
1
 40
1
 10
18.447306
 20
206.680104
 30
0.0
 10
14.425092
 20
209.002330
 30
0.0
 10
11.947306
 20
213.293982
 30
0.0
 10
11.947306
 20
217.938434
 30
0.0
  0
SPLINE
  5
1a5
100
AcDbEntity
  8
detection
 62
1
100
AcDbSpline
 70
8
 71
3
 72
8
 73
4
 74
0
 40
0
 40
0
 40
0
 40
0
 40
1
 40
1
 40
1
 40
1
 10
11.947306
 20
217.938434
 30
0.0
 10
11.947306
 20
222.582887
 30
0.0
 10
14.425092
 20
226.874538
 30
0.0
 10
18.447306
 20
229.196765
 30
0.0
  0
SPLINE
  5
1a6
100
AcDbEntity
  8
detection
 62
1
100
AcDbSpline
 70
8
 71
3
 72
8
 73
4
 74
0
 40
0
 40
0
 40
0
 40
0
 40
1
 40
1
 40
1
 40
1
 10
18.447306
 20
229.196765
 30
0.0
 10
22.469520
 20
231.518991
 30
0.0
 10
27.425092
 20
231.518991
 30
0.0
 10
31.447306
 20
229.196765
 30
0.0
  0
SPLINE
  5
1a7
100
AcDbEntity
  8
detection
 62
1
100
AcDbSpline
 70
8
 71
3
 72
8
 73
4
 74
0
 40
0
 40
0
 40
0
 40
0
 40
1
 40
1
 40
1
 40
1
 10
31.447306
 20
229.196765
 30
0.0
 10
35.469520
 20
226.874538
 30
0.0
 10
37.947306
 20
222.582887
 30
0.0
 10
37.947306
 20
217.938434
 30
0.0
  0
LWPOLYLINE
  5
1a8
100
AcDbEntity
  8
detection
 62
7
100
AcDbPolyline
 90
2
 70
0
 10
17.716663
 20
274.398249
 30
0.0
 10
22.216663
 20
274.398249
 30
0.0
  0
SPLINE
  5
1a9
100
AcDbEntity
  8
detection
 62
1
100
AcDbSpline
 70
8
 71
3
 72
8
 73
4
 74
0
 40
0
 40
0
 40
0
 40
0
 40
1
 40
1
 40
1
 40
1
 10
38.847300
 20
221.438434
 30
0.0
 10
38.847300
 20
220.902536
 30
0.0
 10
38.561402
 20
220.407345
 30
0.0
 10
38.097300
 20
220.139396
 30
0.0
  0
SPLINE
  5
1aa
100
AcDbEntity
  8
detection
 62
1
100
AcDbSpline
 70
8
 71
3
 72
8
 73
4
 74
0
 40
0
 40
0
 40
0
 40
0
 40
1
 40
1
 40
1
 40
1
 10
38.097300
 20
220.139396
 30
0.0
 10
37.633198
 20
219.871447
 30
0.0
 10
37.061402
 20
219.871447
 30
0.0
 10
36.597300
 20
220.139396
 30
0.0
  0
SPLINE
  5
1ab
100
AcDbEntity
  8
detection
 62
1
100
AcDbSpline
 70
8
 71
3
 72
8
 73
4
 74
0
 40
0
 40
0
 40
0
 40
0
 40
1
 40
1
 40
1
 40
1
 10
36.597300
 20
220.139396
 30
0.0
 10
36.133198
 20
220.407345
 30
0.0
 10
35.847300
 20
220.902536
 30
0.0
 10
35.847300
 20
221.438434
 30
0.0
  0
SPLINE
  5
1ac
100
AcDbEntity
  8
detection
 62
1
100
AcDbSpline
 70
8
 71
3
 72
8
 73
4
 74
0
 40
0
 40
0
 40
0
 40
0
 40
1
 40
1
 40
1
 40
1
 10
35.847300
 20
221.438434
 30
0.0
 10
35.847300
 20
221.974333
 30
0.0
 10
36.133198
 20
222.469523
 30
0.0
 10
36.597300
 20
222.737472
 30
0.0
  0
SPLINE
  5
1ad
100
AcDbEntity
  8
detection
 62
1
100
AcDbSpline
 70
8
 71
3
 72
8
 73
4
 74
0
 40
0
 40
0
 40
0
 40
0
 40
1
 40
1
 40
1
 40
1
 10
36.597300
 20
222.737472
 30
0.0
 10
37.061402
 20
223.005422
 30
0.0
 10
37.633198
 20
223.005422
 30
0.0
 10
38.097300
 20
222.737472
 30
0.0
  0
SPLINE
  5
1ae
100
AcDbEntity
  8
detection
 62
1
100
AcDbSpline
 70
8
 71
3
 72
8
 73
4
 74
0
 40
0
 40
0
 40
0
 40
0
 40
1
 40
1
 40
1
 40
1
 10
38.097300
 20
222.737472
 30
0.0
 10
38.561402
 20
222.469523
 30
0.0
 10
38.847300
 20
221.974333
 30
0.0
 10
38.847300
 20
221.438434
 30
0.0
  0
LWPOLYLINE
  5
1af
100
AcDbEntity
  8
detection
 62
1
100
AcDbPolyline
 90
1
 70
1
 10
37.947306
 20
217.938434
 30
0.0
  0
SPLINE
  5
1b0
100
AcDbEntity
  8
detection
 62
1
100
AcDbSpline
 70
8
 71
3
 72
8
 73
4
 74
0
 40
0
 40
0
 40
0
 40
0
 40
1
 40
1
 40
1
 40
1
 10
38.847300
 20
214.425678
 30
0.0
 10
38.847300
 20
213.889780
 30
0.0
 10
38.561402
 20
213.394589
 30
0.0
 10
38.097300
 20
213.126640
 30
0.0
  0
SPLINE
  5
1b1
100
AcDbEntity
  8
detection
 62
1
100
AcDbSpline
 70
8
 71
3
 72
8
 73
4
 74
0
 40
0
 40
0
 40
0
 40
0
 40
1
 40
1
 40
1
 40
1
 10
38.097300
 20
213.126640
 30
0.0
 10
37.633198
 20
212.858691
 30
0.0
 10
37.061402
 20
212.858691
 30
0.0
 10
36.597300
 20
213.126640
 30
0.0
  0
SPLINE
  5
1b2
100
AcDbEntity
  8
detection
 62
1
100
AcDbSpline
 70
8
 71
3
 72
8
 73
4
 74
0
 40
0
 40
0
 40
0
 40
0
 40
1
 40
1
 40
1
 40
1
 10
36.597300
 20
213.126640
 30
0.0
 10
36.133198
 20
213.394589
 30
0.0
 10
35.847300
 20
213.889780
 30
0.0
 10
35.847300
 20
214.425678
 30
0.0
  0
SPLINE
  5
1b3
100
AcDbEntity
  8
detection
 62
1
100
AcDbSpline
 70
8
 71
3
 72
8
 73
4
 74
0
 40
0
 40
0
 40
0
 40
0
 40
1
 40
1
 40
1
 40
1
 10
35.847300
 20
214.425678
 30
0.0
 10
35.847300
 20
214.961577
 30
0.0
 10
36.133198
 20
215.456767
 30
0.0
 10
36.597300
 20
215.724716
 30
0.0
  0
SPLINE
  5
1b4
100
AcDbEntity
  8
detection
 62
1
100
AcDbSpline
 70
8
 71
3
 72
8
 73
4
 74
0
 40
0
 40
0
 40
0
 40
0
 40
1
 40
1
 40
1
 40
1
 10
36.597300
 20
215.724716
 30
0.0
 10
37.061402
 20
215.992666
 30
0.0
 10
37.633198
 20
215.992666
 30
0.0
 10
38.097300
 20
215.724716
 30
0.0
  0
SPLINE
  5
1b5
100
AcDbEntity
  8
detection
 62
1
100
AcDbSpline
 70
8
 71
3
 72
8
 73
4
 74
0
 40
0
 40
0
 40
0
 40
0
 40
1
 40
1
 40
1
 40
1
 10
38.097300
 20
215.724716
 30
0.0
 10
38.561402
 20
215.456767
 30
0.0
 10
38.847300
 20
214.961577
 30
0.0
 10
38.847300
 20
214.425678
 30
0.0
  0
LWPOLYLINE
  5
1b6
100
AcDbEntity
  8
detection
 62
1
100
AcDbPolyline
 90
1
 70
1
 10
38.847300
 20
221.438434
 30
0.0
  0
SPLINE
  5
1b7
100
AcDbEntity
  8
detection
 62
1
100
AcDbSpline
 70
8
 71
3
 72
8
 73
4
 74
0
 40
0
 40
0
 40
0
 40
0
 40
1
 40
1
 40
1
 40
1
 10
28.866220
 20
231.726187
 30
0.0
 10
29.330322
 20
231.458238
 30
0.0
 10
29.616220
 20
230.963047
 30
0.0
 10
29.616220
 20
230.427149
 30
0.0
  0
SPLINE
  5
1b8
100
AcDbEntity
  8
detection
 62
1
100
AcDbSpline
 70
8
 71
3
 72
8
 73
4
 74
0
 40
0
 40
0
 40
0
 40
0
 40
1
 40
1
 40
1
 40
1
 10
29.616220
 20
230.427149
 30
0.0
 10
29.616220
 20
229.891250
 30
0.0
 10
29.330322
 20
229.396060
 30
0.0
 10
28.866220
 20
229.128111
 30
0.0
  0
SPLINE
  5
1b9
100
AcDbEntity
  8
detection
 62
1
100
AcDbSpline
 70
8
 71
3
 72
8
 73
4
 74
0
 40
0
 40
0
 40
0
 40
0
 40
1
 40
1
 40
1
 40
1
 10
28.866220
 20
229.128111
 30
0.0
 10
28.402118
 20
228.860161
 30
0.0
 10
27.830322
 20
228.860161
 30
0.0
 10
27.366220
 20
229.128111
 30
0.0
  0
SPLINE
  5
1ba
100
AcDbEntity
  8
detection
 62
1
100
AcDbSpline
 70
8
 71
3
 72
8
 73
4
 74
0
 40
0
 40
0
 40
0
 40
0
 40
1
 40
1
 40
1
 40
1
 10
27.366220
 20
229.128111
 30
0.0
 10
26.902118
 20
229.396060
 30
0.0
 10
26.616220
 20
229.891250
 30
0.0
 10
26.616220
 20
230.427149
 30
0.0
  0
SPLINE
  5
1bb
100
AcDbEntity
  8
detection
 62
1
100
AcDbSpline
 70
8
 71
3
 72
8
 73
4
 74
0
 40
0
 40
0
 40
0
 40
0
 40
1
 40
1
 40
1
 40
1
 10
26.616220
 20
230.427149
 30
0.0
 10
26.616220
 20
230.963047
 30
0.0
 10
26.902118
 20
231.458238
 30
0.0
 10
27.366220
 20
231.726187
 30
0.0
  0
SPLINE
  5
1bc
100
AcDbEntity
  8
detection
 62
1
100
AcDbSpline
 70
8
 71
3
 72
8
 73
4
 74
0
 40
0
 40
0
 40
0
 40
0
 40
1
 40
1
 40
1
 40
1
 10
27.366220
 20
231.726187
 30
0.0
 10
27.830322
 20
231.994136
 30
0.0
 10
28.402118
 20
231.994136
 30
0.0
 10
28.866220
 20
231.726187
 30
0.0
  0
LWPOLYLINE
  5
1bd
100
AcDbEntity
  8
detection
 62
1
100
AcDbPolyline
 90
1
 70
1
 10
38.847300
 20
214.425678
 30
0.0
  0
SPLINE
  5
1be
100
AcDbEntity
  8
detection
 62
1
100
AcDbSpline
 70
8
 71
3
 72
8
 73
4
 74
0
 40
0
 40
0
 40
0
 40
0
 40
1
 40
1
 40
1
 40
1
 10
34.939445
 20
228.219809
 30
0.0
 10
35.403546
 20
227.951860
 30
0.0
 10
35.689445
 20
227.456669
 30
0.0
 10
35.689445
 20
226.920771
 30
0.0
  0
SPLINE
  5
1bf
100
AcDbEntity
  8
detection
 62
1
100
AcDbSpline
 70
8
 71
3
 72
8
 73
4
 74
0
 40
0
 40
0
 40
0
 40
0
 40
1
 40
1
 40
1
 40
1
 10
35.689445
 20
226.920771
 30
0.0
 10
35.689445
 20
226.384872
 30
0.0
 10
35.403546
 20
225.889682
 30
0.0
 10
34.939445
 20
225.621733
 30
0.0
  0
SPLINE
  5
1c0
100
AcDbEntity
  8
detection
 62
1
100
AcDbSpline
 70
8
 71
3
 72
8
 73
4
 74
0
 40
0
 40
0
 40
0
 40
0
 40
1
 40
1
 40
1
 40
1
 10
34.939445
 20
225.621733
 30
0.0
 10
34.475343
 20
225.353783
 30
0.0
 10
33.903546
 20
225.353783
 30
0.0
 10
33.439445
 20
225.621733
 30
0.0
  0
SPLINE
  5
1c1
100
AcDbEntity
  8
detection
 62
1
100
AcDbSpline
 70
8
 71
3
 72
8
 73
4
 74
0
 40
0
 40
0
 40
0
 40
0
 40
1
 40
1
 40
1
 40
1
 10
33.439445
 20
225.621733
 30
0.0
 10
32.975343
 20
225.889682
 30
0.0
 10
32.689445
 20
226.384872
 30
0.0
 10
32.689445
 20
226.920771
 30
0.0
  0
SPLINE
  5
1c2
100
AcDbEntity
  8
detection
 62
1
100
AcDbSpline
 70
8
 71
3
 72
8
 73
4
 74
0
 40
0
 40
0
 40
0
 40
0
 40
1
 40
1
 40
1
 40
1
 10
32.689445
 20
226.920771
 30
0.0
 10
32.689445
 20
227.456669
 30
0.0
 10
32.975343
 20
227.951860
 30
0.0
 10
33.439445
 20
228.219809
 30
0.0
  0
SPLINE
  5
1c3
100
AcDbEntity
  8
detection
 62
1
100
AcDbSpline
 70
8
 71
3
 72
8
 73
4
 74
0
 40
0
 40
0
 40
0
 40
0
 40
1
 40
1
 40
1
 40
1
 10
33.439445
 20
228.219809
 30
0.0
 10
33.903546
 20
228.487758
 30
0.0
 10
34.475343
 20
228.487758
 30
0.0
 10
34.939445
 20
228.219809
 30
0.0
  0
LWPOLYLINE
  5
1c4
100
AcDbEntity
  8
detection
 62
1
100
AcDbPolyline
 90
1
 70
1
 10
28.866220
 20
231.726187
 30
0.0
  0
SPLINE
  5
1c5
100
AcDbEntity
  8
detection
 62
1
100
AcDbSpline
 70
8
 71
3
 72
8
 73
4
 74
0
 40
0
 40
0
 40
0
 40
0
 40
1
 40
1
 40
1
 40
1
 10
14.966222
 20
228.226188
 30
0.0
 10
15.430323
 20
228.494137
 30
0.0
 10
16.002120
 20
228.494137
 30
0.0
 10
16.466222
 20
228.226188
 30
0.0
  0
SPLINE
  5
1c6
100
AcDbEntity
  8
detection
 62
1
100
AcDbSpline
 70
8
 71
3
 72
8
 73
4
 74
0
 40
0
 40
0
 40
0
 40
0
 40
1
 40
1
 40
1
 40
1
 10
16.466222
 20
228.226188
 30
0.0
 10
16.930323
 20
227.958239
 30
0.0
 10
17.216222
 20
227.463049
 30
0.0
 10
17.216222
 20
226.927150
 30
0.0
  0
SPLINE
  5
1c7
100
AcDbEntity
  8
detection
 62
1
100
AcDbSpline
 70
8
 71
3
 72
8
 73
4
 74
0
 40
0
 40
0
 40
0
 40
0
 40
1
 40
1
 40
1
 40
1
 10
17.216222
 20
226.927150
 30
0.0
 10
17.216222
 20
226.391252
 30
0.0
 10
16.930323
 20
225.896061
 30
0.0
 10
16.466222
 20
225.628112
 30
0.0
  0
SPLINE
  5
1c8
100
AcDbEntity
  8
detection
 62
1
100
AcDbSpline
 70
8
 71
3
 72
8
 73
4
 74
0
 40
0
 40
0
 40
0
 40
0
 40
1
 40
1
 40
1
 40
1
 10
16.466222
 20
225.628112
 30
0.0
 10
16.002120
 20
225.360163
 30
0.0
 10
15.430323
 20
225.360163
 30
0.0
 10
14.966222
 20
225.628112
 30
0.0
  0
SPLINE
  5
1c9
100
AcDbEntity
  8
detection
 62
1
100
AcDbSpline
 70
8
 71
3
 72
8
 73
4
 74
0
 40
0
 40
0
 40
0
 40
0
 40
1
 40
1
 40
1
 40
1
 10
14.966222
 20
225.628112
 30
0.0
 10
14.502120
 20
225.896061
 30
0.0
 10
14.216222
 20
226.391252
 30
0.0
 10
14.216222
 20
226.927150
 30
0.0
  0
SPLINE
  5
1ca
100
AcDbEntity
  8
detection
 62
1
100
AcDbSpline
 70
8
 71
3
 72
8
 73
4
 74
0
 40
0
 40
0
 40
0
 40
0
 40
1
 40
1
 40
1
 40
1
 10
14.216222
 20
226.927150
 30
0.0
 10
14.216222
 20
227.463049
 30
0.0
 10
14.502120
 20
227.958239
 30
0.0
 10
14.966222
 20
228.226188
 30
0.0
  0
LWPOLYLINE
  5
1cb
100
AcDbEntity
  8
detection
 62
1
100
AcDbPolyline
 90
1
 70
1
 10
34.939445
 20
228.219809
 30
0.0
  0
SPLINE
  5
1cc
100
AcDbEntity
  8
detection
 62
1
100
AcDbSpline
 70
8
 71
3
 72
8
 73
4
 74
0
 40
0
 40
0
 40
0
 40
0
 40
1
 40
1
 40
1
 40
1
 10
21.039446
 20
231.732566
 30
0.0
 10
21.503548
 20
232.000515
 30
0.0
 10
22.075345
 20
232.000515
 30
0.0
 10
22.539446
 20
231.732566
 30
0.0
  0
SPLINE
  5
1cd
100
AcDbEntity
  8
detection
 62
1
100
AcDbSpline
 70
8
 71
3
 72
8
 73
4
 74
0
 40
0
 40
0
 40
0
 40
0
 40
1
 40
1
 40
1
 40
1
 10
22.539446
 20
231.732566
 30
0.0
 10
23.003548
 20
231.464617
 30
0.0
 10
23.289446
 20
230.969427
 30
0.0
 10
23.289446
 20
230.433528
 30
0.0
  0
SPLINE
  5
1ce
100
AcDbEntity
  8
detection
 62
1
100
AcDbSpline
 70
8
 71
3
 72
8
 73
4
 74
0
 40
0
 40
0
 40
0
 40
0
 40
1
 40
1
 40
1
 40
1
 10
23.289446
 20
230.433528
 30
0.0
 10
23.289446
 20
229.897630
 30
0.0
 10
23.003548
 20
229.402439
 30
0.0
 10
22.539446
 20
229.134490
 30
0.0
  0
SPLINE
  5
1cf
100
AcDbEntity
  8
detection
 62
1
100
AcDbSpline
 70
8
 71
3
 72
8
 73
4
 74
0
 40
0
 40
0
 40
0
 40
0
 40
1
 40
1
 40
1
 40
1
 10
22.539446
 20
229.134490
 30
0.0
 10
22.075345
 20
228.866541
 30
0.0
 10
21.503548
 20
228.866541
 30
0.0
 10
21.039446
 20
229.134490
 30
0.0
  0
SPLINE
  5
1d0
100
AcDbEntity
  8
detection
 62
1
100
AcDbSpline
 70
8
 71
3
 72
8
 73
4
 74
0
 40
0
 40
0
 40
0
 40
0
 40
1
 40
1
 40
1
 40
1
 10
21.039446
 20
229.134490
 30
0.0
 10
20.575345
 20
229.402439
 30
0.0
 10
20.289446
 20
229.897630
 30
0.0
 10
20.289446
 20
230.433528
 30
0.0
  0
SPLINE
  5
1d1
100
AcDbEntity
  8
detection
 62
1
100
AcDbSpline
 70
8
 71
3
 72
8
 73
4
 74
0
 40
0
 40
0
 40
0
 40
0
 40
1
 40
1
 40
1
 40
1
 10
20.289446
 20
230.433528
 30
0.0
 10
20.289446
 20
230.969427
 30
0.0
 10
20.575345
 20
231.464617
 30
0.0
 10
21.039446
 20
231.732566
 30
0.0
  0
LWPOLYLINE
  5
1d2
100
AcDbEntity
  8
detection
 62
1
100
AcDbPolyline
 90
1
 70
1
 10
14.966222
 20
228.226188
 30
0.0
  0
SPLINE
  5
1d3
100
AcDbEntity
  8
detection
 62
1
100
AcDbSpline
 70
8
 71
3
 72
8
 73
4
 74
0
 40
0
 40
0
 40
0
 40
0
 40
1
 40
1
 40
1
 40
1
 10
11.047310
 20
214.438434
 30
0.0
 10
11.047310
 20
214.974333
 30
0.0
 10
11.333208
 20
215.469523
 30
0.0
 10
11.797310
 20
215.737472
 30
0.0
  0
SPLINE
  5
1d4
100
AcDbEntity
  8
detection
 62
1
100
AcDbSpline
 70
8
 71
3
 72
8
 73
4
 74
0
 40
0
 40
0
 40
0
 40
0
 40
1
 40
1
 40
1
 40
1
 10
11.797310
 20
215.737472
 30
0.0
 10
12.261412
 20
216.005422
 30
0.0
 10
12.833208
 20
216.005422
 30
0.0
 10
13.297310
 20
215.737472
 30
0.0
  0
SPLINE
  5
1d5
100
AcDbEntity
  8
detection
 62
1
100
AcDbSpline
 70
8
 71
3
 72
8
 73
4
 74
0
 40
0
 40
0
 40
0
 40
0
 40
1
 40
1
 40
1
 40
1
 10
13.297310
 20
215.737472
 30
0.0
 10
13.761412
 20
215.469523
 30
0.0
 10
14.047310
 20
214.974333
 30
0.0
 10
14.047310
 20
214.438434
 30
0.0
  0
SPLINE
  5
1d6
100
AcDbEntity
  8
detection
 62
1
100
AcDbSpline
 70
8
 71
3
 72
8
 73
4
 74
0
 40
0
 40
0
 40
0
 40
0
 40
1
 40
1
 40
1
 40
1
 10
14.047310
 20
214.438434
 30
0.0
 10
14.047310
 20
213.902536
 30
0.0
 10
13.761412
 20
213.407345
 30
0.0
 10
13.297310
 20
213.139396
 30
0.0
  0
SPLINE
  5
1d7
100
AcDbEntity
  8
detection
 62
1
100
AcDbSpline
 70
8
 71
3
 72
8
 73
4
 74
0
 40
0
 40
0
 40
0
 40
0
 40
1
 40
1
 40
1
 40
1
 10
13.297310
 20
213.139396
 30
0.0
 10
12.833208
 20
212.871447
 30
0.0
 10
12.261412
 20
212.871447
 30
0.0
 10
11.797310
 20
213.139396
 30
0.0
  0
SPLINE
  5
1d8
100
AcDbEntity
  8
detection
 62
1
100
AcDbSpline
 70
8
 71
3
 72
8
 73
4
 74
0
 40
0
 40
0
 40
0
 40
0
 40
1
 40
1
 40
1
 40
1
 10
11.797310
 20
213.139396
 30
0.0
 10
11.333208
 20
213.407345
 30
0.0
 10
11.047310
 20
213.902536
 30
0.0
 10
11.047310
 20
214.438434
 30
0.0
  0
LWPOLYLINE
  5
1d9
100
AcDbEntity
  8
detection
 62
1
100
AcDbPolyline
 90
1
 70
1
 10
21.039446
 20
231.732566
 30
0.0
  0
SPLINE
  5
1da
100
AcDbEntity
  8
detection
 62
1
100
AcDbSpline
 70
8
 71
3
 72
8
 73
4
 74
0
 40
0
 40
0
 40
0
 40
0
 40
1
 40
1
 40
1
 40
1
 10
11.047310
 20
221.451190
 30
0.0
 10
11.047310
 20
221.987089
 30
0.0
 10
11.333208
 20
222.482279
 30
0.0
 10
11.797310
 20
222.750228
 30
0.0
  0
SPLINE
  5
1db
100
AcDbEntity
  8
detection
 62
1
100
AcDbSpline
 70
8
 71
3
 72
8
 73
4
 74
0
 40
0
 40
0
 40
0
 40
0
 40
1
 40
1
 40
1
 40
1
 10
11.797310
 20
222.750228
 30
0.0
 10
12.261412
 20
223.018178
 30
0.0
 10
12.833208
 20
223.018178
 30
0.0
 10
13.297310
 20
222.750228
 30
0.0
  0
SPLINE
  5
1dc
100
AcDbEntity
  8
detection
 62
1
100
AcDbSpline
 70
8
 71
3
 72
8
 73
4
 74
0
 40
0
 40
0
 40
0
 40
0
 40
1
 40
1
 40
1
 40
1
 10
13.297310
 20
222.750228
 30
0.0
 10
13.761412
 20
222.482279
 30
0.0
 10
14.047310
 20
221.987089
 30
0.0
 10
14.047310
 20
221.451190
 30
0.0
  0
SPLINE
  5
1dd
100
AcDbEntity
  8
detection
 62
1
100
AcDbSpline
 70
8
 71
3
 72
8
 73
4
 74
0
 40
0
 40
0
 40
0
 40
0
 40
1
 40
1
 40
1
 40
1
 10
14.047310
 20
221.451190
 30
0.0
 10
14.047310
 20
220.915292
 30
0.0
 10
13.761412
 20
220.420101
 30
0.0
 10
13.297310
 20
220.152152
 30
0.0
  0
SPLINE
  5
1de
100
AcDbEntity
  8
detection
 62
1
100
AcDbSpline
 70
8
 71
3
 72
8
 73
4
 74
0
 40
0
 40
0
 40
0
 40
0
 40
1
 40
1
 40
1
 40
1
 10
13.297310
 20
220.152152
 30
0.0
 10
12.833208
 20
219.884203
 30
0.0
 10
12.261412
 20
219.884203
 30
0.0
 10
11.797310
 20
220.152152
 30
0.0
  0
SPLINE
  5
1df
100
AcDbEntity
  8
detection
 62
1
100
AcDbSpline
 70
8
 71
3
 72
8
 73
4
 74
0
 40
0
 40
0
 40
0
 40
0
 40
1
 40
1
 40
1
 40
1
 10
11.797310
 20
220.152152
 30
0.0
 10
11.333208
 20
220.420101
 30
0.0
 10
11.047310
 20
220.915292
 30
0.0
 10
11.047310
 20
221.451190
 30
0.0
  0
LWPOLYLINE
  5
1e0
100
AcDbEntity
  8
detection
 62
1
100
AcDbPolyline
 90
1
 70
1
 10
11.047310
 20
214.438434
 30
0.0
  0
SPLINE
  5
1e1
100
AcDbEntity
  8
detection
 62
1
100
AcDbSpline
 70
8
 71
3
 72
8
 73
4
 74
0
 40
0
 40
0
 40
0
 40
0
 40
1
 40
1
 40
1
 40
1
 10
21.028395
 20
204.150688
 30
0.0
 10
20.564293
 20
204.418637
 30
0.0
 10
20.278395
 20
204.913828
 30
0.0
 10
20.278395
 20
205.449726
 30
0.0
  0
SPLINE
  5
1e2
100
AcDbEntity
  8
detection
 62
1
100
AcDbSpline
 70
8
 71
3
 72
8
 73
4
 74
0
 40
0
 40
0
 40
0
 40
0
 40
1
 40
1
 40
1
 40
1
 10
20.278395
 20
205.449726
 30
0.0
 10
20.278395
 20
205.985624
 30
0.0
 10
20.564293
 20
206.480815
 30
0.0
 10
21.028395
 20
206.748764
 30
0.0
  0
SPLINE
  5
1e3
100
AcDbEntity
  8
detection
 62
1
100
AcDbSpline
 70
8
 71
3
 72
8
 73
4
 74
0
 40
0
 40
0
 40
0
 40
0
 40
1
 40
1
 40
1
 40
1
 10
21.028395
 20
206.748764
 30
0.0
 10
21.492497
 20
207.016713
 30
0.0
 10
22.064293
 20
207.016713
 30
0.0
 10
22.528395
 20
206.748764
 30
0.0
  0
SPLINE
  5
1e4
100
AcDbEntity
  8
detection
 62
1
100
AcDbSpline
 70
8
 71
3
 72
8
 73
4
 74
0
 40
0
 40
0
 40
0
 40
0
 40
1
 40
1
 40
1
 40
1
 10
22.528395
 20
206.748764
 30
0.0
 10
22.992497
 20
206.480815
 30
0.0
 10
23.278395
 20
205.985624
 30
0.0
 10
23.278395
 20
205.449726
 30
0.0
  0
SPLINE
  5
1e5
100
AcDbEntity
  8
detection
 62
1
100
AcDbSpline
 70
8
 71
3
 72
8
 73
4
 74
0
 40
0
 40
0
 40
0
 40
0
 40
1
 40
1
 40
1
 40
1
 10
23.278395
 20
205.449726
 30
0.0
 10
23.278395
 20
204.913828
 30
0.0
 10
22.992497
 20
204.418637
 30
0.0
 10
22.528395
 20
204.150688
 30
0.0
  0
SPLINE
  5
1e6
100
AcDbEntity
  8
detection
 62
1
100
AcDbSpline
 70
8
 71
3
 72
8
 73
4
 74
0
 40
0
 40
0
 40
0
 40
0
 40
1
 40
1
 40
1
 40
1
 10
22.528395
 20
204.150688
 30
0.0
 10
22.064293
 20
203.882739
 30
0.0
 10
21.492497
 20
203.882739
 30
0.0
 10
21.028395
 20
204.150688
 30
0.0
  0
LWPOLYLINE
  5
1e7
100
AcDbEntity
  8
detection
 62
1
100
AcDbPolyline
 90
1
 70
1
 10
11.047310
 20
221.451190
 30
0.0
  0
SPLINE
  5
1e8
100
AcDbEntity
  8
detection
 62
1
100
AcDbSpline
 70
8
 71
3
 72
8
 73
4
 74
0
 40
0
 40
0
 40
0
 40
0
 40
1
 40
1
 40
1
 40
1
 10
14.955170
 20
207.657066
 30
0.0
 10
14.491069
 20
207.925015
 30
0.0
 10
14.205170
 20
208.420206
 30
0.0
 10
14.205170
 20
208.956104
 30
0.0
  0
SPLINE
  5
1e9
100
AcDbEntity
  8
detection
 62
1
100
AcDbSpline
 70
8
 71
3
 72
8
 73
4
 74
0
 40
0
 40
0
 40
0
 40
0
 40
1
 40
1
 40
1
 40
1
 10
14.205170
 20
208.956104
 30
0.0
 10
14.205170
 20
209.492002
 30
0.0
 10
14.491069
 20
209.987193
 30
0.0
 10
14.955170
 20
210.255142
 30
0.0
  0
SPLINE
  5
1ea
100
AcDbEntity
  8
detection
 62
1
100
AcDbSpline
 70
8
 71
3
 72
8
 73
4
 74
0
 40
0
 40
0
 40
0
 40
0
 40
1
 40
1
 40
1
 40
1
 10
14.955170
 20
210.255142
 30
0.0
 10
15.419272
 20
210.523091
 30
0.0
 10
15.991069
 20
210.523091
 30
0.0
 10
16.455170
 20
210.255142
 30
0.0
  0
SPLINE
  5
1eb
100
AcDbEntity
  8
detection
 62
1
100
AcDbSpline
 70
8
 71
3
 72
8
 73
4
 74
0
 40
0
 40
0
 40
0
 40
0
 40
1
 40
1
 40
1
 40
1
 10
16.455170
 20
210.255142
 30
0.0
 10
16.919272
 20
209.987193
 30
0.0
 10
17.205170
 20
209.492002
 30
0.0
 10
17.205170
 20
208.956104
 30
0.0
  0
SPLINE
  5
1ec
100
AcDbEntity
  8
detection
 62
1
100
AcDbSpline
 70
8
 71
3
 72
8
 73
4
 74
0
 40
0
 40
0
 40
0
 40
0
 40
1
 40
1
 40
1
 40
1
 10
17.205170
 20
208.956104
 30
0.0
 10
17.205170
 20
208.420206
 30
0.0
 10
16.919272
 20
207.925015
 30
0.0
 10
16.455170
 20
207.657066
 30
0.0
  0
SPLINE
  5
1ed
100
AcDbEntity
  8
detection
 62
1
100
AcDbSpline
 70
8
 71
3
 72
8
 73
4
 74
0
 40
0
 40
0
 40
0
 40
0
 40
1
 40
1
 40
1
 40
1
 10
16.455170
 20
207.657066
 30
0.0
 10
15.991069
 20
207.389117
 30
0.0
 10
15.419272
 20
207.389117
 30
0.0
 10
14.955170
 20
207.657066
 30
0.0
  0
LWPOLYLINE
  5
1ee
100
AcDbEntity
  8
detection
 62
1
100
AcDbPolyline
 90
1
 70
1
 10
21.028395
 20
204.150688
 30
0.0
  0
SPLINE
  5
1ef
100
AcDbEntity
  8
detection
 62
1
100
AcDbSpline
 70
8
 71
3
 72
8
 73
4
 74
0
 40
0
 40
0
 40
0
 40
0
 40
1
 40
1
 40
1
 40
1
 10
34.928405
 20
207.650678
 30
0.0
 10
34.464303
 20
207.382729
 30
0.0
 10
33.892506
 20
207.382729
 30
0.0
 10
33.428405
 20
207.650678
 30
0.0
  0
SPLINE
  5
1f0
100
AcDbEntity
  8
detection
 62
1
100
AcDbSpline
 70
8
 71
3
 72
8
 73
4
 74
0
 40
0
 40
0
 40
0
 40
0
 40
1
 40
1
 40
1
 40
1
 10
33.428405
 20
207.650678
 30
0.0
 10
32.964303
 20
207.918627
 30
0.0
 10
32.678405
 20
208.413818
 30
0.0
 10
32.678405
 20
208.949716
 30
0.0
  0
SPLINE
  5
1f1
100
AcDbEntity
  8
detection
 62
1
100
AcDbSpline
 70
8
 71
3
 72
8
 73
4
 74
0
 40
0
 40
0
 40
0
 40
0
 40
1
 40
1
 40
1
 40
1
 10
32.678405
 20
208.949716
 30
0.0
 10
32.678405
 20
209.485614
 30
0.0
 10
32.964303
 20
209.980805
 30
0.0
 10
33.428405
 20
210.248754
 30
0.0
  0
SPLINE
  5
1f2
100
AcDbEntity
  8
detection
 62
1
100
AcDbSpline
 70
8
 71
3
 72
8
 73
4
 74
0
 40
0
 40
0
 40
0
 40
0
 40
1
 40
1
 40
1
 40
1
 10
33.428405
 20
210.248754
 30
0.0
 10
33.892506
 20
210.516703
 30
0.0
 10
34.464303
 20
210.516703
 30
0.0
 10
34.928405
 20
210.248754
 30
0.0
  0
SPLINE
  5
1f3
100
AcDbEntity
  8
detection
 62
1
100
AcDbSpline
 70
8
 71
3
 72
8
 73
4
 74
0
 40
0
 40
0
 40
0
 40
0
 40
1
 40
1
 40
1
 40
1
 10
34.928405
 20
210.248754
 30
0.0
 10
35.392506
 20
209.980805
 30
0.0
 10
35.678405
 20
209.485614
 30
0.0
 10
35.678405
 20
208.949716
 30
0.0
  0
SPLINE
  5
1f4
100
AcDbEntity
  8
detection
 62
1
100
AcDbSpline
 70
8
 71
3
 72
8
 73
4
 74
0
 40
0
 40
0
 40
0
 40
0
 40
1
 40
1
 40
1
 40
1
 10
35.678405
 20
208.949716
 30
0.0
 10
35.678405
 20
208.413818
 30
0.0
 10
35.392506
 20
207.918627
 30
0.0
 10
34.928405
 20
207.650678
 30
0.0
  0
LWPOLYLINE
  5
1f5
100
AcDbEntity
  8
detection
 62
1
100
AcDbPolyline
 90
1
 70
1
 10
14.955170
 20
207.657066
 30
0.0
  0
SPLINE
  5
1f6
100
AcDbEntity
  8
detection
 62
1
100
AcDbSpline
 70
8
 71
3
 72
8
 73
4
 74
0
 40
0
 40
0
 40
0
 40
0
 40
1
 40
1
 40
1
 40
1
 10
28.855180
 20
204.144300
 30
0.0
 10
28.391078
 20
203.876351
 30
0.0
 10
27.819281
 20
203.876351
 30
0.0
 10
27.355180
 20
204.144300
 30
0.0
  0
SPLINE
  5
1f7
100
AcDbEntity
  8
detection
 62
1
100
AcDbSpline
 70
8
 71
3
 72
8
 73
4
 74
0
 40
0
 40
0
 40
0
 40
0
 40
1
 40
1
 40
1
 40
1
 10
27.355180
 20
204.144300
 30
0.0
 10
26.891078
 20
204.412249
 30
0.0
 10
26.605180
 20
204.907440
 30
0.0
 10
26.605180
 20
205.443338
 30
0.0
  0
SPLINE
  5
1f8
100
AcDbEntity
  8
detection
 62
1
100
AcDbSpline
 70
8
 71
3
 72
8
 73
4
 74
0
 40
0
 40
0
 40
0
 40
0
 40
1
 40
1
 40
1
 40
1
 10
26.605180
 20
205.443338
 30
0.0
 10
26.605180
 20
205.979236
 30
0.0
 10
26.891078
 20
206.474427
 30
0.0
 10
27.355180
 20
206.742376
 30
0.0
  0
SPLINE
  5
1f9
100
AcDbEntity
  8
detection
 62
1
100
AcDbSpline
 70
8
 71
3
 72
8
 73
4
 74
0
 40
0
 40
0
 40
0
 40
0
 40
1
 40
1
 40
1
 40
1
 10
27.355180
 20
206.742376
 30
0.0
 10
27.819281
 20
207.010325
 30
0.0
 10
28.391078
 20
207.010325
 30
0.0
 10
28.855180
 20
206.742376
 30
0.0
  0
SPLINE
  5
1fa
100
AcDbEntity
  8
detection
 62
1
100
AcDbSpline
 70
8
 71
3
 72
8
 73
4
 74
0
 40
0
 40
0
 40
0
 40
0
 40
1
 40
1
 40
1
 40
1
 10
28.855180
 20
206.742376
 30
0.0
 10
29.319281
 20
206.474427
 30
0.0
 10
29.605180
 20
205.979236
 30
0.0
 10
29.605180
 20
205.443338
 30
0.0
  0
SPLINE
  5
1fb
100
AcDbEntity
  8
detection
 62
1
100
AcDbSpline
 70
8
 71
3
 72
8
 73
4
 74
0
 40
0
 40
0
 40
0
 40
0
 40
1
 40
1
 40
1
 40
1
 10
29.605180
 20
205.443338
 30
0.0
 10
29.605180
 20
204.907440
 30
0.0
 10
29.319281
 20
204.412249
 30
0.0
 10
28.855180
 20
204.144300
 30
0.0
  0
LWPOLYLINE
  5
1fc
100
AcDbEntity
  8
detection
 62
1
100
AcDbPolyline
 90
1
 70
1
 10
34.928405
 20
207.650678
 30
0.0
  0
SPLINE
  5
1fd
100
AcDbEntity
  8
detection
 62
3
100
AcDbSpline
 70
8
 71
3
 72
8
 73
4
 74
0
 40
0
 40
0
 40
0
 40
0
 40
1
 40
1
 40
1
 40
1
 10
29.597306
 20
217.938434
 30
0.0
 10
29.597306
 20
216.277149
 30
0.0
 10
28.711021
 20
214.742059
 30
0.0
 10
27.272306
 20
213.911416
 30
0.0
  0
SPLINE
  5
1fe
100
AcDbEntity
  8
detection
 62
3
100
AcDbSpline
 70
8
 71
3
 72
8
 73
4
 74
0
 40
0
 40
0
 40
0
 40
0
 40
1
 40
1
 40
1
 40
1
 10
27.272306
 20
213.911416
 30
0.0
 10
25.833591
 20
213.080774
 30
0.0
 10
24.061021
 20
213.080774
 30
0.0
 10
22.622306
 20
213.911416
 30
0.0
  0
SPLINE
  5
1ff
100
AcDbEntity
  8
detection
 62
3
100
AcDbSpline
 70
8
 71
3
 72
8
 73
4
 74
0
 40
0
 40
0
 40
0
 40
0
 40
1
 40
1
 40
1
 40
1
 10
22.622306
 20
213.911416
 30
0.0
 10
21.183591
 20
214.742059
 30
0.0
 10
20.297306
 20
216.277149
 30
0.0
 10
20.297306
 20
217.938434
 30
0.0
  0
SPLINE
  5
200
100
AcDbEntity
  8
detection
 62
3
100
AcDbSpline
 70
8
 71
3
 72
8
 73
4
 74
0
 40
0
 40
0
 40
0
 40
0
 40
1
 40
1
 40
1
 40
1
 10
20.297306
 20
217.938434
 30
0.0
 10
20.297306
 20
219.599719
 30
0.0
 10
21.183591
 20
221.134810
 30
0.0
 10
22.622306
 20
221.965453
 30
0.0
  0
SPLINE
  5
201
100
AcDbEntity
  8
detection
 62
3
100
AcDbSpline
 70
8
 71
3
 72
8
 73
4
 74
0
 40
0
 40
0
 40
0
 40
0
 40
1
 40
1
 40
1
 40
1
 10
22.622306
 20
221.965453
 30
0.0
 10
24.061021
 20
222.796095
 30
0.0
 10
25.833591
 20
222.796095
 30
0.0
 10
27.272306
 20
221.965453
 30
0.0
  0
SPLINE
  5
202
100
AcDbEntity
  8
detection
 62
3
100
AcDbSpline
 70
8
 71
3
 72
8
 73
4
 74
0
 40
0
 40
0
 40
0
 40
0
 40
1
 40
1
 40
1
 40
1
 10
27.272306
 20
221.965453
 30
0.0
 10
28.711021
 20
221.134810
 30
0.0
 10
29.597306
 20
219.599719
 30
0.0
 10
29.597306
 20
217.938434
 30
0.0
  0
LWPOLYLINE
  5
203
100
AcDbEntity
  8
detection
 62
1
100
AcDbPolyline
 90
1
 70
1
 10
28.855180
 20
204.144300
 30
0.0
  0
SPLINE
  5
204
100
AcDbEntity
  8
detection
 62
1
100
AcDbSpline
 70
8
 71
3
 72
8
 73
4
 74
0
 40
0
 40
0
 40
0
 40
0
 40
1
 40
1
 40
1
 40
1
 10
28.997306
 20
217.938434
 30
0.0
 10
28.997306
 20
216.491509
 30
0.0
 10
28.225381
 20
215.154494
 30
0.0
 10
26.972306
 20
214.431031
 30
0.0
  0
SPLINE
  5
205
100
AcDbEntity
  8
detection
 62
1
100
AcDbSpline
 70
8
 71
3
 72
8
 73
4
 74
0
 40
0
 40
0
 40
0
 40
0
 40
1
 40
1
 40
1
 40
1
 10
26.972306
 20
214.431031
 30
0.0
 10
25.719232
 20
213.707568
 30
0.0
 10
24.175380
 20
213.707568
 30
0.0
 10
22.922306
 20
214.431031
 30
0.0
  0
SPLINE
  5
206
100
AcDbEntity
  8
detection
 62
1
100
AcDbSpline
 70
8
 71
3
 72
8
 73
4
 74
0
 40
0
 40
0
 40
0
 40
0
 40
1
 40
1
 40
1
 40
1
 10
22.922306
 20
214.431031
 30
0.0
 10
21.669231
 20
215.154494
 30
0.0
 10
20.897306
 20
216.491509
 30
0.0
 10
20.897306
 20
217.938434
 30
0.0
  0
SPLINE
  5
207
100
AcDbEntity
  8
detection
 62
1
100
AcDbSpline
 70
8
 71
3
 72
8
 73
4
 74
0
 40
0
 40
0
 40
0
 40
0
 40
1
 40
1
 40
1
 40
1
 10
20.897306
 20
217.938434
 30
0.0
 10
20.897306
 20
219.385360
 30
0.0
 10
21.669231
 20
220.722375
 30
0.0
 10
22.922306
 20
221.445837
 30
0.0
  0
SPLINE
  5
208
100
AcDbEntity
  8
detection
 62
1
100
AcDbSpline
 70
8
 71
3
 72
8
 73
4
 74
0
 40
0
 40
0
 40
0
 40
0
 40
1
 40
1
 40
1
 40
1
 10
22.922306
 20
221.445837
 30
0.0
 10
24.175380
 20
222.169300
 30
0.0
 10
25.719232
 20
222.169300
 30
0.0
 10
26.972306
 20
221.445837
 30
0.0
  0
SPLINE
  5
209
100
AcDbEntity
  8
detection
 62
1
100
AcDbSpline
 70
8
 71
3
 72
8
 73
4
 74
0
 40
0
 40
0
 40
0
 40
0
 40
1
 40
1
 40
1
 40
1
 10
26.972306
 20
221.445837
 30
0.0
 10
28.225381
 20
220.722375
 30
0.0
 10
28.997306
 20
219.385360
 30
0.0
 10
28.997306
 20
217.938434
 30
0.0
  0
LWPOLYLINE
  5
20a
100
AcDbEntity
  8
detection
 62
3
100
AcDbPolyline
 90
1
 70
1
 10
29.597306
 20
217.938434
 30
0.0
  0
SPLINE
  5
20b
100
AcDbEntity
  8
detection
 62
3
100
AcDbSpline
 70
8
 71
3
 72
8
 73
4
 74
0
 40
0
 40
0
 40
0
 40
0
 40
1
 40
1
 40
1
 40
1
 10
16.795416
 20
285.491683
 30
0.0
 10
16.795416
 20
284.774319
 30
0.0
 10
16.412707
 20
284.111446
 30
0.0
 10
15.791451
 20
283.752764
 30
0.0
  0
SPLINE
  5
20c
100
AcDbEntity
  8
detection
 62
3
100
AcDbSpline
 70
8
 71
3
 72
8
 73
4
 74
0
 40
0
 40
0
 40
0
 40
0
 40
1
 40
1
 40
1
 40
1
 10
15.791451
 20
283.752764
 30
0.0
 10
15.170194
 20
283.394082
 30
0.0
 10
14.404776
 20
283.394082
 30
0.0
 10
13.783520
 20
283.752764
 30
0.0
  0
SPLINE
  5
20d
100
AcDbEntity
  8
detection
 62
3
100
AcDbSpline
 70
8
 71
3
 72
8
 73
4
 74
0
 40
0
 40
0
 40
0
 40
0
 40
1
 40
1
 40
1
 40
1
 10
13.783520
 20
283.752764
 30
0.0
 10
13.162263
 20
284.111446
 30
0.0
 10
12.779554
 20
284.774319
 30
0.0
 10
12.779554
 20
285.491683
 30
0.0
  0
SPLINE
  5
20e
100
AcDbEntity
  8
detection
 62
3
100
AcDbSpline
 70
8
 71
3
 72
8
 73
4
 74
0
 40
0
 40
0
 40
0
 40
0
 40
1
 40
1
 40
1
 40
1
 10
12.779554
 20
285.491683
 30
0.0
 10
12.779554
 20
286.209048
 30
0.0
 10
13.162263
 20
286.871920
 30
0.0
 10
13.783520
 20
287.230603
 30
0.0
  0
SPLINE
  5
20f
100
AcDbEntity
  8
detection
 62
3
100
AcDbSpline
 70
8
 71
3
 72
8
 73
4
 74
0
 40
0
 40
0
 40
0
 40
0
 40
1
 40
1
 40
1
 40
1
 10
13.783520
 20
287.230603
 30
0.0
 10
14.404776
 20
287.589285
 30
0.0
 10
15.170194
 20
287.589285
 30
0.0
 10
15.791451
 20
287.230603
 30
0.0
  0
SPLINE
  5
210
100
AcDbEntity
  8
detection
 62
3
100
AcDbSpline
 70
8
 71
3
 72
8
 73
4
 74
0
 40
0
 40
0
 40
0
 40
0
 40
1
 40
1
 40
1
 40
1
 10
15.791451
 20
287.230603
 30
0.0
 10
16.412707
 20
286.871920
 30
0.0
 10
16.795416
 20
286.209048
 30
0.0
 10
16.795416
 20
285.491683
 30
0.0
  0
LWPOLYLINE
  5
211
100
AcDbEntity
  8
detection
 62
1
100
AcDbPolyline
 90
1
 70
1
 10
28.997306
 20
217.938434
 30
0.0
  0
LWPOLYLINE
  5
212
100
AcDbEntity
  8
detection
 62
3
100
AcDbPolyline
 90
1
 70
1
 10
16.795416
 20
285.491683
 30
0.0
  0
LWPOLYLINE
  5
213
100
AcDbEntity
  8
detection
 62
7
100
AcDbPolyline
 90
2
 70
0
 10
20.466661
 20
287.493413
 30
0.0
 10
20.466661
 20
282.993413
 30
0.0
  0
LWPOLYLINE
  5
214
100
AcDbEntity
  8
detection
 62
7
100
AcDbPolyline
 90
2
 70
0
 10
17.966662
 20
282.533333
 30
0.0
 10
22.466662
 20
282.533333
 30
0.0
  0
SPLINE
  5
215
100
AcDbEntity
  8
detection
 62
3
100
AcDbSpline
 70
8
 71
3
 72
8
 73
4
 74
0
 40
0
 40
0
 40
0
 40
0
 40
1
 40
1
 40
1
 40
1
 10
35.093436
 20
181.226196
 30
0.0
 10
34.918676
 20
180.807236
 30
0.0
 10
34.711266
 20
180.388186
 30
0.0
 10
34.474456
 20
179.978026
 30
0.0
  0
SPLINE
  5
216
100
AcDbEntity
  8
detection
 62
3
100
AcDbSpline
 70
8
 71
3
 72
8
 73
4
 74
0
 40
0
 40
0
 40
0
 40
0
 40
1
 40
1
 40
1
 40
1
 10
34.474456
 20
179.978026
 30
0.0
 10
31.436894
 20
174.716806
 30
0.0
 10
24.709399
 20
172.914186
 30
0.0
 10
19.448181
 20
175.951746
 30
0.0
  0
SPLINE
  5
217
100
AcDbEntity
  8
detection
 62
3
100
AcDbSpline
 70
8
 71
3
 72
8
 73
4
 74
0
 40
0
 40
0
 40
0
 40
0
 40
1
 40
1
 40
1
 40
1
 10
19.448181
 20
175.951746
 30
0.0
 10
14.186962
 20
178.989316
 30
0.0
 10
12.384335
 20
185.716806
 30
0.0
 10
15.421901
 20
190.978026
 30
0.0
  0
SPLINE
  5
218
100
AcDbEntity
  8
detection
 62
3
100
AcDbSpline
 70
8
 71
3
 72
8
 73
4
 74
0
 40
0
 40
0
 40
0
 40
0
 40
1
 40
1
 40
1
 40
1
 10
15.421901
 20
190.978026
 30
0.0
 10
18.459468
 20
196.239246
 30
0.0
 10
25.186961
 20
198.041866
 30
0.0
 10
30.448179
 20
195.004306
 30
0.0
  0
LWPOLYLINE
  5
219
100
AcDbEntity
  8
detection
 62
3
100
AcDbPolyline
 90
3
 70
0
 10
20.610920
 20
189.704176
 30
0.0
 10
20.610920
 20
181.219196
 30
0.0
 10
35.093436
 20
181.226196
 30
0.0
  0
SPLINE
  5
21a
100
AcDbEntity
  8
detection
 62
3
100
AcDbSpline
 70
8
 71
3
 72
8
 73
4
 74
0
 40
0
 40
0
 40
0
 40
0
 40
1
 40
1
 40
1
 40
1
 10
30.448188
 20
195.004296
 30
0.0
 10
32.583826
 20
193.771286
 30
0.0
 10
34.149596
 20
191.815256
 30
0.0
 10
35.043206
 20
189.707846
 30
0.0
  0
LWPOLYLINE
  5
21b
100
AcDbEntity
  8
detection
 62
3
100
AcDbPolyline
 90
1
 70
1
 10
30.448179
 20
195.004306
 30
0.0
  0
SPLINE
  5
21c
100
AcDbEntity
  8
detection
 62
1
100
AcDbSpline
 70
8
 71
3
 72
8
 73
4
 74
0
 40
0
 40
0
 40
0
 40
0
 40
1
 40
1
 40
1
 40
1
 10
37.947305
 20
185.479176
 30
0.0
 10
37.947305
 20
180.834724
 30
0.0
 10
35.469519
 20
176.543072
 30
0.0
 10
31.447305
 20
174.220846
 30
0.0
  0
SPLINE
  5
21d
100
AcDbEntity
  8
detection
 62
1
100
AcDbSpline
 70
8
 71
3
 72
8
 73
4
 74
0
 40
0
 40
0
 40
0
 40
0
 40
1
 40
1
 40
1
 40
1
 10
31.447305
 20
174.220846
 30
0.0
 10
27.425091
 20
171.898620
 30
0.0
 10
22.469519
 20
171.898620
 30
0.0
 10
18.447305
 20
174.220846
 30
0.0
  0
SPLINE
  5
21e
100
AcDbEntity
  8
detection
 62
1
100
AcDbSpline
 70
8
 71
3
 72
8
 73
4
 74
0
 40
0
 40
0
 40
0
 40
0
 40
1
 40
1
 40
1
 40
1
 10
18.447305
 20
174.220846
 30
0.0
 10
14.425091
 20
176.543072
 30
0.0
 10
11.947305
 20
180.834724
 30
0.0
 10
11.947305
 20
185.479176
 30
0.0
  0
SPLINE
  5
21f
100
AcDbEntity
  8
detection
 62
1
100
AcDbSpline
 70
8
 71
3
 72
8
 73
4
 74
0
 40
0
 40
0
 40
0
 40
0
 40
1
 40
1
 40
1
 40
1
 10
11.947305
 20
185.479176
 30
0.0
 10
11.947305
 20
190.123629
 30
0.0
 10
14.425091
 20
194.415280
 30
0.0
 10
18.447305
 20
196.737507
 30
0.0
  0
SPLINE
  5
220
100
AcDbEntity
  8
detection
 62
1
100
AcDbSpline
 70
8
 71
3
 72
8
 73
4
 74
0
 40
0
 40
0
 40
0
 40
0
 40
1
 40
1
 40
1
 40
1
 10
18.447305
 20
196.737507
 30
0.0
 10
22.469519
 20
199.059733
 30
0.0
 10
27.425091
 20
199.059733
 30
0.0
 10
31.447305
 20
196.737507
 30
0.0
  0
SPLINE
  5
221
100
AcDbEntity
  8
detection
 62
1
100
AcDbSpline
 70
8
 71
3
 72
8
 73
4
 74
0
 40
0
 40
0
 40
0
 40
0
 40
1
 40
1
 40
1
 40
1
 10
31.447305
 20
196.737507
 30
0.0
 10
35.469519
 20
194.415280
 30
0.0
 10
37.947305
 20
190.123629
 30
0.0
 10
37.947305
 20
185.479176
 30
0.0
  0
LWPOLYLINE
  5
222
100
AcDbEntity
  8
detection
 62
3
100
AcDbPolyline
 90
2
 70
0
 10
35.043206
 20
189.707846
 30
0.0
 10
20.610920
 20
189.704176
 30
0.0
  0
SPLINE
  5
223
100
AcDbEntity
  8
detection
 62
1
100
AcDbSpline
 70
8
 71
3
 72
8
 73
4
 74
0
 40
0
 40
0
 40
0
 40
0
 40
1
 40
1
 40
1
 40
1
 10
38.847316
 20
188.979176
 30
0.0
 10
38.847316
 20
188.443278
 30
0.0
 10
38.561418
 20
187.948087
 30
0.0
 10
38.097316
 20
187.680138
 30
0.0
  0
SPLINE
  5
224
100
AcDbEntity
  8
detection
 62
1
100
AcDbSpline
 70
8
 71
3
 72
8
 73
4
 74
0
 40
0
 40
0
 40
0
 40
0
 40
1
 40
1
 40
1
 40
1
 10
38.097316
 20
187.680138
 30
0.0
 10
37.633214
 20
187.412189
 30
0.0
 10
37.061418
 20
187.412189
 30
0.0
 10
36.597316
 20
187.680138
 30
0.0
  0
SPLINE
  5
225
100
AcDbEntity
  8
detection
 62
1
100
AcDbSpline
 70
8
 71
3
 72
8
 73
4
 74
0
 40
0
 40
0
 40
0
 40
0
 40
1
 40
1
 40
1
 40
1
 10
36.597316
 20
187.680138
 30
0.0
 10
36.133214
 20
187.948087
 30
0.0
 10
35.847316
 20
188.443278
 30
0.0
 10
35.847316
 20
188.979176
 30
0.0
  0
SPLINE
  5
226
100
AcDbEntity
  8
detection
 62
1
100
AcDbSpline
 70
8
 71
3
 72
8
 73
4
 74
0
 40
0
 40
0
 40
0
 40
0
 40
1
 40
1
 40
1
 40
1
 10
35.847316
 20
188.979176
 30
0.0
 10
35.847316
 20
189.515075
 30
0.0
 10
36.133214
 20
190.010265
 30
0.0
 10
36.597316
 20
190.278214
 30
0.0
  0
SPLINE
  5
227
100
AcDbEntity
  8
detection
 62
1
100
AcDbSpline
 70
8
 71
3
 72
8
 73
4
 74
0
 40
0
 40
0
 40
0
 40
0
 40
1
 40
1
 40
1
 40
1
 10
36.597316
 20
190.278214
 30
0.0
 10
37.061418
 20
190.546164
 30
0.0
 10
37.633214
 20
190.546164
 30
0.0
 10
38.097316
 20
190.278214
 30
0.0
  0
SPLINE
  5
228
100
AcDbEntity
  8
detection
 62
1
100
AcDbSpline
 70
8
 71
3
 72
8
 73
4
 74
0
 40
0
 40
0
 40
0
 40
0
 40
1
 40
1
 40
1
 40
1
 10
38.097316
 20
190.278214
 30
0.0
 10
38.561418
 20
190.010265
 30
0.0
 10
38.847316
 20
189.515075
 30
0.0
 10
38.847316
 20
188.979176
 30
0.0
  0
LWPOLYLINE
  5
229
100
AcDbEntity
  8
detection
 62
1
100
AcDbPolyline
 90
1
 70
1
 10
37.947305
 20
185.479176
 30
0.0
  0
SPLINE
  5
22a
100
AcDbEntity
  8
detection
 62
1
100
AcDbSpline
 70
8
 71
3
 72
8
 73
4
 74
0
 40
0
 40
0
 40
0
 40
0
 40
1
 40
1
 40
1
 40
1
 10
38.847316
 20
181.966420
 30
0.0
 10
38.847316
 20
181.430522
 30
0.0
 10
38.561418
 20
180.935331
 30
0.0
 10
38.097316
 20
180.667382
 30
0.0
  0
SPLINE
  5
22b
100
AcDbEntity
  8
detection
 62
1
100
AcDbSpline
 70
8
 71
3
 72
8
 73
4
 74
0
 40
0
 40
0
 40
0
 40
0
 40
1
 40
1
 40
1
 40
1
 10
38.097316
 20
180.667382
 30
0.0
 10
37.633214
 20
180.399433
 30
0.0
 10
37.061418
 20
180.399433
 30
0.0
 10
36.597316
 20
180.667382
 30
0.0
  0
SPLINE
  5
22c
100
AcDbEntity
  8
detection
 62
1
100
AcDbSpline
 70
8
 71
3
 72
8
 73
4
 74
0
 40
0
 40
0
 40
0
 40
0
 40
1
 40
1
 40
1
 40
1
 10
36.597316
 20
180.667382
 30
0.0
 10
36.133214
 20
180.935331
 30
0.0
 10
35.847316
 20
181.430522
 30
0.0
 10
35.847316
 20
181.966420
 30
0.0
  0
SPLINE
  5
22d
100
AcDbEntity
  8
detection
 62
1
100
AcDbSpline
 70
8
 71
3
 72
8
 73
4
 74
0
 40
0
 40
0
 40
0
 40
0
 40
1
 40
1
 40
1
 40
1
 10
35.847316
 20
181.966420
 30
0.0
 10
35.847316
 20
182.502319
 30
0.0
 10
36.133214
 20
182.997509
 30
0.0
 10
36.597316
 20
183.265458
 30
0.0
  0
SPLINE
  5
22e
100
AcDbEntity
  8
detection
 62
1
100
AcDbSpline
 70
8
 71
3
 72
8
 73
4
 74
0
 40
0
 40
0
 40
0
 40
0
 40
1
 40
1
 40
1
 40
1
 10
36.597316
 20
183.265458
 30
0.0
 10
37.061418
 20
183.533408
 30
0.0
 10
37.633214
 20
183.533408
 30
0.0
 10
38.097316
 20
183.265458
 30
0.0
  0
SPLINE
  5
22f
100
AcDbEntity
  8
detection
 62
1
100
AcDbSpline
 70
8
 71
3
 72
8
 73
4
 74
0
 40
0
 40
0
 40
0
 40
0
 40
1
 40
1
 40
1
 40
1
 10
38.097316
 20
183.265458
 30
0.0
 10
38.561418
 20
182.997509
 30
0.0
 10
38.847316
 20
182.502319
 30
0.0
 10
38.847316
 20
181.966420
 30
0.0
  0
LWPOLYLINE
  5
230
100
AcDbEntity
  8
detection
 62
1
100
AcDbPolyline
 90
1
 70
1
 10
38.847316
 20
188.979176
 30
0.0
  0
SPLINE
  5
231
100
AcDbEntity
  8
detection
 62
1
100
AcDbSpline
 70
8
 71
3
 72
8
 73
4
 74
0
 40
0
 40
0
 40
0
 40
0
 40
1
 40
1
 40
1
 40
1
 10
28.866350
 20
199.266973
 30
0.0
 10
29.330452
 20
198.999024
 30
0.0
 10
29.616350
 20
198.503833
 30
0.0
 10
29.616350
 20
197.967935
 30
0.0
  0
SPLINE
  5
232
100
AcDbEntity
  8
detection
 62
1
100
AcDbSpline
 70
8
 71
3
 72
8
 73
4
 74
0
 40
0
 40
0
 40
0
 40
0
 40
1
 40
1
 40
1
 40
1
 10
29.616350
 20
197.967935
 30
0.0
 10
29.616350
 20
197.432036
 30
0.0
 10
29.330452
 20
196.936846
 30
0.0
 10
28.866350
 20
196.668897
 30
0.0
  0
SPLINE
  5
233
100
AcDbEntity
  8
detection
 62
1
100
AcDbSpline
 70
8
 71
3
 72
8
 73
4
 74
0
 40
0
 40
0
 40
0
 40
0
 40
1
 40
1
 40
1
 40
1
 10
28.866350
 20
196.668897
 30
0.0
 10
28.402249
 20
196.400947
 30
0.0
 10
27.830452
 20
196.400947
 30
0.0
 10
27.366350
 20
196.668897
 30
0.0
  0
SPLINE
  5
234
100
AcDbEntity
  8
detection
 62
1
100
AcDbSpline
 70
8
 71
3
 72
8
 73
4
 74
0
 40
0
 40
0
 40
0
 40
0
 40
1
 40
1
 40
1
 40
1
 10
27.366350
 20
196.668897
 30
0.0
 10
26.902249
 20
196.936846
 30
0.0
 10
26.616350
 20
197.432036
 30
0.0
 10
26.616350
 20
197.967935
 30
0.0
  0
SPLINE
  5
235
100
AcDbEntity
  8
detection
 62
1
100
AcDbSpline
 70
8
 71
3
 72
8
 73
4
 74
0
 40
0
 40
0
 40
0
 40
0
 40
1
 40
1
 40
1
 40
1
 10
26.616350
 20
197.967935
 30
0.0
 10
26.616350
 20
198.503833
 30
0.0
 10
26.902249
 20
198.999024
 30
0.0
 10
27.366350
 20
199.266973
 30
0.0
  0
SPLINE
  5
236
100
AcDbEntity
  8
detection
 62
1
100
AcDbSpline
 70
8
 71
3
 72
8
 73
4
 74
0
 40
0
 40
0
 40
0
 40
0
 40
1
 40
1
 40
1
 40
1
 10
27.366350
 20
199.266973
 30
0.0
 10
27.830452
 20
199.534922
 30
0.0
 10
28.402249
 20
199.534922
 30
0.0
 10
28.866350
 20
199.266973
 30
0.0
  0
LWPOLYLINE
  5
237
100
AcDbEntity
  8
detection
 62
1
100
AcDbPolyline
 90
1
 70
1
 10
38.847316
 20
181.966420
 30
0.0
  0
SPLINE
  5
238
100
AcDbEntity
  8
detection
 62
1
100
AcDbSpline
 70
8
 71
3
 72
8
 73
4
 74
0
 40
0
 40
0
 40
0
 40
0
 40
1
 40
1
 40
1
 40
1
 10
34.939575
 20
195.760595
 30
0.0
 10
35.403677
 20
195.492646
 30
0.0
 10
35.689575
 20
194.997455
 30
0.0
 10
35.689575
 20
194.461557
 30
0.0
  0
SPLINE
  5
239
100
AcDbEntity
  8
detection
 62
1
100
AcDbSpline
 70
8
 71
3
 72
8
 73
4
 74
0
 40
0
 40
0
 40
0
 40
0
 40
1
 40
1
 40
1
 40
1
 10
35.689575
 20
194.461557
 30
0.0
 10
35.689575
 20
193.925658
 30
0.0
 10
35.403677
 20
193.430468
 30
0.0
 10
34.939575
 20
193.162519
 30
0.0
  0
SPLINE
  5
23a
100
AcDbEntity
  8
detection
 62
1
100
AcDbSpline
 70
8
 71
3
 72
8
 73
4
 74
0
 40
0
 40
0
 40
0
 40
0
 40
1
 40
1
 40
1
 40
1
 10
34.939575
 20
193.162519
 30
0.0
 10
34.475473
 20
192.894569
 30
0.0
 10
33.903677
 20
192.894569
 30
0.0
 10
33.439575
 20
193.162519
 30
0.0
  0
SPLINE
  5
23b
100
AcDbEntity
  8
detection
 62
1
100
AcDbSpline
 70
8
 71
3
 72
8
 73
4
 74
0
 40
0
 40
0
 40
0
 40
0
 40
1
 40
1
 40
1
 40
1
 10
33.439575
 20
193.162519
 30
0.0
 10
32.975473
 20
193.430468
 30
0.0
 10
32.689575
 20
193.925658
 30
0.0
 10
32.689575
 20
194.461557
 30
0.0
  0
SPLINE
  5
23c
100
AcDbEntity
  8
detection
 62
1
100
AcDbSpline
 70
8
 71
3
 72
8
 73
4
 74
0
 40
0
 40
0
 40
0
 40
0
 40
1
 40
1
 40
1
 40
1
 10
32.689575
 20
194.461557
 30
0.0
 10
32.689575
 20
194.997455
 30
0.0
 10
32.975473
 20
195.492646
 30
0.0
 10
33.439575
 20
195.760595
 30
0.0
  0
SPLINE
  5
23d
100
AcDbEntity
  8
detection
 62
1
100
AcDbSpline
 70
8
 71
3
 72
8
 73
4
 74
0
 40
0
 40
0
 40
0
 40
0
 40
1
 40
1
 40
1
 40
1
 10
33.439575
 20
195.760595
 30
0.0
 10
33.903677
 20
196.028544
 30
0.0
 10
34.475473
 20
196.028544
 30
0.0
 10
34.939575
 20
195.760595
 30
0.0
  0
LWPOLYLINE
  5
23e
100
AcDbEntity
  8
detection
 62
1
100
AcDbPolyline
 90
1
 70
1
 10
28.866350
 20
199.266973
 30
0.0
  0
SPLINE
  5
23f
100
AcDbEntity
  8
detection
 62
1
100
AcDbSpline
 70
8
 71
3
 72
8
 73
4
 74
0
 40
0
 40
0
 40
0
 40
0
 40
1
 40
1
 40
1
 40
1
 10
14.966300
 20
195.766972
 30
0.0
 10
15.430401
 20
196.034921
 30
0.0
 10
16.002198
 20
196.034921
 30
0.0
 10
16.466300
 20
195.766972
 30
0.0
  0
SPLINE
  5
240
100
AcDbEntity
  8
detection
 62
1
100
AcDbSpline
 70
8
 71
3
 72
8
 73
4
 74
0
 40
0
 40
0
 40
0
 40
0
 40
1
 40
1
 40
1
 40
1
 10
16.466300
 20
195.766972
 30
0.0
 10
16.930401
 20
195.499023
 30
0.0
 10
17.216300
 20
195.003832
 30
0.0
 10
17.216300
 20
194.467934
 30
0.0
  0
SPLINE
  5
241
100
AcDbEntity
  8
detection
 62
1
100
AcDbSpline
 70
8
 71
3
 72
8
 73
4
 74
0
 40
0
 40
0
 40
0
 40
0
 40
1
 40
1
 40
1
 40
1
 10
17.216300
 20
194.467934
 30
0.0
 10
17.216300
 20
193.932035
 30
0.0
 10
16.930401
 20
193.436845
 30
0.0
 10
16.466300
 20
193.168896
 30
0.0
  0
SPLINE
  5
242
100
AcDbEntity
  8
detection
 62
1
100
AcDbSpline
 70
8
 71
3
 72
8
 73
4
 74
0
 40
0
 40
0
 40
0
 40
0
 40
1
 40
1
 40
1
 40
1
 10
16.466300
 20
193.168896
 30
0.0
 10
16.002198
 20
192.900946
 30
0.0
 10
15.430401
 20
192.900946
 30
0.0
 10
14.966300
 20
193.168896
 30
0.0
  0
SPLINE
  5
243
100
AcDbEntity
  8
detection
 62
1
100
AcDbSpline
 70
8
 71
3
 72
8
 73
4
 74
0
 40
0
 40
0
 40
0
 40
0
 40
1
 40
1
 40
1
 40
1
 10
14.966300
 20
193.168896
 30
0.0
 10
14.502198
 20
193.436845
 30
0.0
 10
14.216300
 20
193.932035
 30
0.0
 10
14.216300
 20
194.467934
 30
0.0
  0
SPLINE
  5
244
100
AcDbEntity
  8
detection
 62
1
100
AcDbSpline
 70
8
 71
3
 72
8
 73
4
 74
0
 40
0
 40
0
 40
0
 40
0
 40
1
 40
1
 40
1
 40
1
 10
14.216300
 20
194.467934
 30
0.0
 10
14.216300
 20
195.003832
 30
0.0
 10
14.502198
 20
195.499023
 30
0.0
 10
14.966300
 20
195.766972
 30
0.0
  0
LWPOLYLINE
  5
245
100
AcDbEntity
  8
detection
 62
1
100
AcDbPolyline
 90
1
 70
1
 10
34.939575
 20
195.760595
 30
0.0
  0
SPLINE
  5
246
100
AcDbEntity
  8
detection
 62
1
100
AcDbSpline
 70
8
 71
3
 72
8
 73
4
 74
0
 40
0
 40
0
 40
0
 40
0
 40
1
 40
1
 40
1
 40
1
 10
21.039524
 20
199.273350
 30
0.0
 10
21.503626
 20
199.541299
 30
0.0
 10
22.075423
 20
199.541299
 30
0.0
 10
22.539524
 20
199.273350
 30
0.0
  0
SPLINE
  5
247
100
AcDbEntity
  8
detection
 62
1
100
AcDbSpline
 70
8
 71
3
 72
8
 73
4
 74
0
 40
0
 40
0
 40
0
 40
0
 40
1
 40
1
 40
1
 40
1
 10
22.539524
 20
199.273350
 30
0.0
 10
23.003626
 20
199.005401
 30
0.0
 10
23.289524
 20
198.510210
 30
0.0
 10
23.289524
 20
197.974312
 30
0.0
  0
SPLINE
  5
248
100
AcDbEntity
  8
detection
 62
1
100
AcDbSpline
 70
8
 71
3
 72
8
 73
4
 74
0
 40
0
 40
0
 40
0
 40
0
 40
1
 40
1
 40
1
 40
1
 10
23.289524
 20
197.974312
 30
0.0
 10
23.289524
 20
197.438413
 30
0.0
 10
23.003626
 20
196.943223
 30
0.0
 10
22.539524
 20
196.675274
 30
0.0
  0
SPLINE
  5
249
100
AcDbEntity
  8
detection
 62
1
100
AcDbSpline
 70
8
 71
3
 72
8
 73
4
 74
0
 40
0
 40
0
 40
0
 40
0
 40
1
 40
1
 40
1
 40
1
 10
22.539524
 20
196.675274
 30
0.0
 10
22.075423
 20
196.407324
 30
0.0
 10
21.503626
 20
196.407324
 30
0.0
 10
21.039524
 20
196.675274
 30
0.0
  0
SPLINE
  5
24a
100
AcDbEntity
  8
detection
 62
1
100
AcDbSpline
 70
8
 71
3
 72
8
 73
4
 74
0
 40
0
 40
0
 40
0
 40
0
 40
1
 40
1
 40
1
 40
1
 10
21.039524
 20
196.675274
 30
0.0
 10
20.575423
 20
196.943223
 30
0.0
 10
20.289524
 20
197.438413
 30
0.0
 10
20.289524
 20
197.974312
 30
0.0
  0
SPLINE
  5
24b
100
AcDbEntity
  8
detection
 62
1
100
AcDbSpline
 70
8
 71
3
 72
8
 73
4
 74
0
 40
0
 40
0
 40
0
 40
0
 40
1
 40
1
 40
1
 40
1
 10
20.289524
 20
197.974312
 30
0.0
 10
20.289524
 20
198.510210
 30
0.0
 10
20.575423
 20
199.005401
 30
0.0
 10
21.039524
 20
199.273350
 30
0.0
  0
LWPOLYLINE
  5
24c
100
AcDbEntity
  8
detection
 62
1
100
AcDbPolyline
 90
1
 70
1
 10
14.966300
 20
195.766972
 30
0.0
  0
SPLINE
  5
24d
100
AcDbEntity
  8
detection
 62
1
100
AcDbSpline
 70
8
 71
3
 72
8
 73
4
 74
0
 40
0
 40
0
 40
0
 40
0
 40
1
 40
1
 40
1
 40
1
 10
11.047364
 20
181.979176
 30
0.0
 10
11.047364
 20
182.515075
 30
0.0
 10
11.333262
 20
183.010265
 30
0.0
 10
11.797364
 20
183.278214
 30
0.0
  0
SPLINE
  5
24e
100
AcDbEntity
  8
detection
 62
1
100
AcDbSpline
 70
8
 71
3
 72
8
 73
4
 74
0
 40
0
 40
0
 40
0
 40
0
 40
1
 40
1
 40
1
 40
1
 10
11.797364
 20
183.278214
 30
0.0
 10
12.261466
 20
183.546164
 30
0.0
 10
12.833262
 20
183.546164
 30
0.0
 10
13.297364
 20
183.278214
 30
0.0
  0
SPLINE
  5
24f
100
AcDbEntity
  8
detection
 62
1
100
AcDbSpline
 70
8
 71
3
 72
8
 73
4
 74
0
 40
0
 40
0
 40
0
 40
0
 40
1
 40
1
 40
1
 40
1
 10
13.297364
 20
183.278214
 30
0.0
 10
13.761466
 20
183.010265
 30
0.0
 10
14.047364
 20
182.515075
 30
0.0
 10
14.047364
 20
181.979176
 30
0.0
  0
SPLINE
  5
250
100
AcDbEntity
  8
detection
 62
1
100
AcDbSpline
 70
8
 71
3
 72
8
 73
4
 74
0
 40
0
 40
0
 40
0
 40
0
 40
1
 40
1
 40
1
 40
1
 10
14.047364
 20
181.979176
 30
0.0
 10
14.047364
 20
181.443278
 30
0.0
 10
13.761466
 20
180.948087
 30
0.0
 10
13.297364
 20
180.680138
 30
0.0
  0
SPLINE
  5
251
100
AcDbEntity
  8
detection
 62
1
100
AcDbSpline
 70
8
 71
3
 72
8
 73
4
 74
0
 40
0
 40
0
 40
0
 40
0
 40
1
 40
1
 40
1
 40
1
 10
13.297364
 20
180.680138
 30
0.0
 10
12.833262
 20
180.412189
 30
0.0
 10
12.261466
 20
180.412189
 30
0.0
 10
11.797364
 20
180.680138
 30
0.0
  0
SPLINE
  5
252
100
AcDbEntity
  8
detection
 62
1
100
AcDbSpline
 70
8
 71
3
 72
8
 73
4
 74
0
 40
0
 40
0
 40
0
 40
0
 40
1
 40
1
 40
1
 40
1
 10
11.797364
 20
180.680138
 30
0.0
 10
11.333262
 20
180.948087
 30
0.0
 10
11.047364
 20
181.443278
 30
0.0
 10
11.047364
 20
181.979176
 30
0.0
  0
LWPOLYLINE
  5
253
100
AcDbEntity
  8
detection
 62
1
100
AcDbPolyline
 90
1
 70
1
 10
21.039524
 20
199.273350
 30
0.0
  0
SPLINE
  5
254
100
AcDbEntity
  8
detection
 62
1
100
AcDbSpline
 70
8
 71
3
 72
8
 73
4
 74
0
 40
0
 40
0
 40
0
 40
0
 40
1
 40
1
 40
1
 40
1
 10
11.047364
 20
188.991932
 30
0.0
 10
11.047364
 20
189.527831
 30
0.0
 10
11.333262
 20
190.023021
 30
0.0
 10
11.797364
 20
190.290970
 30
0.0
  0
SPLINE
  5
255
100
AcDbEntity
  8
detection
 62
1
100
AcDbSpline
 70
8
 71
3
 72
8
 73
4
 74
0
 40
0
 40
0
 40
0
 40
0
 40
1
 40
1
 40
1
 40
1
 10
11.797364
 20
190.290970
 30
0.0
 10
12.261466
 20
190.558920
 30
0.0
 10
12.833262
 20
190.558920
 30
0.0
 10
13.297364
 20
190.290970
 30
0.0
  0
SPLINE
  5
256
100
AcDbEntity
  8
detection
 62
1
100
AcDbSpline
 70
8
 71
3
 72
8
 73
4
 74
0
 40
0
 40
0
 40
0
 40
0
 40
1
 40
1
 40
1
 40
1
 10
13.297364
 20
190.290970
 30
0.0
 10
13.761466
 20
190.023021
 30
0.0
 10
14.047364
 20
189.527831
 30
0.0
 10
14.047364
 20
188.991932
 30
0.0
  0
SPLINE
  5
257
100
AcDbEntity
  8
detection
 62
1
100
AcDbSpline
 70
8
 71
3
 72
8
 73
4
 74
0
 40
0
 40
0
 40
0
 40
0
 40
1
 40
1
 40
1
 40
1
 10
14.047364
 20
188.991932
 30
0.0
 10
14.047364
 20
188.456034
 30
0.0
 10
13.761466
 20
187.960843
 30
0.0
 10
13.297364
 20
187.692894
 30
0.0
  0
SPLINE
  5
258
100
AcDbEntity
  8
detection
 62
1
100
AcDbSpline
 70
8
 71
3
 72
8
 73
4
 74
0
 40
0
 40
0
 40
0
 40
0
 40
1
 40
1
 40
1
 40
1
 10
13.297364
 20
187.692894
 30
0.0
 10
12.833262
 20
187.424945
 30
0.0
 10
12.261466
 20
187.424945
 30
0.0
 10
11.797364
 20
187.692894
 30
0.0
  0
SPLINE
  5
259
100
AcDbEntity
  8
detection
 62
1
100
AcDbSpline
 70
8
 71
3
 72
8
 73
4
 74
0
 40
0
 40
0
 40
0
 40
0
 40
1
 40
1
 40
1
 40
1
 10
11.797364
 20
187.692894
 30
0.0
 10
11.333262
 20
187.960843
 30
0.0
 10
11.047364
 20
188.456034
 30
0.0
 10
11.047364
 20
188.991932
 30
0.0
  0
LWPOLYLINE
  5
25a
100
AcDbEntity
  8
detection
 62
1
100
AcDbPolyline
 90
1
 70
1
 10
11.047364
 20
181.979176
 30
0.0
  0
SPLINE
  5
25b
100
AcDbEntity
  8
detection
 62
1
100
AcDbSpline
 70
8
 71
3
 72
8
 73
4
 74
0
 40
0
 40
0
 40
0
 40
0
 40
1
 40
1
 40
1
 40
1
 10
21.028502
 20
171.691337
 30
0.0
 10
20.564401
 20
171.959287
 30
0.0
 10
20.278502
 20
172.454477
 30
0.0
 10
20.278502
 20
172.990375
 30
0.0
  0
SPLINE
  5
25c
100
AcDbEntity
  8
detection
 62
1
100
AcDbSpline
 70
8
 71
3
 72
8
 73
4
 74
0
 40
0
 40
0
 40
0
 40
0
 40
1
 40
1
 40
1
 40
1
 10
20.278502
 20
172.990375
 30
0.0
 10
20.278502
 20
173.526274
 30
0.0
 10
20.564401
 20
174.021464
 30
0.0
 10
21.028502
 20
174.289414
 30
0.0
  0
SPLINE
  5
25d
100
AcDbEntity
  8
detection
 62
1
100
AcDbSpline
 70
8
 71
3
 72
8
 73
4
 74
0
 40
0
 40
0
 40
0
 40
0
 40
1
 40
1
 40
1
 40
1
 10
21.028502
 20
174.289414
 30
0.0
 10
21.492604
 20
174.557363
 30
0.0
 10
22.064401
 20
174.557363
 30
0.0
 10
22.528502
 20
174.289414
 30
0.0
  0
SPLINE
  5
25e
100
AcDbEntity
  8
detection
 62
1
100
AcDbSpline
 70
8
 71
3
 72
8
 73
4
 74
0
 40
0
 40
0
 40
0
 40
0
 40
1
 40
1
 40
1
 40
1
 10
22.528502
 20
174.289414
 30
0.0
 10
22.992604
 20
174.021464
 30
0.0
 10
23.278502
 20
173.526274
 30
0.0
 10
23.278502
 20
172.990375
 30
0.0
  0
SPLINE
  5
25f
100
AcDbEntity
  8
detection
 62
1
100
AcDbSpline
 70
8
 71
3
 72
8
 73
4
 74
0
 40
0
 40
0
 40
0
 40
0
 40
1
 40
1
 40
1
 40
1
 10
23.278502
 20
172.990375
 30
0.0
 10
23.278502
 20
172.454477
 30
0.0
 10
22.992604
 20
171.959287
 30
0.0
 10
22.528502
 20
171.691337
 30
0.0
  0
SPLINE
  5
260
100
AcDbEntity
  8
detection
 62
1
100
AcDbSpline
 70
8
 71
3
 72
8
 73
4
 74
0
 40
0
 40
0
 40
0
 40
0
 40
1
 40
1
 40
1
 40
1
 10
22.528502
 20
171.691337
 30
0.0
 10
22.064401
 20
171.423388
 30
0.0
 10
21.492604
 20
171.423388
 30
0.0
 10
21.028502
 20
171.691337
 30
0.0
  0
LWPOLYLINE
  5
261
100
AcDbEntity
  8
detection
 62
1
100
AcDbPolyline
 90
1
 70
1
 10
11.047364
 20
188.991932
 30
0.0
  0
SPLINE
  5
262
100
AcDbEntity
  8
detection
 62
1
100
AcDbSpline
 70
8
 71
3
 72
8
 73
4
 74
0
 40
0
 40
0
 40
0
 40
0
 40
1
 40
1
 40
1
 40
1
 10
14.955278
 20
175.197715
 30
0.0
 10
14.491176
 20
175.465665
 30
0.0
 10
14.205278
 20
175.960855
 30
0.0
 10
14.205278
 20
176.496753
 30
0.0
  0
SPLINE
  5
263
100
AcDbEntity
  8
detection
 62
1
100
AcDbSpline
 70
8
 71
3
 72
8
 73
4
 74
0
 40
0
 40
0
 40
0
 40
0
 40
1
 40
1
 40
1
 40
1
 10
14.205278
 20
176.496753
 30
0.0
 10
14.205278
 20
177.032652
 30
0.0
 10
14.491176
 20
177.527842
 30
0.0
 10
14.955278
 20
177.795792
 30
0.0
  0
SPLINE
  5
264
100
AcDbEntity
  8
detection
 62
1
100
AcDbSpline
 70
8
 71
3
 72
8
 73
4
 74
0
 40
0
 40
0
 40
0
 40
0
 40
1
 40
1
 40
1
 40
1
 10
14.955278
 20
177.795792
 30
0.0
 10
15.419379
 20
178.063741
 30
0.0
 10
15.991176
 20
178.063741
 30
0.0
 10
16.455278
 20
177.795792
 30
0.0
  0
SPLINE
  5
265
100
AcDbEntity
  8
detection
 62
1
100
AcDbSpline
 70
8
 71
3
 72
8
 73
4
 74
0
 40
0
 40
0
 40
0
 40
0
 40
1
 40
1
 40
1
 40
1
 10
16.455278
 20
177.795792
 30
0.0
 10
16.919379
 20
177.527842
 30
0.0
 10
17.205278
 20
177.032652
 30
0.0
 10
17.205278
 20
176.496753
 30
0.0
  0
SPLINE
  5
266
100
AcDbEntity
  8
detection
 62
1
100
AcDbSpline
 70
8
 71
3
 72
8
 73
4
 74
0
 40
0
 40
0
 40
0
 40
0
 40
1
 40
1
 40
1
 40
1
 10
17.205278
 20
176.496753
 30
0.0
 10
17.205278
 20
175.960855
 30
0.0
 10
16.919379
 20
175.465665
 30
0.0
 10
16.455278
 20
175.197715
 30
0.0
  0
SPLINE
  5
267
100
AcDbEntity
  8
detection
 62
1
100
AcDbSpline
 70
8
 71
3
 72
8
 73
4
 74
0
 40
0
 40
0
 40
0
 40
0
 40
1
 40
1
 40
1
 40
1
 10
16.455278
 20
175.197715
 30
0.0
 10
15.991176
 20
174.929766
 30
0.0
 10
15.419379
 20
174.929766
 30
0.0
 10
14.955278
 20
175.197715
 30
0.0
  0
LWPOLYLINE
  5
268
100
AcDbEntity
  8
detection
 62
1
100
AcDbPolyline
 90
1
 70
1
 10
21.028502
 20
171.691337
 30
0.0
  0
SPLINE
  5
269
100
AcDbEntity
  8
detection
 62
1
100
AcDbSpline
 70
8
 71
3
 72
8
 73
4
 74
0
 40
0
 40
0
 40
0
 40
0
 40
1
 40
1
 40
1
 40
1
 10
34.928584
 20
175.191347
 30
0.0
 10
34.464483
 20
174.923398
 30
0.0
 10
33.892686
 20
174.923398
 30
0.0
 10
33.428584
 20
175.191347
 30
0.0
  0
SPLINE
  5
26a
100
AcDbEntity
  8
detection
 62
1
100
AcDbSpline
 70
8
 71
3
 72
8
 73
4
 74
0
 40
0
 40
0
 40
0
 40
0
 40
1
 40
1
 40
1
 40
1
 10
33.428584
 20
175.191347
 30
0.0
 10
32.964483
 20
175.459297
 30
0.0
 10
32.678584
 20
175.954487
 30
0.0
 10
32.678584
 20
176.490385
 30
0.0
  0
SPLINE
  5
26b
100
AcDbEntity
  8
detection
 62
1
100
AcDbSpline
 70
8
 71
3
 72
8
 73
4
 74
0
 40
0
 40
0
 40
0
 40
0
 40
1
 40
1
 40
1
 40
1
 10
32.678584
 20
176.490385
 30
0.0
 10
32.678584
 20
177.026284
 30
0.0
 10
32.964483
 20
177.521474
 30
0.0
 10
33.428584
 20
177.789424
 30
0.0
  0
SPLINE
  5
26c
100
AcDbEntity
  8
detection
 62
1
100
AcDbSpline
 70
8
 71
3
 72
8
 73
4
 74
0
 40
0
 40
0
 40
0
 40
0
 40
1
 40
1
 40
1
 40
1
 10
33.428584
 20
177.789424
 30
0.0
 10
33.892686
 20
178.057373
 30
0.0
 10
34.464483
 20
178.057373
 30
0.0
 10
34.928584
 20
177.789424
 30
0.0
  0
SPLINE
  5
26d
100
AcDbEntity
  8
detection
 62
1
100
AcDbSpline
 70
8
 71
3
 72
8
 73
4
 74
0
 40
0
 40
0
 40
0
 40
0
 40
1
 40
1
 40
1
 40
1
 10
34.928584
 20
177.789424
 30
0.0
 10
35.392686
 20
177.521474
 30
0.0
 10
35.678584
 20
177.026284
 30
0.0
 10
35.678584
 20
176.490385
 30
0.0
  0
SPLINE
  5
26e
100
AcDbEntity
  8
detection
 62
1
100
AcDbSpline
 70
8
 71
3
 72
8
 73
4
 74
0
 40
0
 40
0
 40
0
 40
0
 40
1
 40
1
 40
1
 40
1
 10
35.678584
 20
176.490385
 30
0.0
 10
35.678584
 20
175.954487
 30
0.0
 10
35.392686
 20
175.459297
 30
0.0
 10
34.928584
 20
175.191347
 30
0.0
  0
LWPOLYLINE
  5
26f
100
AcDbEntity
  8
detection
 62
1
100
AcDbPolyline
 90
1
 70
1
 10
14.955278
 20
175.197715
 30
0.0
  0
SPLINE
  5
270
100
AcDbEntity
  8
detection
 62
1
100
AcDbSpline
 70
8
 71
3
 72
8
 73
4
 74
0
 40
0
 40
0
 40
0
 40
0
 40
1
 40
1
 40
1
 40
1
 10
28.855359
 20
171.684969
 30
0.0
 10
28.391258
 20
171.417020
 30
0.0
 10
27.819461
 20
171.417020
 30
0.0
 10
27.355359
 20
171.684969
 30
0.0
  0
SPLINE
  5
271
100
AcDbEntity
  8
detection
 62
1
100
AcDbSpline
 70
8
 71
3
 72
8
 73
4
 74
0
 40
0
 40
0
 40
0
 40
0
 40
1
 40
1
 40
1
 40
1
 10
27.355359
 20
171.684969
 30
0.0
 10
26.891258
 20
171.952919
 30
0.0
 10
26.605359
 20
172.448109
 30
0.0
 10
26.605359
 20
172.984007
 30
0.0
  0
SPLINE
  5
272
100
AcDbEntity
  8
detection
 62
1
100
AcDbSpline
 70
8
 71
3
 72
8
 73
4
 74
0
 40
0
 40
0
 40
0
 40
0
 40
1
 40
1
 40
1
 40
1
 10
26.605359
 20
172.984007
 30
0.0
 10
26.605359
 20
173.519906
 30
0.0
 10
26.891258
 20
174.015096
 30
0.0
 10
27.355359
 20
174.283046
 30
0.0
  0
SPLINE
  5
273
100
AcDbEntity
  8
detection
 62
1
100
AcDbSpline
 70
8
 71
3
 72
8
 73
4
 74
0
 40
0
 40
0
 40
0
 40
0
 40
1
 40
1
 40
1
 40
1
 10
27.355359
 20
174.283046
 30
0.0
 10
27.819461
 20
174.550995
 30
0.0
 10
28.391258
 20
174.550995
 30
0.0
 10
28.855359
 20
174.283046
 30
0.0
  0
SPLINE
  5
274
100
AcDbEntity
  8
detection
 62
1
100
AcDbSpline
 70
8
 71
3
 72
8
 73
4
 74
0
 40
0
 40
0
 40
0
 40
0
 40
1
 40
1
 40
1
 40
1
 10
28.855359
 20
174.283046
 30
0.0
 10
29.319461
 20
174.015096
 30
0.0
 10
29.605359
 20
173.519906
 30
0.0
 10
29.605359
 20
172.984007
 30
0.0
  0
SPLINE
  5
275
100
AcDbEntity
  8
detection
 62
1
100
AcDbSpline
 70
8
 71
3
 72
8
 73
4
 74
0
 40
0
 40
0
 40
0
 40
0
 40
1
 40
1
 40
1
 40
1
 10
29.605359
 20
172.984007
 30
0.0
 10
29.605359
 20
172.448109
 30
0.0
 10
29.319461
 20
171.952919
 30
0.0
 10
28.855359
 20
171.684969
 30
0.0
  0
LWPOLYLINE
  5
276
100
AcDbEntity
  8
detection
 62
1
100
AcDbPolyline
 90
1
 70
1
 10
34.928584
 20
175.191347
 30
0.0
  0
SPLINE
  5
277
100
AcDbEntity
  8
detection
 62
1
100
AcDbSpline
 70
8
 71
3
 72
8
 73
4
 74
0
 40
0
 40
0
 40
0
 40
0
 40
1
 40
1
 40
1
 40
1
 10
28.847305
 20
185.479176
 30
0.0
 10
28.847305
 20
183.325266
 30
0.0
 10
27.101215
 20
181.579176
 30
0.0
 10
24.947305
 20
181.579176
 30
0.0
  0
SPLINE
  5
278
100
AcDbEntity
  8
detection
 62
1
100
AcDbSpline
 70
8
 71
3
 72
8
 73
4
 74
0
 40
0
 40
0
 40
0
 40
0
 40
1
 40
1
 40
1
 40
1
 10
24.947305
 20
181.579176
 30
0.0
 10
22.793395
 20
181.579176
 30
0.0
 10
21.047305
 20
183.325266
 30
0.0
 10
21.047305
 20
185.479176
 30
0.0
  0
SPLINE
  5
279
100
AcDbEntity
  8
detection
 62
1
100
AcDbSpline
 70
8
 71
3
 72
8
 73
4
 74
0
 40
0
 40
0
 40
0
 40
0
 40
1
 40
1
 40
1
 40
1
 10
21.047305
 20
185.479176
 30
0.0
 10
21.047305
 20
187.633087
 30
0.0
 10
22.793395
 20
189.379176
 30
0.0
 10
24.947305
 20
189.379176
 30
0.0
  0
SPLINE
  5
27a
100
AcDbEntity
  8
detection
 62
1
100
AcDbSpline
 70
8
 71
3
 72
8
 73
4
 74
0
 40
0
 40
0
 40
0
 40
0
 40
1
 40
1
 40
1
 40
1
 10
24.947305
 20
189.379176
 30
0.0
 10
27.101215
 20
189.379176
 30
0.0
 10
28.847305
 20
187.633087
 30
0.0
 10
28.847305
 20
185.479176
 30
0.0
  0
LWPOLYLINE
  5
27b
100
AcDbEntity
  8
detection
 62
1
100
AcDbPolyline
 90
1
 70
1
 10
28.855359
 20
171.684969
 30
0.0
  0
SPLINE
  5
27c
100
AcDbEntity
  8
detection
 62
7
100
AcDbSpline
 70
8
 71
3
 72
8
 73
4
 74
0
 40
0
 40
0
 40
0
 40
0
 40
1
 40
1
 40
1
 40
1
 10
21.047028
 20
179.658202
 30
0.0
 10
21.047028
 20
181.917206
 30
0.0
 10
21.052028
 20
182.847315
 30
0.0
 10
21.057928
 20
181.725111
 30
0.0
  0
SPLINE
  5
27d
100
AcDbEntity
  8
detection
 62
7
100
AcDbSpline
 70
8
 71
3
 72
8
 73
4
 74
0
 40
0
 40
0
 40
0
 40
0
 40
1
 40
1
 40
1
 40
1
 10
21.057928
 20
181.725111
 30
0.0
 10
21.063928
 20
180.602905
 30
0.0
 10
21.063928
 20
178.754629
 30
0.0
 10
21.057928
 20
177.617826
 30
0.0
  0
SPLINE
  5
27e
100
AcDbEntity
  8
detection
 62
7
100
AcDbSpline
 70
8
 71
3
 72
8
 73
4
 74
0
 40
0
 40
0
 40
0
 40
0
 40
1
 40
1
 40
1
 40
1
 10
21.057928
 20
177.617826
 30
0.0
 10
21.051928
 20
176.481026
 30
0.0
 10
21.047028
 20
177.399196
 30
0.0
 10
21.047028
 20
179.658202
 30
0.0
  0
LWPOLYLINE
  5
27f
100
AcDbEntity
  8
detection
 62
1
100
AcDbPolyline
 90
1
 70
1
 10
28.847305
 20
185.479176
 30
0.0
  0
SPLINE
  5
280
100
AcDbEntity
  8
detection
 62
3
100
AcDbSpline
 70
8
 71
3
 72
8
 73
4
 74
0
 40
0
 40
0
 40
0
 40
0
 40
1
 40
1
 40
1
 40
1
 10
38.947305
 20
185.479176
 30
0.0
 10
38.947305
 20
180.477458
 30
0.0
 10
36.278920
 20
175.855680
 30
0.0
 10
31.947305
 20
173.354821
 30
0.0
  0
SPLINE
  5
281
100
AcDbEntity
  8
detection
 62
3
100
AcDbSpline
 70
8
 71
3
 72
8
 73
4
 74
0
 40
0
 40
0
 40
0
 40
0
 40
1
 40
1
 40
1
 40
1
 10
31.947305
 20
173.354821
 30
0.0
 10
27.615690
 20
170.853962
 30
0.0
 10
22.278920
 20
170.853962
 30
0.0
 10
17.947305
 20
173.354821
 30
0.0
  0
SPLINE
  5
282
100
AcDbEntity
  8
detection
 62
3
100
AcDbSpline
 70
8
 71
3
 72
8
 73
4
 74
0
 40
0
 40
0
 40
0
 40
0
 40
1
 40
1
 40
1
 40
1
 10
17.947305
 20
173.354821
 30
0.0
 10
13.615690
 20
175.855680
 30
0.0
 10
10.947305
 20
180.477458
 30
0.0
 10
10.947305
 20
185.479176
 30
0.0
  0
SPLINE
  5
283
100
AcDbEntity
  8
detection
 62
3
100
AcDbSpline
 70
8
 71
3
 72
8
 73
4
 74
0
 40
0
 40
0
 40
0
 40
0
 40
1
 40
1
 40
1
 40
1
 10
10.947305
 20
185.479176
 30
0.0
 10
10.947305
 20
190.480895
 30
0.0
 10
13.615690
 20
195.102673
 30
0.0
 10
17.947305
 20
197.603532
 30
0.0
  0
SPLINE
  5
284
100
AcDbEntity
  8
detection
 62
3
100
AcDbSpline
 70
8
 71
3
 72
8
 73
4
 74
0
 40
0
 40
0
 40
0
 40
0
 40
1
 40
1
 40
1
 40
1
 10
17.947305
 20
197.603532
 30
0.0
 10
22.278920
 20
200.104391
 30
0.0
 10
27.615690
 20
200.104391
 30
0.0
 10
31.947305
 20
197.603532
 30
0.0
  0
SPLINE
  5
285
100
AcDbEntity
  8
detection
 62
3
100
AcDbSpline
 70
8
 71
3
 72
8
 73
4
 74
0
 40
0
 40
0
 40
0
 40
0
 40
1
 40
1
 40
1
 40
1
 10
31.947305
 20
197.603532
 30
0.0
 10
36.278920
 20
195.102673
 30
0.0
 10
38.947305
 20
190.480895
 30
0.0
 10
38.947305
 20
185.479176
 30
0.0
  0
LWPOLYLINE
  5
286
100
AcDbEntity
  8
detection
 62
7
100
AcDbPolyline
 90
1
 70
1
 10
21.047028
 20
179.658202
 30
0.0
  0
LWPOLYLINE
  5
287
100
AcDbEntity
  8
detection
 62
3
100
AcDbPolyline
 90
1
 70
1
 10
38.947305
 20
185.479176
 30
0.0
  0
ENDSEC
  0
SECTION
  2
OBJECTS
  0
DICTIONARY
  5
C
330
0
100
AcDbDictionary
  3
ACAD_GROUP
350
D
  3
ACAD_MLINESTYLE
350
17
  0
DICTIONARY
  5
D
330
C
100
AcDbDictionary
  0
DICTIONARY
  5
1A
330
C
100
AcDbDictionary
  0
DICTIONARY
  5
17
330
C
100
AcDbDictionary
  3
STANDARD
350
18
  0
DICTIONARY
  5
19
330
C
100
AcDbDictionary
  0
ENDSEC
  0
EOF
