  0
SECTION
  2
HEADER
  9
$ACADVER
  1
AC1014
  9
$HANDSEED
  5
FFFF
  9
$MEASUREMENT
 70
     1
  0
ENDSEC
  0
SECTION
  2
TABLES
  0
TABLE
  2
VPORT
  5
8
330
0
100
AcDbSymbolTable
 70
     4
  0
VPORT
  5
2E
330
8
100
AcDbSymbolTableRecord
100
AcDbViewportTableRecord
  2
*ACTIVE
 70
     0
 10
0.0
 20
0.0
 11
1.0
 21
1.0
 12
210.0
 22
148.5
 13
0.0
 23
0.0
 14
10.0
 24
10.0
 15
10.0
 25
10.0
 16
0.0
 26
0.0
 36
1.0
 17
0.0
 27
0.0
 37
0.0
 40
341.0
 41
1.24
 42
50.0
 43
0.0
 44
0.0
 50
0.0
 51
0.0
 71
     0
 72
   100
 73
     1
 74
     3
 75
     0
 76
     0
 77
     0
 78
     0
  0
ENDTAB
  0
TABLE
  2
LTYPE
  5
5
330
0
100
AcDbSymbolTable
 70
     1
  0
LTYPE
  5
14
330
5
100
AcDbSymbolTableRecord
100
AcDbLinetypeTableRecord
  2
BYBLOCK
 70
     0
  3

 72
    65
 73
     0
 40
0.0
  0
LTYPE
  5
15
330
5
100
AcDbSymbolTableRecord
100
AcDbLinetypeTableRecord
  2
BYLAYER
 70
     0
  3

 72
    65
 73
     0
 40
0.0
  0
LTYPE
  5
16
330
5
100
AcDbSymbolTableRecord
100
AcDbLinetypeTableRecord
  2
CONTINUOUS
 70
     0
  3
Solid line
 72
    65
 73
     0
 40
0.0
  0
ENDTAB
  0
TABLE
  2
LAYER
  5
2
100
AcDbSymbolTable
 70
2
  0
LAYER
  5
50
100
AcDbSymbolTableRecord
100
AcDbLayerTableRecord
  2
0
 70
0
  6
CONTINUOUS
  0
LAYER
  5
51
100
AcDbSymbolTableRecord
100
AcDbLayerTableRecord
  2
case
 70
0
  6
CONTINUOUS
  0
ENDTAB
  0
TABLE
  2
STYLE
  5
3
330
0
100
AcDbSymbolTable
 70
     1
  0
STYLE
  5
11
330
3
100
AcDbSymbolTableRecord
100
AcDbTextStyleTableRecord
  2
STANDARD
 70
     0
 40
0.0
 41
1.0
 50
0.0
 71
     0
 42
2.5
  3
txt
  4

  0
ENDTAB
  0
TABLE
  2
VIEW
  5
6
330
0
100
AcDbSymbolTable
 70
     0
  0
ENDTAB
  0
TABLE
  2
UCS
  5
7
330
0
100
AcDbSymbolTable
 70
     0
  0
ENDTAB
  0
TABLE
  2
APPID
  5
9
330
0
100
AcDbSymbolTable
 70
     2
  0
APPID
  5
12
330
9
100
AcDbSymbolTableRecord
100
AcDbRegAppTableRecord
  2
ACAD
 70
     0
  0
ENDTAB
  0
TABLE
  2
DIMSTYLE
  5
A
330
0
100
AcDbSymbolTable
 70
     1
  0
DIMSTYLE
105
27
330
A
100
AcDbSymbolTableRecord
100
AcDbDimStyleTableRecord
  2
ISO-25
 70
     0
  3

  4

  5

  6

  7

 40
1.0
 41
2.5
 42
0.625
 43
3.75
 44
1.25
 45
0.0
 46
0.0
 47
0.0
 48
0.0
140
2.5
141
2.5
142
0.0
143
0.03937007874016
144
1.0
145
0.0
146
1.0
147
0.625
 71
     0
 72
     0
 73
     0
 74
     0
 75
     0
 76
     0
 77
     1
 78
     8
170
     0
171
     3
172
     1
173
     0
174
     0
175
     0
176
     0
177
     0
178
     0
270
     2
271
     2
272
     2
273
     2
274
     3
340
11
275
     0
280
     0
281
     0
282
     0
283
     0
284
     8
285
     0
286
     0
287
     3
288
     0
  0
ENDTAB
  0
TABLE
  2
BLOCK_RECORD
  5
1
330
0
100
AcDbSymbolTable
 70
     1
  0
BLOCK_RECORD
  5
1F
330
1
100
AcDbSymbolTableRecord
100
AcDbBlockTableRecord
  2
*MODEL_SPACE
  0
BLOCK_RECORD
  5
1B
330
1
100
AcDbSymbolTableRecord
100
AcDbBlockTableRecord
  2
*PAPER_SPACE
  0
ENDTAB
  0
ENDSEC
  0
SECTION
  2
BLOCKS
  0
BLOCK
  5
20
330
1F
100
AcDbEntity
  8
0
100
AcDbBlockBegin
  2
*MODEL_SPACE
 70
     0
 10
0.0
 20
0.0
 30
0.0
  3
*MODEL_SPACE
  1

  0
ENDBLK
  5
21
330
1F
100
AcDbEntity
  8
0
100
AcDbBlockEnd
  0
BLOCK
  5
1C
330
1B
100
AcDbEntity
 67
     1
  8
0
100
AcDbBlockBegin
  2
*PAPER_SPACE
  1

  0
ENDBLK
  5
1D
330
1B
100
AcDbEntity
 67
     1
  8
0
100
AcDbBlockEnd
  0
ENDSEC
  0
SECTION
  2
ENTITIES
  0
LWPOLYLINE
  5
100
100
AcDbEntity
  8
case
 62
1
100
AcDbPolyline
 90
4
 70
1
 10
126.559562
 20
268.065633
 30
0.0
 10
126.559562
 20
258.065632
 30
0.0
 10
129.559561
 20
258.065632
 30
0.0
 10
129.559561
 20
268.065633
 30
0.0
  0
LWPOLYLINE
  5
101
100
AcDbEntity
  8
case
 62
1
100
AcDbPolyline
 90
4
 70
1
 10
126.559562
 20
248.109697
 30
0.0
 10
126.559562
 20
238.109696
 30
0.0
 10
129.559561
 20
238.109696
 30
0.0
 10
129.559561
 20
248.109697
 30
0.0
  0
LWPOLYLINE
  5
102
100
AcDbEntity
  8
case
 62
1
100
AcDbPolyline
 90
4
 70
1
 10
190.758969
 20
268.066718
 30
0.0
 10
190.758969
 20
258.066714
 30
0.0
 10
193.758968
 20
258.066714
 30
0.0
 10
193.758968
 20
268.066718
 30
0.0
  0
SPLINE
  5
103
100
AcDbEntity
  8
case
 62
1
100
AcDbSpline
 70
8
 71
3
 72
8
 73
4
 74
0
 40
0
 40
0
 40
0
 40
0
 40
1
 40
1
 40
1
 40
1
 10
127.542967
 20
273.044186
 30
0.0
 10
125.893776
 20
273.044186
 30
0.0
 10
124.561995
 20
271.712184
 30
0.0
 10
124.561995
 20
270.072034
 30
0.0
  0
LWPOLYLINE
  5
104
100
AcDbEntity
  8
case
 62
1
100
AcDbPolyline
 90
4
 70
1
 10
190.758969
 20
248.110795
 30
0.0
 10
190.758969
 20
238.110794
 30
0.0
 10
193.758968
 20
238.110794
 30
0.0
 10
193.758968
 20
248.110795
 30
0.0
  0
SPLINE
  5
105
100
AcDbEntity
  8
case
 62
1
100
AcDbSpline
 70
8
 71
3
 72
8
 73
4
 74
0
 40
0
 40
0
 40
0
 40
0
 40
1
 40
1
 40
1
 40
1
 10
124.561995
 20
239.062868
 30
0.0
 10
124.561995
 20
238.654685
 30
0.0
 10
124.642216
 20
238.261212
 30
0.0
 10
124.791300
 20
237.907520
 30
0.0
  0
SPLINE
  5
106
100
AcDbEntity
  8
case
 62
1
100
AcDbSpline
 70
8
 71
3
 72
8
 73
4
 74
0
 40
0
 40
0
 40
0
 40
0
 40
1
 40
1
 40
1
 40
1
 10
124.791300
 20
237.907520
 30
0.0
 10
124.940384
 20
237.553828
 30
0.0
 10
125.159726
 20
237.240154
 30
0.0
 10
125.426300
 20
236.972660
 30
0.0
  0
SPLINE
  5
107
100
AcDbEntity
  8
case
 62
1
100
AcDbSpline
 70
8
 71
3
 72
8
 73
4
 74
0
 40
0
 40
0
 40
0
 40
0
 40
1
 40
1
 40
1
 40
1
 10
125.426300
 20
236.972660
 30
0.0
 10
125.692874
 20
236.705163
 30
0.0
 10
126.008691
 20
236.487261
 30
0.0
 10
126.361161
 20
236.337660
 30
0.0
  0
SPLINE
  5
108
100
AcDbEntity
  8
case
 62
1
100
AcDbSpline
 70
8
 71
3
 72
8
 73
4
 74
0
 40
0
 40
0
 40
0
 40
0
 40
1
 40
1
 40
1
 40
1
 10
126.361161
 20
236.337660
 30
0.0
 10
126.713632
 20
236.188059
 30
0.0
 10
127.100916
 20
236.108353
 30
0.0
 10
127.507689
 20
236.108353
 30
0.0
  0
LWPOLYLINE
  5
109
100
AcDbEntity
  8
case
 62
1
100
AcDbPolyline
 90
2
 70
0
 10
124.561995
 20
270.072034
 30
0.0
 10
124.561995
 20
239.062868
 30
0.0
  0
SPLINE
  5
10a
100
AcDbEntity
  8
case
 62
1
100
AcDbSpline
 70
8
 71
3
 72
8
 73
4
 74
0
 40
0
 40
0
 40
0
 40
0
 40
1
 40
1
 40
1
 40
1
 10
192.815675
 20
236.108353
 30
0.0
 10
193.222451
 20
236.108353
 30
0.0
 10
193.609732
 20
236.188059
 30
0.0
 10
193.962202
 20
236.337660
 30
0.0
  0
SPLINE
  5
10b
100
AcDbEntity
  8
case
 62
1
100
AcDbSpline
 70
8
 71
3
 72
8
 73
4
 74
0
 40
0
 40
0
 40
0
 40
0
 40
1
 40
1
 40
1
 40
1
 10
193.962202
 20
236.337660
 30
0.0
 10
194.314672
 20
236.487261
 30
0.0
 10
194.630489
 20
236.705163
 30
0.0
 10
194.897062
 20
236.972660
 30
0.0
  0
SPLINE
  5
10c
100
AcDbEntity
  8
case
 62
1
100
AcDbSpline
 70
8
 71
3
 72
8
 73
4
 74
0
 40
0
 40
0
 40
0
 40
0
 40
1
 40
1
 40
1
 40
1
 10
194.897062
 20
236.972660
 30
0.0
 10
195.163635
 20
237.240154
 30
0.0
 10
195.382980
 20
237.562646
 30
0.0
 10
195.532062
 20
237.916339
 30
0.0
  0
SPLINE
  5
10d
100
AcDbEntity
  8
case
 62
1
100
AcDbSpline
 70
8
 71
3
 72
8
 73
4
 74
0
 40
0
 40
0
 40
0
 40
0
 40
1
 40
1
 40
1
 40
1
 10
195.532062
 20
237.916339
 30
0.0
 10
195.681147
 20
238.270031
 30
0.0
 10
195.761369
 20
238.654685
 30
0.0
 10
195.761369
 20
239.062868
 30
0.0
  0
LWPOLYLINE
  5
10e
100
AcDbEntity
  8
case
 62
1
100
AcDbPolyline
 90
2
 70
0
 10
127.507689
 20
236.108353
 30
0.0
 10
192.815675
 20
236.108353
 30
0.0
  0
SPLINE
  5
10f
100
AcDbEntity
  8
case
 62
1
100
AcDbSpline
 70
8
 71
3
 72
8
 73
4
 74
0
 40
0
 40
0
 40
0
 40
0
 40
1
 40
1
 40
1
 40
1
 10
195.761369
 20
270.072034
 30
0.0
 10
195.761369
 20
271.712184
 30
0.0
 10
194.420767
 20
273.044186
 30
0.0
 10
192.771577
 20
273.044186
 30
0.0
  0
SPLINE
  5
110
100
AcDbEntity
  8
case
 62
1
100
AcDbSpline
 70
8
 71
3
 72
8
 73
4
 74
0
 40
0
 40
0
 40
0
 40
0
 40
1
 40
1
 40
1
 40
1
 10
192.771577
 20
273.044186
 30
0.0
 10
191.790515
 20
273.044186
 30
0.0
 10
190.943050
 20
272.551008
 30
0.0
 10
190.372687
 20
271.844743
 30
0.0
  0
SPLINE
  5
111
100
AcDbEntity
  8
case
 62
1
100
AcDbSpline
 70
8
 71
3
 72
8
 73
4
 74
0
 40
0
 40
0
 40
0
 40
0
 40
1
 40
1
 40
1
 40
1
 10
190.372687
 20
271.844743
 30
0.0
 10
189.590367
 20
270.876013
 30
0.0
 10
186.373757
 20
270.072034
 30
0.0
 10
182.532202
 20
270.072034
 30
0.0
  0
LWPOLYLINE
  5
112
100
AcDbEntity
  8
case
 62
1
100
AcDbPolyline
 90
2
 70
0
 10
195.761369
 20
239.062868
 30
0.0
 10
195.761369
 20
270.072034
 30
0.0
  0
SPLINE
  5
113
100
AcDbEntity
  8
case
 62
1
100
AcDbSpline
 70
8
 71
3
 72
8
 73
4
 74
0
 40
0
 40
0
 40
0
 40
0
 40
1
 40
1
 40
1
 40
1
 10
137.791161
 20
270.072034
 30
0.0
 10
133.949607
 20
270.072034
 30
0.0
 10
130.724175
 20
270.876013
 30
0.0
 10
129.941855
 20
271.844743
 30
0.0
  0
SPLINE
  5
114
100
AcDbEntity
  8
case
 62
1
100
AcDbSpline
 70
8
 71
3
 72
8
 73
4
 74
0
 40
0
 40
0
 40
0
 40
0
 40
1
 40
1
 40
1
 40
1
 10
129.941855
 20
271.844743
 30
0.0
 10
129.371493
 20
272.551008
 30
0.0
 10
128.524027
 20
273.044186
 30
0.0
 10
127.542967
 20
273.044186
 30
0.0
  0
LWPOLYLINE
  5
115
100
AcDbEntity
  8
case
 62
1
100
AcDbPolyline
 90
2
 70
0
 10
182.532202
 20
270.072034
 30
0.0
 10
137.791161
 20
270.072034
 30
0.0
  0
LWPOLYLINE
  5
116
100
AcDbEntity
  8
case
 62
1
100
AcDbPolyline
 90
1
 70
1
 10
127.542967
 20
273.044186
 30
0.0
  0
LWPOLYLINE
  5
117
100
AcDbEntity
  8
case
 62
1
100
AcDbPolyline
 90
4
 70
1
 10
119.122891
 20
240.061043
 30
0.0
 10
119.122891
 20
250.061049
 30
0.0
 10
116.122892
 20
250.061049
 30
0.0
 10
116.122892
 20
240.061043
 30
0.0
  0
LWPOLYLINE
  5
118
100
AcDbEntity
  8
case
 62
1
100
AcDbPolyline
 90
4
 70
1
 10
119.122891
 20
260.017002
 30
0.0
 10
119.122891
 20
270.017006
 30
0.0
 10
116.122892
 20
270.017006
 30
0.0
 10
116.122892
 20
260.017002
 30
0.0
  0
LWPOLYLINE
  5
119
100
AcDbEntity
  8
case
 62
1
100
AcDbPolyline
 90
4
 70
1
 10
54.923482
 20
240.059931
 30
0.0
 10
54.923482
 20
250.059938
 30
0.0
 10
51.923483
 20
250.059938
 30
0.0
 10
51.923483
 20
240.059931
 30
0.0
  0
SPLINE
  5
11a
100
AcDbEntity
  8
case
 62
1
100
AcDbSpline
 70
8
 71
3
 72
8
 73
4
 74
0
 40
0
 40
0
 40
0
 40
0
 40
1
 40
1
 40
1
 40
1
 10
52.867640
 20
272.019759
 30
0.0
 10
52.460867
 20
272.019759
 30
0.0
 10
52.073585
 20
271.940056
 30
0.0
 10
51.721114
 20
271.790455
 30
0.0
  0
SPLINE
  5
11b
100
AcDbEntity
  8
case
 62
1
100
AcDbSpline
 70
8
 71
3
 72
8
 73
4
 74
0
 40
0
 40
0
 40
0
 40
0
 40
1
 40
1
 40
1
 40
1
 10
51.721114
 20
271.790455
 30
0.0
 10
51.368643
 20
271.640854
 30
0.0
 10
51.052827
 20
271.422951
 30
0.0
 10
50.786253
 20
271.155455
 30
0.0
  0
SPLINE
  5
11c
100
AcDbEntity
  8
case
 62
1
100
AcDbSpline
 70
8
 71
3
 72
8
 73
4
 74
0
 40
0
 40
0
 40
0
 40
0
 40
1
 40
1
 40
1
 40
1
 10
50.786253
 20
271.155455
 30
0.0
 10
50.519679
 20
270.887959
 30
0.0
 10
50.300336
 20
270.565463
 30
0.0
 10
50.151253
 20
270.211774
 30
0.0
  0
SPLINE
  5
11d
100
AcDbEntity
  8
case
 62
1
100
AcDbSpline
 70
8
 71
3
 72
8
 73
4
 74
0
 40
0
 40
0
 40
0
 40
0
 40
1
 40
1
 40
1
 40
1
 10
50.151253
 20
270.211774
 30
0.0
 10
50.002169
 20
269.858084
 30
0.0
 10
49.921947
 20
269.473425
 30
0.0
 10
49.921947
 20
269.065247
 30
0.0
  0
LWPOLYLINE
  5
11e
100
AcDbEntity
  8
case
 62
1
100
AcDbPolyline
 90
4
 70
1
 10
54.923482
 20
260.015917
 30
0.0
 10
54.923482
 20
270.015924
 30
0.0
 10
51.923483
 20
270.015924
 30
0.0
 10
51.923483
 20
260.015917
 30
0.0
  0
SPLINE
  5
11f
100
AcDbEntity
  8
case
 62
1
100
AcDbSpline
 70
8
 71
3
 72
8
 73
4
 74
0
 40
0
 40
0
 40
0
 40
0
 40
1
 40
1
 40
1
 40
1
 10
49.921947
 20
238.056083
 30
0.0
 10
49.921947
 20
236.415931
 30
0.0
 10
51.262548
 20
235.083913
 30
0.0
 10
52.911739
 20
235.083913
 30
0.0
  0
SPLINE
  5
120
100
AcDbEntity
  8
case
 62
1
100
AcDbSpline
 70
8
 71
3
 72
8
 73
4
 74
0
 40
0
 40
0
 40
0
 40
0
 40
1
 40
1
 40
1
 40
1
 10
52.911739
 20
235.083913
 30
0.0
 10
53.892800
 20
235.083913
 30
0.0
 10
54.731447
 20
235.577096
 30
0.0
 10
55.301810
 20
236.283375
 30
0.0
  0
SPLINE
  5
121
100
AcDbEntity
  8
case
 62
1
100
AcDbSpline
 70
8
 71
3
 72
8
 73
4
 74
0
 40
0
 40
0
 40
0
 40
0
 40
1
 40
1
 40
1
 40
1
 10
55.301810
 20
236.283375
 30
0.0
 10
56.084130
 20
237.252094
 30
0.0
 10
59.309559
 20
238.056083
 30
0.0
 10
63.151116
 20
238.056083
 30
0.0
  0
LWPOLYLINE
  5
122
100
AcDbEntity
  8
case
 62
1
100
AcDbPolyline
 90
2
 70
0
 10
49.921947
 20
269.065247
 30
0.0
 10
49.921947
 20
238.056083
 30
0.0
  0
SPLINE
  5
123
100
AcDbEntity
  8
case
 62
1
100
AcDbSpline
 70
8
 71
3
 72
8
 73
4
 74
0
 40
0
 40
0
 40
0
 40
0
 40
1
 40
1
 40
1
 40
1
 10
107.900973
 20
238.056083
 30
0.0
 10
111.742527
 20
238.056083
 30
0.0
 10
114.959136
 20
237.252094
 30
0.0
 10
115.741458
 20
236.283375
 30
0.0
  0
SPLINE
  5
124
100
AcDbEntity
  8
case
 62
1
100
AcDbSpline
 70
8
 71
3
 72
8
 73
4
 74
0
 40
0
 40
0
 40
0
 40
0
 40
1
 40
1
 40
1
 40
1
 10
115.741458
 20
236.283375
 30
0.0
 10
116.311818
 20
235.577070
 30
0.0
 10
117.159286
 20
235.092750
 30
0.0
 10
118.140348
 20
235.092750
 30
0.0
  0
SPLINE
  5
125
100
AcDbEntity
  8
case
 62
1
100
AcDbSpline
 70
8
 71
3
 72
8
 73
4
 74
0
 40
0
 40
0
 40
0
 40
0
 40
1
 40
1
 40
1
 40
1
 10
118.140348
 20
235.092750
 30
0.0
 10
119.789538
 20
235.092750
 30
0.0
 10
121.121321
 20
236.415957
 30
0.0
 10
121.121321
 20
238.056083
 30
0.0
  0
LWPOLYLINE
  5
126
100
AcDbEntity
  8
case
 62
1
100
AcDbPolyline
 90
2
 70
0
 10
63.151116
 20
238.056083
 30
0.0
 10
107.900973
 20
238.056083
 30
0.0
  0
SPLINE
  5
127
100
AcDbEntity
  8
case
 62
1
100
AcDbSpline
 70
8
 71
3
 72
8
 73
4
 74
0
 40
0
 40
0
 40
0
 40
0
 40
1
 40
1
 40
1
 40
1
 10
121.121321
 20
269.065247
 30
0.0
 10
121.121321
 20
269.473433
 30
0.0
 10
121.041102
 20
269.858079
 30
0.0
 10
120.892015
 20
270.211774
 30
0.0
  0
SPLINE
  5
128
100
AcDbEntity
  8
case
 62
1
100
AcDbSpline
 70
8
 71
3
 72
8
 73
4
 74
0
 40
0
 40
0
 40
0
 40
0
 40
1
 40
1
 40
1
 40
1
 10
120.892015
 20
270.211774
 30
0.0
 10
120.742930
 20
270.565469
 30
0.0
 10
120.523588
 20
270.887956
 30
0.0
 10
120.257015
 20
271.155455
 30
0.0
  0
SPLINE
  5
129
100
AcDbEntity
  8
case
 62
1
100
AcDbSpline
 70
8
 71
3
 72
8
 73
4
 74
0
 40
0
 40
0
 40
0
 40
0
 40
1
 40
1
 40
1
 40
1
 10
120.257015
 20
271.155455
 30
0.0
 10
119.990444
 20
271.422954
 30
0.0
 10
119.674627
 20
271.640854
 30
0.0
 10
119.322154
 20
271.790455
 30
0.0
  0
SPLINE
  5
12a
100
AcDbEntity
  8
case
 62
1
100
AcDbSpline
 70
8
 71
3
 72
8
 73
4
 74
0
 40
0
 40
0
 40
0
 40
0
 40
1
 40
1
 40
1
 40
1
 10
119.322154
 20
271.790455
 30
0.0
 10
118.969682
 20
271.940056
 30
0.0
 10
118.582401
 20
272.019759
 30
0.0
 10
118.175625
 20
272.019759
 30
0.0
  0
LWPOLYLINE
  5
12b
100
AcDbEntity
  8
case
 62
1
100
AcDbPolyline
 90
2
 70
0
 10
121.121321
 20
238.056083
 30
0.0
 10
121.121321
 20
269.065247
 30
0.0
  0
LWPOLYLINE
  5
12c
100
AcDbEntity
  8
case
 62
1
100
AcDbPolyline
 90
2
 70
0
 10
118.175625
 20
272.019759
 30
0.0
 10
52.867640
 20
272.019759
 30
0.0
  0
LWPOLYLINE
  5
12d
100
AcDbEntity
  8
case
 62
1
100
AcDbPolyline
 90
4
 70
1
 10
59.222718
 20
261.337908
 30
0.0
 10
75.820292
 20
261.337908
 30
0.0
 10
75.820292
 20
246.727546
 30
0.0
 10
59.222718
 20
246.727546
 30
0.0
  0
LWPOLYLINE
  5
12e
100
AcDbEntity
  8
case
 62
1
100
AcDbPolyline
 90
4
 70
1
 10
78.069584
 20
264.611444
 30
0.0
 10
94.537339
 20
264.611444
 30
0.0
 10
94.537339
 20
246.647318
 30
0.0
 10
78.069584
 20
246.647318
 30
0.0
  0
SPLINE
  5
12f
100
AcDbEntity
  8
case
 62
1
100
AcDbSpline
 70
8
 71
3
 72
8
 73
4
 74
0
 40
0
 40
0
 40
0
 40
0
 40
1
 40
1
 40
1
 40
1
 10
84.733308
 20
156.369889
 30
0.0
 10
84.733308
 20
156.500199
 30
0.0
 10
84.710554
 20
156.627392
 30
0.0
 10
84.662744
 20
156.740306
 30
0.0
  0
SPLINE
  5
130
100
AcDbEntity
  8
case
 62
1
100
AcDbSpline
 70
8
 71
3
 72
8
 73
4
 74
0
 40
0
 40
0
 40
0
 40
0
 40
1
 40
1
 40
1
 40
1
 10
84.662744
 20
156.740306
 30
0.0
 10
84.614987
 20
156.853220
 30
0.0
 10
84.545295
 20
156.954769
 30
0.0
 10
84.459914
 20
157.040166
 30
0.0
  0
SPLINE
  5
131
100
AcDbEntity
  8
case
 62
1
100
AcDbSpline
 70
8
 71
3
 72
8
 73
4
 74
0
 40
0
 40
0
 40
0
 40
0
 40
1
 40
1
 40
1
 40
1
 10
84.459914
 20
157.040166
 30
0.0
 10
84.374507
 20
157.125566
 30
0.0
 10
84.272960
 20
157.195257
 30
0.0
 10
84.160036
 20
157.243014
 30
0.0
  0
SPLINE
  5
132
100
AcDbEntity
  8
case
 62
1
100
AcDbSpline
 70
8
 71
3
 72
8
 73
4
 74
0
 40
0
 40
0
 40
0
 40
0
 40
1
 40
1
 40
1
 40
1
 10
84.160036
 20
157.243014
 30
0.0
 10
84.047138
 20
157.290772
 30
0.0
 10
83.919926
 20
157.313571
 30
0.0
 10
83.789619
 20
157.313571
 30
0.0
  0
LWPOLYLINE
  5
133
100
AcDbEntity
  8
case
 62
1
100
AcDbPolyline
 90
4
 70
1
 10
96.507163
 20
264.611444
 30
0.0
 10
112.974919
 20
264.611444
 30
0.0
 10
112.974919
 20
246.647318
 30
0.0
 10
96.507163
 20
246.647318
 30
0.0
  0
SPLINE
  5
134
100
AcDbEntity
  8
case
 62
1
100
AcDbSpline
 70
8
 71
3
 72
8
 73
4
 74
0
 40
0
 40
0
 40
0
 40
0
 40
1
 40
1
 40
1
 40
1
 10
83.736702
 20
160.312181
 30
0.0
 10
83.736702
 20
161.121777
 30
0.0
 10
83.065851
 20
161.776208
 30
0.0
 10
82.246225
 20
161.776208
 30
0.0
  0
SPLINE
  5
135
100
AcDbEntity
  8
case
 62
1
100
AcDbSpline
 70
8
 71
3
 72
8
 73
4
 74
0
 40
0
 40
0
 40
0
 40
0
 40
1
 40
1
 40
1
 40
1
 10
82.246225
 20
161.776208
 30
0.0
 10
81.426599
 20
161.776208
 30
0.0
 10
80.764558
 20
161.121777
 30
0.0
 10
80.764558
 20
160.312181
 30
0.0
  0
LWPOLYLINE
  5
136
100
AcDbEntity
  8
case
 62
1
100
AcDbPolyline
 90
4
 70
0
 10
83.789619
 20
157.313571
 30
0.0
 10
82.731286
 20
157.313571
 30
0.0
 10
82.731286
 20
160.312181
 30
0.0
 10
83.736702
 20
160.312181
 30
0.0
  0
SPLINE
  5
137
100
AcDbEntity
  8
case
 62
1
100
AcDbSpline
 70
8
 71
3
 72
8
 73
4
 74
0
 40
0
 40
0
 40
0
 40
0
 40
1
 40
1
 40
1
 40
1
 10
73.673725
 20
160.312181
 30
0.0
 10
73.543418
 20
160.312181
 30
0.0
 10
73.425043
 20
160.289374
 30
0.0
 10
73.312119
 20
160.241625
 30
0.0
  0
SPLINE
  5
138
100
AcDbEntity
  8
case
 62
1
100
AcDbSpline
 70
8
 71
3
 72
8
 73
4
 74
0
 40
0
 40
0
 40
0
 40
0
 40
1
 40
1
 40
1
 40
1
 10
73.312119
 20
160.241625
 30
0.0
 10
73.199221
 20
160.193867
 30
0.0
 10
73.097674
 20
160.124176
 30
0.0
 10
73.012267
 20
160.038779
 30
0.0
  0
SPLINE
  5
139
100
AcDbEntity
  8
case
 62
1
100
AcDbSpline
 70
8
 71
3
 72
8
 73
4
 74
0
 40
0
 40
0
 40
0
 40
0
 40
1
 40
1
 40
1
 40
1
 10
73.012267
 20
160.038779
 30
0.0
 10
72.926859
 20
159.953379
 30
0.0
 10
72.857168
 20
159.851832
 30
0.0
 10
72.809411
 20
159.738916
 30
0.0
  0
SPLINE
  5
13a
100
AcDbEntity
  8
case
 62
1
100
AcDbSpline
 70
8
 71
3
 72
8
 73
4
 74
0
 40
0
 40
0
 40
0
 40
0
 40
1
 40
1
 40
1
 40
1
 10
72.809411
 20
159.738916
 30
0.0
 10
72.761654
 20
159.626003
 30
0.0
 10
72.730036
 20
159.498812
 30
0.0
 10
72.730036
 20
159.368500
 30
0.0
  0
LWPOLYLINE
  5
13b
100
AcDbEntity
  8
case
 62
1
100
AcDbPolyline
 90
2
 70
0
 10
80.764558
 20
160.312181
 30
0.0
 10
73.673725
 20
160.312181
 30
0.0
  0
SPLINE
  5
13c
100
AcDbEntity
  8
case
 62
1
100
AcDbSpline
 70
8
 71
3
 72
8
 73
4
 74
0
 40
0
 40
0
 40
0
 40
0
 40
1
 40
1
 40
1
 40
1
 10
62.772892
 20
159.368500
 30
0.0
 10
62.772892
 20
159.498812
 30
0.0
 10
62.750138
 20
159.626003
 30
0.0
 10
62.702328
 20
159.738916
 30
0.0
  0
SPLINE
  5
13d
100
AcDbEntity
  8
case
 62
1
100
AcDbSpline
 70
8
 71
3
 72
8
 73
4
 74
0
 40
0
 40
0
 40
0
 40
0
 40
1
 40
1
 40
1
 40
1
 10
62.702328
 20
159.738916
 30
0.0
 10
62.654570
 20
159.851832
 30
0.0
 10
62.584879
 20
159.953379
 30
0.0
 10
62.499498
 20
160.038779
 30
0.0
  0
SPLINE
  5
13e
100
AcDbEntity
  8
case
 62
1
100
AcDbSpline
 70
8
 71
3
 72
8
 73
4
 74
0
 40
0
 40
0
 40
0
 40
0
 40
1
 40
1
 40
1
 40
1
 10
62.499498
 20
160.038779
 30
0.0
 10
62.414091
 20
160.124176
 30
0.0
 10
62.312543
 20
160.193867
 30
0.0
 10
62.199619
 20
160.241625
 30
0.0
  0
SPLINE
  5
13f
100
AcDbEntity
  8
case
 62
1
100
AcDbSpline
 70
8
 71
3
 72
8
 73
4
 74
0
 40
0
 40
0
 40
0
 40
0
 40
1
 40
1
 40
1
 40
1
 10
62.199619
 20
160.241625
 30
0.0
 10
62.086722
 20
160.289382
 30
0.0
 10
61.959510
 20
160.312181
 30
0.0
 10
61.829203
 20
160.312181
 30
0.0
  0
LWPOLYLINE
  5
140
100
AcDbEntity
  8
case
 62
1
100
AcDbPolyline
 90
4
 70
0
 10
72.730036
 20
159.368500
 30
0.0
 10
72.730036
 20
157.313571
 30
0.0
 10
62.772892
 20
157.313571
 30
0.0
 10
62.772892
 20
159.368500
 30
0.0
  0
SPLINE
  5
141
100
AcDbEntity
  8
case
 62
1
100
AcDbSpline
 70
8
 71
3
 72
8
 73
4
 74
0
 40
0
 40
0
 40
0
 40
0
 40
1
 40
1
 40
1
 40
1
 10
55.779081
 20
160.312181
 30
0.0
 10
55.779081
 20
160.312181
 30
0.0
 10
55.811043
 20
158.422363
 30
0.0
 10
55.602684
 20
156.837321
 30
0.0
  0
SPLINE
  5
142
100
AcDbEntity
  8
case
 62
1
100
AcDbSpline
 70
8
 71
3
 72
8
 73
4
 74
0
 40
0
 40
0
 40
0
 40
0
 40
1
 40
1
 40
1
 40
1
 10
55.602684
 20
156.837321
 30
0.0
 10
55.394324
 20
155.252279
 30
0.0
 10
54.291488
 20
151.742015
 30
0.0
 10
54.059290
 20
149.975791
 30
0.0
  0
SPLINE
  5
143
100
AcDbEntity
  8
case
 62
1
100
AcDbSpline
 70
8
 71
3
 72
8
 73
4
 74
0
 40
0
 40
0
 40
0
 40
0
 40
1
 40
1
 40
1
 40
1
 10
54.059290
 20
149.975791
 30
0.0
 10
53.827144
 20
148.209571
 30
0.0
 10
53.812328
 20
145.345583
 30
0.0
 10
53.812328
 20
145.345583
 30
0.0
  0
SPLINE
  5
144
100
AcDbEntity
  8
case
 62
1
100
AcDbSpline
 70
8
 71
3
 72
8
 73
4
 74
0
 40
0
 40
0
 40
0
 40
0
 40
1
 40
1
 40
1
 40
1
 10
53.812328
 20
145.345583
 30
0.0
 10
53.812328
 20
145.070390
 30
0.0
 10
53.577378
 20
144.851696
 30
0.0
 10
53.291998
 20
144.851696
 30
0.0
  0
SPLINE
  5
145
100
AcDbEntity
  8
case
 62
1
100
AcDbSpline
 70
8
 71
3
 72
8
 73
4
 74
0
 40
0
 40
0
 40
0
 40
0
 40
1
 40
1
 40
1
 40
1
 10
53.291998
 20
144.851696
 30
0.0
 10
53.006592
 20
144.851696
 30
0.0
 10
52.780453
 20
145.070390
 30
0.0
 10
52.780453
 20
145.345583
 30
0.0
  0
SPLINE
  5
146
100
AcDbEntity
  8
case
 62
1
100
AcDbSpline
 70
8
 71
3
 72
8
 73
4
 74
0
 40
0
 40
0
 40
0
 40
0
 40
1
 40
1
 40
1
 40
1
 10
52.780453
 20
145.345583
 30
0.0
 10
52.780453
 20
145.345583
 30
0.0
 10
52.794476
 20
148.238445
 30
0.0
 10
53.027415
 20
150.011071
 30
0.0
  0
SPLINE
  5
147
100
AcDbEntity
  8
case
 62
1
100
AcDbSpline
 70
8
 71
3
 72
8
 73
4
 74
0
 40
0
 40
0
 40
0
 40
0
 40
1
 40
1
 40
1
 40
1
 10
53.027415
 20
150.011071
 30
0.0
 10
53.260433
 20
151.783700
 30
0.0
 10
54.363164
 20
155.293202
 30
0.0
 10
54.570809
 20
156.872598
 30
0.0
  0
SPLINE
  5
148
100
AcDbEntity
  8
case
 62
1
100
AcDbSpline
 70
8
 71
3
 72
8
 73
4
 74
0
 40
0
 40
0
 40
0
 40
0
 40
1
 40
1
 40
1
 40
1
 10
54.570809
 20
156.872598
 30
0.0
 10
54.778427
 20
158.451996
 30
0.0
 10
54.747206
 20
160.312181
 30
0.0
 10
54.747206
 20
160.312181
 30
0.0
  0
SPLINE
  5
149
100
AcDbEntity
  8
case
 62
1
100
AcDbSpline
 70
8
 71
3
 72
8
 73
4
 74
0
 40
0
 40
0
 40
0
 40
0
 40
1
 40
1
 40
1
 40
1
 10
54.747206
 20
160.312181
 30
0.0
 10
54.747206
 20
161.121777
 30
0.0
 10
54.076329
 20
161.776208
 30
0.0
 10
53.256703
 20
161.776208
 30
0.0
  0
SPLINE
  5
14a
100
AcDbEntity
  8
case
 62
1
100
AcDbSpline
 70
8
 71
3
 72
8
 73
4
 74
0
 40
0
 40
0
 40
0
 40
0
 40
1
 40
1
 40
1
 40
1
 10
53.256703
 20
161.776208
 30
0.0
 10
52.437076
 20
161.776208
 30
0.0
 10
51.775036
 20
161.121777
 30
0.0
 10
51.775036
 20
160.312181
 30
0.0
  0
LWPOLYLINE
  5
14b
100
AcDbEntity
  8
case
 62
1
100
AcDbPolyline
 90
2
 70
0
 10
61.829203
 20
160.312181
 30
0.0
 10
55.779081
 20
160.312181
 30
0.0
  0
SPLINE
  5
14c
100
AcDbEntity
  8
case
 62
1
100
AcDbSpline
 70
8
 71
3
 72
8
 73
4
 74
0
 40
0
 40
0
 40
0
 40
0
 40
1
 40
1
 40
1
 40
1
 10
51.713309
 20
157.313571
 30
0.0
 10
51.583002
 20
157.313571
 30
0.0
 10
51.455790
 20
157.290764
 30
0.0
 10
51.342892
 20
157.243014
 30
0.0
  0
SPLINE
  5
14d
100
AcDbEntity
  8
case
 62
1
100
AcDbSpline
 70
8
 71
3
 72
8
 73
4
 74
0
 40
0
 40
0
 40
0
 40
0
 40
1
 40
1
 40
1
 40
1
 10
51.342892
 20
157.243014
 30
0.0
 10
51.229968
 20
157.195257
 30
0.0
 10
51.128421
 20
157.125566
 30
0.0
 10
51.043040
 20
157.040166
 30
0.0
  0
SPLINE
  5
14e
100
AcDbEntity
  8
case
 62
1
100
AcDbSpline
 70
8
 71
3
 72
8
 73
4
 74
0
 40
0
 40
0
 40
0
 40
0
 40
1
 40
1
 40
1
 40
1
 10
51.043040
 20
157.040166
 30
0.0
 10
50.957632
 20
156.954769
 30
0.0
 10
50.896752
 20
156.853220
 30
0.0
 10
50.848994
 20
156.740306
 30
0.0
  0
SPLINE
  5
14f
100
AcDbEntity
  8
case
 62
1
100
AcDbSpline
 70
8
 71
3
 72
8
 73
4
 74
0
 40
0
 40
0
 40
0
 40
0
 40
1
 40
1
 40
1
 40
1
 10
50.848994
 20
156.740306
 30
0.0
 10
50.801237
 20
156.627392
 30
0.0
 10
50.769619
 20
156.500199
 30
0.0
 10
50.769619
 20
156.369889
 30
0.0
  0
SPLINE
  5
150
100
AcDbEntity
  8
case
 62
1
100
AcDbSpline
 70
8
 71
3
 72
8
 73
4
 74
0
 40
0
 40
0
 40
0
 40
0
 40
1
 40
1
 40
1
 40
1
 10
50.769619
 20
156.369889
 30
0.0
 10
50.769619
 20
156.006177
 30
0.0
 10
51.201790
 20
155.728185
 30
0.0
 10
51.201790
 20
155.364473
 30
0.0
  0
SPLINE
  5
151
100
AcDbEntity
  8
case
 62
1
100
AcDbSpline
 70
8
 71
3
 72
8
 73
4
 74
0
 40
0
 40
0
 40
0
 40
0
 40
1
 40
1
 40
1
 40
1
 10
51.201790
 20
155.364473
 30
0.0
 10
51.201790
 20
155.000761
 30
0.0
 10
50.769619
 20
154.731587
 30
0.0
 10
50.769619
 20
154.367875
 30
0.0
  0
SPLINE
  5
152
100
AcDbEntity
  8
case
 62
1
100
AcDbSpline
 70
8
 71
3
 72
8
 73
4
 74
0
 40
0
 40
0
 40
0
 40
0
 40
1
 40
1
 40
1
 40
1
 10
50.769619
 20
154.367875
 30
0.0
 10
50.769619
 20
154.004165
 30
0.0
 10
51.201790
 20
153.726170
 30
0.0
 10
51.201790
 20
153.362458
 30
0.0
  0
SPLINE
  5
153
100
AcDbEntity
  8
case
 62
1
100
AcDbSpline
 70
8
 71
3
 72
8
 73
4
 74
0
 40
0
 40
0
 40
0
 40
0
 40
1
 40
1
 40
1
 40
1
 10
51.201790
 20
153.362458
 30
0.0
 10
51.201790
 20
152.998748
 30
0.0
 10
50.769619
 20
152.729572
 30
0.0
 10
50.769619
 20
152.365862
 30
0.0
  0
SPLINE
  5
154
100
AcDbEntity
  8
case
 62
1
100
AcDbSpline
 70
8
 71
3
 72
8
 73
4
 74
0
 40
0
 40
0
 40
0
 40
0
 40
1
 40
1
 40
1
 40
1
 10
50.769619
 20
152.365862
 30
0.0
 10
50.769619
 20
152.002150
 30
0.0
 10
51.201790
 20
151.724155
 30
0.0
 10
51.201790
 20
151.360446
 30
0.0
  0
SPLINE
  5
155
100
AcDbEntity
  8
case
 62
1
100
AcDbSpline
 70
8
 71
3
 72
8
 73
4
 74
0
 40
0
 40
0
 40
0
 40
0
 40
1
 40
1
 40
1
 40
1
 10
51.201790
 20
151.360446
 30
0.0
 10
51.201790
 20
150.996736
 30
0.0
 10
50.769619
 20
150.718741
 30
0.0
 10
50.769619
 20
150.355029
 30
0.0
  0
SPLINE
  5
156
100
AcDbEntity
  8
case
 62
1
100
AcDbSpline
 70
8
 71
3
 72
8
 73
4
 74
0
 40
0
 40
0
 40
0
 40
0
 40
1
 40
1
 40
1
 40
1
 10
50.769619
 20
150.355029
 30
0.0
 10
50.769619
 20
149.991317
 30
0.0
 10
51.201790
 20
149.722143
 30
0.0
 10
51.201790
 20
149.358431
 30
0.0
  0
SPLINE
  5
157
100
AcDbEntity
  8
case
 62
1
100
AcDbSpline
 70
8
 71
3
 72
8
 73
4
 74
0
 40
0
 40
0
 40
0
 40
0
 40
1
 40
1
 40
1
 40
1
 10
51.201790
 20
149.358431
 30
0.0
 10
51.201790
 20
148.994719
 30
0.0
 10
50.769619
 20
148.716727
 30
0.0
 10
50.769619
 20
148.353014
 30
0.0
  0
LWPOLYLINE
  5
158
100
AcDbEntity
  8
case
 62
1
100
AcDbPolyline
 90
4
 70
0
 10
51.775036
 20
160.312181
 30
0.0
 10
52.780453
 20
160.312181
 30
0.0
 10
52.780453
 20
157.313571
 30
0.0
 10
51.713309
 20
157.313571
 30
0.0
  0
SPLINE
  5
159
100
AcDbEntity
  8
case
 62
1
100
AcDbSpline
 70
8
 71
3
 72
8
 73
4
 74
0
 40
0
 40
0
 40
0
 40
0
 40
1
 40
1
 40
1
 40
1
 10
50.769619
 20
20.846392
 30
0.0
 10
50.769619
 20
20.482680
 30
0.0
 10
51.201790
 20
20.213506
 30
0.0
 10
51.201790
 20
19.849794
 30
0.0
  0
SPLINE
  5
15a
100
AcDbEntity
  8
case
 62
1
100
AcDbSpline
 70
8
 71
3
 72
8
 73
4
 74
0
 40
0
 40
0
 40
0
 40
0
 40
1
 40
1
 40
1
 40
1
 10
51.201790
 20
19.849794
 30
0.0
 10
51.201790
 20
19.486084
 30
0.0
 10
50.769619
 20
19.208089
 30
0.0
 10
50.769619
 20
18.844377
 30
0.0
  0
SPLINE
  5
15b
100
AcDbEntity
  8
case
 62
1
100
AcDbSpline
 70
8
 71
3
 72
8
 73
4
 74
0
 40
0
 40
0
 40
0
 40
0
 40
1
 40
1
 40
1
 40
1
 10
50.769619
 20
18.844377
 30
0.0
 10
50.769619
 20
18.480668
 30
0.0
 10
51.201790
 20
18.202673
 30
0.0
 10
51.201790
 20
17.838960
 30
0.0
  0
SPLINE
  5
15c
100
AcDbEntity
  8
case
 62
1
100
AcDbSpline
 70
8
 71
3
 72
8
 73
4
 74
0
 40
0
 40
0
 40
0
 40
0
 40
1
 40
1
 40
1
 40
1
 10
51.201790
 20
17.838960
 30
0.0
 10
51.201790
 20
17.475251
 30
0.0
 10
50.769619
 20
17.206074
 30
0.0
 10
50.769619
 20
16.842365
 30
0.0
  0
SPLINE
  5
15d
100
AcDbEntity
  8
case
 62
1
100
AcDbSpline
 70
8
 71
3
 72
8
 73
4
 74
0
 40
0
 40
0
 40
0
 40
0
 40
1
 40
1
 40
1
 40
1
 10
50.769619
 20
16.842365
 30
0.0
 10
50.769619
 20
16.478653
 30
0.0
 10
51.201790
 20
16.200658
 30
0.0
 10
51.201790
 20
15.836948
 30
0.0
  0
SPLINE
  5
15e
100
AcDbEntity
  8
case
 62
1
100
AcDbSpline
 70
8
 71
3
 72
8
 73
4
 74
0
 40
0
 40
0
 40
0
 40
0
 40
1
 40
1
 40
1
 40
1
 10
51.201790
 20
15.836948
 30
0.0
 10
51.201790
 20
15.473236
 30
0.0
 10
50.769619
 20
15.204062
 30
0.0
 10
50.769619
 20
14.840350
 30
0.0
  0
SPLINE
  5
15f
100
AcDbEntity
  8
case
 62
1
100
AcDbSpline
 70
8
 71
3
 72
8
 73
4
 74
0
 40
0
 40
0
 40
0
 40
0
 40
1
 40
1
 40
1
 40
1
 10
50.769619
 20
14.840350
 30
0.0
 10
50.769619
 20
14.476638
 30
0.0
 10
51.201790
 20
14.198646
 30
0.0
 10
51.201790
 20
13.834934
 30
0.0
  0
SPLINE
  5
160
100
AcDbEntity
  8
case
 62
1
100
AcDbSpline
 70
8
 71
3
 72
8
 73
4
 74
0
 40
0
 40
0
 40
0
 40
0
 40
1
 40
1
 40
1
 40
1
 10
51.201790
 20
13.834934
 30
0.0
 10
51.201790
 20
13.471221
 30
0.0
 10
50.769619
 20
13.193229
 30
0.0
 10
50.769619
 20
12.829517
 30
0.0
  0
SPLINE
  5
161
100
AcDbEntity
  8
case
 62
1
100
AcDbSpline
 70
8
 71
3
 72
8
 73
4
 74
0
 40
0
 40
0
 40
0
 40
0
 40
1
 40
1
 40
1
 40
1
 10
50.769619
 20
12.829517
 30
0.0
 10
50.769619
 20
12.699207
 30
0.0
 10
50.801237
 20
12.580835
 30
0.0
 10
50.848994
 20
12.467919
 30
0.0
  0
SPLINE
  5
162
100
AcDbEntity
  8
case
 62
1
100
AcDbSpline
 70
8
 71
3
 72
8
 73
4
 74
0
 40
0
 40
0
 40
0
 40
0
 40
1
 40
1
 40
1
 40
1
 10
50.848994
 20
12.467919
 30
0.0
 10
50.896752
 20
12.355005
 30
0.0
 10
50.957632
 20
12.253456
 30
0.0
 10
51.043040
 20
12.168059
 30
0.0
  0
SPLINE
  5
163
100
AcDbEntity
  8
case
 62
1
100
AcDbSpline
 70
8
 71
3
 72
8
 73
4
 74
0
 40
0
 40
0
 40
0
 40
0
 40
1
 40
1
 40
1
 40
1
 10
51.043040
 20
12.168059
 30
0.0
 10
51.128421
 20
12.082662
 30
0.0
 10
51.229968
 20
12.012968
 30
0.0
 10
51.342892
 20
11.965211
 30
0.0
  0
SPLINE
  5
164
100
AcDbEntity
  8
case
 62
1
100
AcDbSpline
 70
8
 71
3
 72
8
 73
4
 74
0
 40
0
 40
0
 40
0
 40
0
 40
1
 40
1
 40
1
 40
1
 10
51.342892
 20
11.965211
 30
0.0
 10
51.455790
 20
11.917453
 30
0.0
 10
51.583002
 20
11.885836
 30
0.0
 10
51.713309
 20
11.885836
 30
0.0
  0
LWPOLYLINE
  5
165
100
AcDbEntity
  8
case
 62
1
100
AcDbPolyline
 90
2
 70
0
 10
50.769619
 20
148.353014
 30
0.0
 10
50.769619
 20
20.846392
 30
0.0
  0
SPLINE
  5
166
100
AcDbEntity
  8
case
 62
1
100
AcDbSpline
 70
8
 71
3
 72
8
 73
4
 74
0
 40
0
 40
0
 40
0
 40
0
 40
1
 40
1
 40
1
 40
1
 10
51.783873
 20
8.887225
 30
0.0
 10
51.783873
 20
8.077629
 30
0.0
 10
52.445914
 20
7.423198
 30
0.0
 10
53.265540
 20
7.423198
 30
0.0
  0
SPLINE
  5
167
100
AcDbEntity
  8
case
 62
1
100
AcDbSpline
 70
8
 71
3
 72
8
 73
4
 74
0
 40
0
 40
0
 40
0
 40
0
 40
1
 40
1
 40
1
 40
1
 10
53.265540
 20
7.423198
 30
0.0
 10
54.085140
 20
7.423198
 30
0.0
 10
54.747206
 20
8.077629
 30
0.0
 10
54.747206
 20
8.887225
 30
0.0
  0
SPLINE
  5
168
100
AcDbEntity
  8
case
 62
1
100
AcDbSpline
 70
8
 71
3
 72
8
 73
4
 74
0
 40
0
 40
0
 40
0
 40
0
 40
1
 40
1
 40
1
 40
1
 10
54.747206
 20
8.887225
 30
0.0
 10
54.747206
 20
8.887225
 30
0.0
 10
54.787264
 20
10.747410
 30
0.0
 10
54.579619
 20
12.326809
 30
0.0
  0
SPLINE
  5
169
100
AcDbEntity
  8
case
 62
1
100
AcDbSpline
 70
8
 71
3
 72
8
 73
4
 74
0
 40
0
 40
0
 40
0
 40
0
 40
1
 40
1
 40
1
 40
1
 10
54.579619
 20
12.326809
 30
0.0
 10
54.372001
 20
13.906204
 30
0.0
 10
53.269244
 20
17.424528
 30
0.0
 10
53.036225
 20
19.197157
 30
0.0
  0
SPLINE
  5
16a
100
AcDbEntity
  8
case
 62
1
100
AcDbSpline
 70
8
 71
3
 72
8
 73
4
 74
0
 40
0
 40
0
 40
0
 40
0
 40
1
 40
1
 40
1
 40
1
 10
53.036225
 20
19.197157
 30
0.0
 10
52.803154
 20
20.969783
 30
0.0
 10
52.780453
 20
23.853823
 30
0.0
 10
52.780453
 20
23.853823
 30
0.0
  0
SPLINE
  5
16b
100
AcDbEntity
  8
case
 62
1
100
AcDbSpline
 70
8
 71
3
 72
8
 73
4
 74
0
 40
0
 40
0
 40
0
 40
0
 40
1
 40
1
 40
1
 40
1
 10
52.780453
 20
23.853823
 30
0.0
 10
52.780453
 20
24.129016
 30
0.0
 10
53.015429
 20
24.356532
 30
0.0
 10
53.300809
 20
24.356532
 30
0.0
  0
SPLINE
  5
16c
100
AcDbEntity
  8
case
 62
1
100
AcDbSpline
 70
8
 71
3
 72
8
 73
4
 74
0
 40
0
 40
0
 40
0
 40
0
 40
1
 40
1
 40
1
 40
1
 10
53.300809
 20
24.356532
 30
0.0
 10
53.586188
 20
24.356532
 30
0.0
 10
53.812328
 20
24.129016
 30
0.0
 10
53.812328
 20
23.853823
 30
0.0
  0
SPLINE
  5
16d
100
AcDbEntity
  8
case
 62
1
100
AcDbSpline
 70
8
 71
3
 72
8
 73
4
 74
0
 40
0
 40
0
 40
0
 40
0
 40
1
 40
1
 40
1
 40
1
 10
53.812328
 20
23.853823
 30
0.0
 10
53.812328
 20
23.853823
 30
0.0
 10
53.835876
 20
20.998657
 30
0.0
 10
54.068100
 20
19.232434
 30
0.0
  0
SPLINE
  5
16e
100
AcDbEntity
  8
case
 62
1
100
AcDbSpline
 70
8
 71
3
 72
8
 73
4
 74
0
 40
0
 40
0
 40
0
 40
0
 40
1
 40
1
 40
1
 40
1
 10
54.068100
 20
19.232434
 30
0.0
 10
54.300299
 20
17.466210
 30
0.0
 10
55.394324
 20
13.947128
 30
0.0
 10
55.602684
 20
12.362086
 30
0.0
  0
SPLINE
  5
16f
100
AcDbEntity
  8
case
 62
1
100
AcDbSpline
 70
8
 71
3
 72
8
 73
4
 74
0
 40
0
 40
0
 40
0
 40
0
 40
1
 40
1
 40
1
 40
1
 10
55.602684
 20
12.362086
 30
0.0
 10
55.758947
 20
11.173305
 30
0.0
 10
55.786887
 20
9.820035
 30
0.0
 10
55.787892
 20
9.213544
 30
0.0
  0
SPLINE
  5
170
100
AcDbEntity
  8
case
 62
1
100
AcDbSpline
 70
8
 71
3
 72
8
 73
4
 74
0
 40
0
 40
0
 40
0
 40
0
 40
1
 40
1
 40
1
 40
1
 10
55.787892
 20
9.213544
 30
0.0
 10
55.787892
 20
9.011381
 30
0.0
 10
55.779161
 20
8.887225
 30
0.0
 10
55.779161
 20
8.887225
 30
0.0
  0
LWPOLYLINE
  5
171
100
AcDbEntity
  8
case
 62
1
100
AcDbPolyline
 90
4
 70
0
 10
51.713309
 20
11.885836
 30
0.0
 10
52.780453
 20
11.885836
 30
0.0
 10
52.780453
 20
8.887225
 30
0.0
 10
51.783873
 20
8.887225
 30
0.0
  0
SPLINE
  5
172
100
AcDbEntity
  8
case
 62
1
100
AcDbSpline
 70
8
 71
3
 72
8
 73
4
 74
0
 40
0
 40
0
 40
0
 40
0
 40
1
 40
1
 40
1
 40
1
 10
61.838119
 20
8.887225
 30
0.0
 10
61.968426
 20
8.887225
 30
0.0
 10
62.086801
 20
8.918843
 30
0.0
 10
62.199725
 20
8.966600
 30
0.0
  0
SPLINE
  5
173
100
AcDbEntity
  8
case
 62
1
100
AcDbSpline
 70
8
 71
3
 72
8
 73
4
 74
0
 40
0
 40
0
 40
0
 40
0
 40
1
 40
1
 40
1
 40
1
 10
62.199725
 20
8.966600
 30
0.0
 10
62.312623
 20
9.014358
 30
0.0
 10
62.414170
 20
9.084049
 30
0.0
 10
62.499577
 20
9.169448
 30
0.0
  0
SPLINE
  5
174
100
AcDbEntity
  8
case
 62
1
100
AcDbSpline
 70
8
 71
3
 72
8
 73
4
 74
0
 40
0
 40
0
 40
0
 40
0
 40
1
 40
1
 40
1
 40
1
 10
62.499577
 20
9.169448
 30
0.0
 10
62.584985
 20
9.254845
 30
0.0
 10
62.654676
 20
9.356395
 30
0.0
 10
62.702433
 20
9.469309
 30
0.0
  0
SPLINE
  5
175
100
AcDbEntity
  8
case
 62
1
100
AcDbSpline
 70
8
 71
3
 72
8
 73
4
 74
0
 40
0
 40
0
 40
0
 40
0
 40
1
 40
1
 40
1
 40
1
 10
62.702433
 20
9.469309
 30
0.0
 10
62.750191
 20
9.582222
 30
0.0
 10
62.781808
 20
9.700594
 30
0.0
 10
62.781808
 20
9.830907
 30
0.0
  0
LWPOLYLINE
  5
176
100
AcDbEntity
  8
case
 62
1
100
AcDbPolyline
 90
2
 70
0
 10
55.779161
 20
8.887225
 30
0.0
 10
61.838119
 20
8.887225
 30
0.0
  0
SPLINE
  5
177
100
AcDbEntity
  8
case
 62
1
100
AcDbSpline
 70
8
 71
3
 72
8
 73
4
 74
0
 40
0
 40
0
 40
0
 40
0
 40
1
 40
1
 40
1
 40
1
 10
72.738952
 20
9.830907
 30
0.0
 10
72.738952
 20
9.700594
 30
0.0
 10
72.761706
 20
9.582222
 30
0.0
 10
72.809517
 20
9.469309
 30
0.0
  0
SPLINE
  5
178
100
AcDbEntity
  8
case
 62
1
100
AcDbSpline
 70
8
 71
3
 72
8
 73
4
 74
0
 40
0
 40
0
 40
0
 40
0
 40
1
 40
1
 40
1
 40
1
 10
72.809517
 20
9.469309
 30
0.0
 10
72.857274
 20
9.356395
 30
0.0
 10
72.926965
 20
9.254845
 30
0.0
 10
73.012346
 20
9.169448
 30
0.0
  0
SPLINE
  5
179
100
AcDbEntity
  8
case
 62
1
100
AcDbSpline
 70
8
 71
3
 72
8
 73
4
 74
0
 40
0
 40
0
 40
0
 40
0
 40
1
 40
1
 40
1
 40
1
 10
73.012346
 20
9.169448
 30
0.0
 10
73.097754
 20
9.084049
 30
0.0
 10
73.199301
 20
9.014358
 30
0.0
 10
73.312225
 20
8.966600
 30
0.0
  0
SPLINE
  5
17a
100
AcDbEntity
  8
case
 62
1
100
AcDbSpline
 70
8
 71
3
 72
8
 73
4
 74
0
 40
0
 40
0
 40
0
 40
0
 40
1
 40
1
 40
1
 40
1
 10
73.312225
 20
8.966600
 30
0.0
 10
73.425123
 20
8.918843
 30
0.0
 10
73.552334
 20
8.887225
 30
0.0
 10
73.682642
 20
8.887225
 30
0.0
  0
LWPOLYLINE
  5
17b
100
AcDbEntity
  8
case
 62
1
100
AcDbPolyline
 90
4
 70
0
 10
62.781808
 20
9.830907
 30
0.0
 10
62.781808
 20
11.885836
 30
0.0
 10
72.738952
 20
11.885836
 30
0.0
 10
72.738952
 20
9.830907
 30
0.0
  0
SPLINE
  5
17c
100
AcDbEntity
  8
case
 62
1
100
AcDbSpline
 70
8
 71
3
 72
8
 73
4
 74
0
 40
0
 40
0
 40
0
 40
0
 40
1
 40
1
 40
1
 40
1
 10
80.764638
 20
8.887225
 30
0.0
 10
80.764638
 20
8.077629
 30
0.0
 10
81.435515
 20
7.423198
 30
0.0
 10
82.255142
 20
7.423198
 30
0.0
  0
SPLINE
  5
17d
100
AcDbEntity
  8
case
 62
1
100
AcDbSpline
 70
8
 71
3
 72
8
 73
4
 74
0
 40
0
 40
0
 40
0
 40
0
 40
1
 40
1
 40
1
 40
1
 10
82.255142
 20
7.423198
 30
0.0
 10
83.074768
 20
7.423198
 30
0.0
 10
83.736808
 20
8.077629
 30
0.0
 10
83.736808
 20
8.887225
 30
0.0
  0
LWPOLYLINE
  5
17e
100
AcDbEntity
  8
case
 62
1
100
AcDbPolyline
 90
2
 70
0
 10
73.682642
 20
8.887225
 30
0.0
 10
80.764638
 20
8.887225
 30
0.0
  0
SPLINE
  5
17f
100
AcDbEntity
  8
case
 62
1
100
AcDbSpline
 70
8
 71
3
 72
8
 73
4
 74
0
 40
0
 40
0
 40
0
 40
0
 40
1
 40
1
 40
1
 40
1
 10
83.789725
 20
11.885836
 30
0.0
 10
83.920032
 20
11.885836
 30
0.0
 10
84.047217
 20
11.917453
 30
0.0
 10
84.160142
 20
11.965211
 30
0.0
  0
SPLINE
  5
180
100
AcDbEntity
  8
case
 62
1
100
AcDbSpline
 70
8
 71
3
 72
8
 73
4
 74
0
 40
0
 40
0
 40
0
 40
0
 40
1
 40
1
 40
1
 40
1
 10
84.160142
 20
11.965211
 30
0.0
 10
84.273039
 20
12.012968
 30
0.0
 10
84.374613
 20
12.082662
 30
0.0
 10
84.459994
 20
12.168059
 30
0.0
  0
SPLINE
  5
181
100
AcDbEntity
  8
case
 62
1
100
AcDbSpline
 70
8
 71
3
 72
8
 73
4
 74
0
 40
0
 40
0
 40
0
 40
0
 40
1
 40
1
 40
1
 40
1
 10
84.459994
 20
12.168059
 30
0.0
 10
84.545401
 20
12.253456
 30
0.0
 10
84.615093
 20
12.355005
 30
0.0
 10
84.662850
 20
12.467919
 30
0.0
  0
SPLINE
  5
182
100
AcDbEntity
  8
case
 62
1
100
AcDbSpline
 70
8
 71
3
 72
8
 73
4
 74
0
 40
0
 40
0
 40
0
 40
0
 40
1
 40
1
 40
1
 40
1
 10
84.662850
 20
12.467919
 30
0.0
 10
84.710607
 20
12.580835
 30
0.0
 10
84.733388
 20
12.699207
 30
0.0
 10
84.733388
 20
12.829517
 30
0.0
  0
LWPOLYLINE
  5
183
100
AcDbEntity
  8
case
 62
1
100
AcDbPolyline
 90
4
 70
0
 10
83.736808
 20
8.887225
 30
0.0
 10
82.740202
 20
8.887225
 30
0.0
 10
82.740202
 20
11.885836
 30
0.0
 10
83.789725
 20
11.885836
 30
0.0
  0
LWPOLYLINE
  5
184
100
AcDbEntity
  8
case
 62
1
100
AcDbPolyline
 90
3
 70
0
 10
84.733388
 20
12.829517
 30
0.0
 10
84.733388
 20
156.369889
 30
0.0
 10
84.733308
 20
156.369889
 30
0.0
  0
LWPOLYLINE
  5
185
100
AcDbEntity
  8
case
 62
1
100
AcDbPolyline
 90
4
 70
1
 10
82.731286
 20
142.091208
 30
0.0
 10
82.731286
 20
132.089958
 30
0.0
 10
79.732683
 20
132.089958
 30
0.0
 10
79.732683
 20
142.091208
 30
0.0
  0
SPLINE
  5
186
100
AcDbEntity
  8
case
 62
1
100
AcDbSpline
 70
8
 71
3
 72
8
 73
4
 74
0
 40
0
 40
0
 40
0
 40
0
 40
1
 40
1
 40
1
 40
1
 10
69.078786
 20
43.432990
 30
0.0
 10
69.078786
 20
40.141285
 30
0.0
 10
66.408558
 20
37.471044
 30
0.0
 10
63.116850
 20
37.471044
 30
0.0
  0
SPLINE
  5
187
100
AcDbEntity
  8
case
 62
1
100
AcDbSpline
 70
8
 71
3
 72
8
 73
4
 74
0
 40
0
 40
0
 40
0
 40
0
 40
1
 40
1
 40
1
 40
1
 10
63.116850
 20
37.471044
 30
0.0
 10
59.825143
 20
37.471044
 30
0.0
 10
57.154915
 20
40.141285
 30
0.0
 10
57.154915
 20
43.432990
 30
0.0
  0
SPLINE
  5
188
100
AcDbEntity
  8
case
 62
1
100
AcDbSpline
 70
8
 71
3
 72
8
 73
4
 74
0
 40
0
 40
0
 40
0
 40
0
 40
1
 40
1
 40
1
 40
1
 10
57.154915
 20
43.432990
 30
0.0
 10
57.154915
 20
46.724692
 30
0.0
 10
59.825143
 20
49.394933
 30
0.0
 10
63.116850
 20
49.394933
 30
0.0
  0
SPLINE
  5
189
100
AcDbEntity
  8
case
 62
1
100
AcDbSpline
 70
8
 71
3
 72
8
 73
4
 74
0
 40
0
 40
0
 40
0
 40
0
 40
1
 40
1
 40
1
 40
1
 10
63.116850
 20
49.394933
 30
0.0
 10
66.408558
 20
49.394933
 30
0.0
 10
69.078786
 20
46.724692
 30
0.0
 10
69.078786
 20
43.432990
 30
0.0
  0
LWPOLYLINE
  5
18a
100
AcDbEntity
  8
case
 62
1
100
AcDbPolyline
 90
4
 70
1
 10
82.731286
 20
37.118267
 30
0.0
 10
82.731286
 20
27.117017
 30
0.0
 10
79.732683
 20
27.117017
 30
0.0
 10
79.732683
 20
37.118267
 30
0.0
  0
SPLINE
  5
18b
100
AcDbEntity
  8
case
 62
1
100
AcDbSpline
 70
8
 71
3
 72
8
 73
4
 74
0
 40
0
 40
0
 40
0
 40
0
 40
1
 40
1
 40
1
 40
1
 10
67.103248
 20
72.942850
 30
0.0
 10
67.103248
 20
67.974562
 30
0.0
 10
67.094517
 20
62.441831
 30
0.0
 10
67.094517
 20
57.473543
 30
0.0
  0
SPLINE
  5
18c
100
AcDbEntity
  8
case
 62
1
100
AcDbSpline
 70
8
 71
3
 72
8
 73
4
 74
0
 40
0
 40
0
 40
0
 40
0
 40
1
 40
1
 40
1
 40
1
 10
67.094517
 20
57.473543
 30
0.0
 10
67.094517
 20
57.266930
 30
0.0
 10
66.930713
 20
57.103127
 30
0.0
 10
66.724100
 20
57.103127
 30
0.0
  0
LWPOLYLINE
  5
18d
100
AcDbEntity
  8
case
 62
1
100
AcDbPolyline
 90
1
 70
1
 10
69.078786
 20
43.432990
 30
0.0
  0
SPLINE
  5
18e
100
AcDbEntity
  8
case
 62
1
100
AcDbSpline
 70
8
 71
3
 72
8
 73
4
 74
0
 40
0
 40
0
 40
0
 40
0
 40
1
 40
1
 40
1
 40
1
 10
62.561305
 20
57.103127
 30
0.0
 10
62.354692
 20
57.103127
 30
0.0
 10
60.559176
 20
59.462972
 30
0.0
 10
60.559308
 20
59.669585
 30
0.0
  0
LWPOLYLINE
  5
18f
100
AcDbEntity
  8
case
 62
1
100
AcDbPolyline
 90
2
 70
0
 10
66.724100
 20
57.103127
 30
0.0
 10
62.561305
 20
57.103127
 30
0.0
  0
SPLINE
  5
190
100
AcDbEntity
  8
case
 62
1
100
AcDbSpline
 70
8
 71
3
 72
8
 73
4
 74
0
 40
0
 40
0
 40
0
 40
0
 40
1
 40
1
 40
1
 40
1
 10
60.568040
 20
70.755626
 30
0.0
 10
60.568146
 20
70.962271
 30
0.0
 10
62.354586
 20
73.322085
 30
0.0
 10
62.561225
 20
73.322085
 30
0.0
  0
LWPOLYLINE
  5
191
100
AcDbEntity
  8
case
 62
1
100
AcDbPolyline
 90
2
 70
0
 10
60.559308
 20
59.669585
 30
0.0
 10
60.568040
 20
70.755626
 30
0.0
  0
SPLINE
  5
192
100
AcDbEntity
  8
case
 62
1
100
AcDbSpline
 70
8
 71
3
 72
8
 73
4
 74
0
 40
0
 40
0
 40
0
 40
0
 40
1
 40
1
 40
1
 40
1
 10
66.732831
 20
73.322085
 30
0.0
 10
66.940476
 20
73.322085
 30
0.0
 10
67.103248
 20
73.150502
 30
0.0
 10
67.103248
 20
72.942850
 30
0.0
  0
LWPOLYLINE
  5
193
100
AcDbEntity
  8
case
 62
1
100
AcDbPolyline
 90
2
 70
0
 10
62.561225
 20
73.322085
 30
0.0
 10
66.732831
 20
73.322085
 30
0.0
  0
LWPOLYLINE
  5
194
100
AcDbEntity
  8
case
 62
1
100
AcDbPolyline
 90
1
 70
1
 10
67.103248
 20
72.942850
 30
0.0
  0
SPLINE
  5
195
100
AcDbEntity
  8
case
 62
1
100
AcDbSpline
 70
8
 71
3
 72
8
 73
4
 74
0
 40
0
 40
0
 40
0
 40
0
 40
1
 40
1
 40
1
 40
1
 10
66.071373
 20
81.189031
 30
0.0
 10
66.071373
 20
80.912028
 30
0.0
 10
65.845657
 20
80.686323
 30
0.0
 10
65.568665
 20
80.686323
 30
0.0
  0
LWPOLYLINE
  5
196
100
AcDbEntity
  8
case
 62
1
100
AcDbPolyline
 90
2
 70
0
 10
66.071373
 20
92.125141
 30
0.0
 10
66.071373
 20
81.189031
 30
0.0
  0
SPLINE
  5
197
100
AcDbEntity
  8
case
 62
1
100
AcDbSpline
 70
8
 71
3
 72
8
 73
4
 74
0
 40
0
 40
0
 40
0
 40
0
 40
1
 40
1
 40
1
 40
1
 10
57.631165
 20
80.686323
 30
0.0
 10
57.354146
 20
80.686323
 30
0.0
 10
57.128456
 20
80.912028
 30
0.0
 10
57.128456
 20
81.189031
 30
0.0
  0
LWPOLYLINE
  5
198
100
AcDbEntity
  8
case
 62
1
100
AcDbPolyline
 90
2
 70
0
 10
65.568665
 20
80.686323
 30
0.0
 10
57.631165
 20
80.686323
 30
0.0
  0
SPLINE
  5
199
100
AcDbEntity
  8
case
 62
1
100
AcDbSpline
 70
8
 71
3
 72
8
 73
4
 74
0
 40
0
 40
0
 40
0
 40
0
 40
1
 40
1
 40
1
 40
1
 10
57.128456
 20
92.125141
 30
0.0
 10
57.128456
 20
92.402141
 30
0.0
 10
57.354146
 20
92.619031
 30
0.0
 10
57.631165
 20
92.619031
 30
0.0
  0
LWPOLYLINE
  5
19a
100
AcDbEntity
  8
case
 62
1
100
AcDbPolyline
 90
2
 70
0
 10
57.128456
 20
81.189031
 30
0.0
 10
57.128456
 20
92.125141
 30
0.0
  0
SPLINE
  5
19b
100
AcDbEntity
  8
case
 62
1
100
AcDbSpline
 70
8
 71
3
 72
8
 73
4
 74
0
 40
0
 40
0
 40
0
 40
0
 40
1
 40
1
 40
1
 40
1
 10
65.568665
 20
92.619031
 30
0.0
 10
65.845657
 20
92.619031
 30
0.0
 10
66.071373
 20
92.402141
 30
0.0
 10
66.071373
 20
92.125141
 30
0.0
  0
LWPOLYLINE
  5
19c
100
AcDbEntity
  8
case
 62
1
100
AcDbPolyline
 90
2
 70
0
 10
57.631165
 20
92.619031
 30
0.0
 10
65.568665
 20
92.619031
 30
0.0
  0
LWPOLYLINE
  5
19d
100
AcDbEntity
  8
case
 62
1
100
AcDbPolyline
 90
1
 70
1
 10
66.071373
 20
92.125141
 30
0.0
  0
LWPOLYLINE
  5
19e
100
AcDbEntity
  8
case
 62
1
100
AcDbPolyline
 90
4
 70
1
 10
55.770244
 20
142.091208
 30
0.0
 10
55.770244
 20
132.089958
 30
0.0
 10
52.771642
 20
132.089958
 30
0.0
 10
52.771642
 20
142.091208
 30
0.0
  0
LWPOLYLINE
  5
19f
100
AcDbEntity
  8
case
 62
1
100
AcDbPolyline
 90
4
 70
1
 10
55.770244
 20
37.118267
 30
0.0
 10
55.770244
 20
27.117017
 30
0.0
 10
52.771642
 20
27.117017
 30
0.0
 10
52.771642
 20
37.118267
 30
0.0
  0
LWPOLYLINE
  5
1a0
100
AcDbEntity
  8
case
 62
1
100
AcDbPolyline
 90
4
 70
1
 10
82.731286
 20
89.174542
 30
0.0
 10
82.731286
 20
79.173292
 30
0.0
 10
79.732683
 20
79.173292
 30
0.0
 10
79.732683
 20
89.174542
 30
0.0
  0
LWPOLYLINE
  5
1a1
100
AcDbEntity
  8
case
 62
1
100
AcDbPolyline
 90
4
 70
1
 10
55.770244
 20
89.174542
 30
0.0
 10
55.770244
 20
79.173292
 30
0.0
 10
52.771642
 20
79.173292
 30
0.0
 10
52.771642
 20
89.174542
 30
0.0
  0
LWPOLYLINE
  5
1a2
100
AcDbEntity
  8
case
 62
1
100
AcDbPolyline
 90
4
 70
1
 10
194.546416
 20
89.174542
 30
0.0
 10
194.546416
 20
79.173292
 30
0.0
 10
191.547805
 20
79.173292
 30
0.0
 10
191.547805
 20
89.174542
 30
0.0
  0
SPLINE
  5
1a3
100
AcDbEntity
  8
case
 62
1
100
AcDbSpline
 70
8
 71
3
 72
8
 73
4
 74
0
 40
0
 40
0
 40
0
 40
0
 40
1
 40
1
 40
1
 40
1
 10
162.554560
 20
156.369802
 30
0.0
 10
162.554560
 20
156.500112
 30
0.0
 10
162.586178
 20
156.627302
 30
0.0
 10
162.633935
 20
156.740219
 30
0.0
  0
SPLINE
  5
1a4
100
AcDbEntity
  8
case
 62
1
100
AcDbSpline
 70
8
 71
3
 72
8
 73
4
 74
0
 40
0
 40
0
 40
0
 40
0
 40
1
 40
1
 40
1
 40
1
 10
162.633935
 20
156.740219
 30
0.0
 10
162.681693
 20
156.853132
 30
0.0
 10
162.751389
 20
156.954682
 30
0.0
 10
162.836783
 20
157.040079
 30
0.0
  0
SPLINE
  5
1a5
100
AcDbEntity
  8
case
 62
1
100
AcDbSpline
 70
8
 71
3
 72
8
 73
4
 74
0
 40
0
 40
0
 40
0
 40
0
 40
1
 40
1
 40
1
 40
1
 10
162.836783
 20
157.040079
 30
0.0
 10
162.922178
 20
157.125476
 30
0.0
 10
163.023730
 20
157.195167
 30
0.0
 10
163.136644
 20
157.242927
 30
0.0
  0
SPLINE
  5
1a6
100
AcDbEntity
  8
case
 62
1
100
AcDbSpline
 70
8
 71
3
 72
8
 73
4
 74
0
 40
0
 40
0
 40
0
 40
0
 40
1
 40
1
 40
1
 40
1
 10
163.136644
 20
157.242927
 30
0.0
 10
163.249560
 20
157.290684
 30
0.0
 10
163.368120
 20
157.320495
 30
0.0
 10
163.498242
 20
157.313481
 30
0.0
  0
LWPOLYLINE
  5
1a7
100
AcDbEntity
  8
case
 62
1
100
AcDbPolyline
 90
4
 70
1
 10
167.585369
 20
89.174542
 30
0.0
 10
167.585369
 20
79.173292
 30
0.0
 10
164.586767
 20
79.173292
 30
0.0
 10
164.586767
 20
89.174542
 30
0.0
  0
SPLINE
  5
1a8
100
AcDbEntity
  8
case
 62
1
100
AcDbSpline
 70
8
 71
3
 72
8
 73
4
 74
0
 40
0
 40
0
 40
0
 40
0
 40
1
 40
1
 40
1
 40
1
 10
163.568798
 20
160.312094
 30
0.0
 10
163.568798
 20
161.121690
 30
0.0
 10
164.230839
 20
161.776121
 30
0.0
 10
165.050465
 20
161.776121
 30
0.0
  0
SPLINE
  5
1a9
100
AcDbEntity
  8
case
 62
1
100
AcDbSpline
 70
8
 71
3
 72
8
 73
4
 74
0
 40
0
 40
0
 40
0
 40
0
 40
1
 40
1
 40
1
 40
1
 10
165.050465
 20
161.776121
 30
0.0
 10
165.870088
 20
161.776121
 30
0.0
 10
166.532131
 20
161.121690
 30
0.0
 10
166.532131
 20
160.312094
 30
0.0
  0
LWPOLYLINE
  5
1aa
100
AcDbEntity
  8
case
 62
1
100
AcDbPolyline
 90
4
 70
0
 10
163.498242
 20
157.313481
 30
0.0
 10
164.565394
 20
157.313481
 30
0.0
 10
164.565394
 20
160.312094
 30
0.0
 10
163.568798
 20
160.312094
 30
0.0
  0
SPLINE
  5
1ab
100
AcDbEntity
  8
case
 62
1
100
AcDbSpline
 70
8
 71
3
 72
8
 73
4
 74
0
 40
0
 40
0
 40
0
 40
0
 40
1
 40
1
 40
1
 40
1
 10
173.622965
 20
160.312094
 30
0.0
 10
173.753275
 20
160.312094
 30
0.0
 10
173.880465
 20
160.289287
 30
0.0
 10
173.993381
 20
160.241537
 30
0.0
  0
SPLINE
  5
1ac
100
AcDbEntity
  8
case
 62
1
100
AcDbSpline
 70
8
 71
3
 72
8
 73
4
 74
0
 40
0
 40
0
 40
0
 40
0
 40
1
 40
1
 40
1
 40
1
 10
173.993381
 20
160.241537
 30
0.0
 10
174.106295
 20
160.193780
 30
0.0
 10
174.207845
 20
160.124086
 30
0.0
 10
174.293242
 20
160.038689
 30
0.0
  0
SPLINE
  5
1ad
100
AcDbEntity
  8
case
 62
1
100
AcDbSpline
 70
8
 71
3
 72
8
 73
4
 74
0
 40
0
 40
0
 40
0
 40
0
 40
1
 40
1
 40
1
 40
1
 10
174.293242
 20
160.038689
 30
0.0
 10
174.378639
 20
159.953292
 30
0.0
 10
174.448332
 20
159.851742
 30
0.0
 10
174.496090
 20
159.738829
 30
0.0
  0
SPLINE
  5
1ae
100
AcDbEntity
  8
case
 62
1
100
AcDbSpline
 70
8
 71
3
 72
8
 73
4
 74
0
 40
0
 40
0
 40
0
 40
0
 40
1
 40
1
 40
1
 40
1
 10
174.496090
 20
159.738829
 30
0.0
 10
174.543847
 20
159.625915
 30
0.0
 10
174.566643
 20
159.498722
 30
0.0
 10
174.566643
 20
159.368412
 30
0.0
  0
LWPOLYLINE
  5
1af
100
AcDbEntity
  8
case
 62
1
100
AcDbPolyline
 90
2
 70
0
 10
166.532131
 20
160.312094
 30
0.0
 10
173.622965
 20
160.312094
 30
0.0
  0
SPLINE
  5
1b0
100
AcDbEntity
  8
case
 62
1
100
AcDbSpline
 70
8
 71
3
 72
8
 73
4
 74
0
 40
0
 40
0
 40
0
 40
0
 40
1
 40
1
 40
1
 40
1
 10
178.896992
 20
157.313481
 30
0.0
 10
179.027301
 20
157.313481
 30
0.0
 10
179.154495
 20
157.283146
 30
0.0
 10
179.267408
 20
157.234106
 30
0.0
  0
SPLINE
  5
1b1
100
AcDbEntity
  8
case
 62
1
100
AcDbSpline
 70
8
 71
3
 72
8
 73
4
 74
0
 40
0
 40
0
 40
0
 40
0
 40
1
 40
1
 40
1
 40
1
 10
179.267408
 20
157.234106
 30
0.0
 10
179.380322
 20
157.185068
 30
0.0
 10
179.481872
 20
157.118943
 30
0.0
 10
179.567268
 20
157.031260
 30
0.0
  0
SPLINE
  5
1b2
100
AcDbEntity
  8
case
 62
1
100
AcDbSpline
 70
8
 71
3
 72
8
 73
4
 74
0
 40
0
 40
0
 40
0
 40
0
 40
1
 40
1
 40
1
 40
1
 10
179.567268
 20
157.031260
 30
0.0
 10
179.652668
 20
156.943575
 30
0.0
 10
179.722359
 20
156.838517
 30
0.0
 10
179.770117
 20
156.722579
 30
0.0
  0
SPLINE
  5
1b3
100
AcDbEntity
  8
case
 62
1
100
AcDbSpline
 70
8
 71
3
 72
8
 73
4
 74
0
 40
0
 40
0
 40
0
 40
0
 40
1
 40
1
 40
1
 40
1
 10
179.770117
 20
156.722579
 30
0.0
 10
179.817874
 20
156.606641
 30
0.0
 10
179.840673
 20
156.477141
 30
0.0
 10
179.840673
 20
156.343344
 30
0.0
  0
LWPOLYLINE
  5
1b4
100
AcDbEntity
  8
case
 62
1
100
AcDbPolyline
 90
3
 70
0
 10
174.566643
 20
159.368412
 30
0.0
 10
174.566643
 20
157.313481
 30
0.0
 10
178.896992
 20
157.313481
 30
0.0
  0
SPLINE
  5
1b5
100
AcDbEntity
  8
case
 62
1
100
AcDbSpline
 70
8
 71
3
 72
8
 73
4
 74
0
 40
0
 40
0
 40
0
 40
0
 40
1
 40
1
 40
1
 40
1
 10
179.840673
 20
139.815704
 30
0.0
 10
179.840673
 20
139.542958
 30
0.0
 10
180.066378
 20
139.321814
 30
0.0
 10
180.343381
 20
139.321814
 30
0.0
  0
LWPOLYLINE
  5
1b6
100
AcDbEntity
  8
case
 62
1
100
AcDbPolyline
 90
2
 70
0
 10
179.840673
 20
156.343344
 30
0.0
 10
179.840673
 20
139.815704
 30
0.0
  0
SPLINE
  5
1b7
100
AcDbEntity
  8
case
 62
1
100
AcDbSpline
 70
8
 71
3
 72
8
 73
4
 74
0
 40
0
 40
0
 40
0
 40
0
 40
1
 40
1
 40
1
 40
1
 10
181.366435
 20
139.321814
 30
0.0
 10
181.643435
 20
139.321814
 30
0.0
 10
181.860325
 20
139.542958
 30
0.0
 10
181.860325
 20
139.815704
 30
0.0
  0
LWPOLYLINE
  5
1b8
100
AcDbEntity
  8
case
 62
1
100
AcDbPolyline
 90
2
 70
0
 10
180.343381
 20
139.321814
 30
0.0
 10
181.366435
 20
139.321814
 30
0.0
  0
SPLINE
  5
1b9
100
AcDbEntity
  8
case
 62
1
100
AcDbSpline
 70
8
 71
3
 72
8
 73
4
 74
0
 40
0
 40
0
 40
0
 40
0
 40
1
 40
1
 40
1
 40
1
 10
181.860325
 20
156.343344
 30
0.0
 10
181.860325
 20
156.477141
 30
0.0
 10
181.891943
 20
156.606641
 30
0.0
 10
181.939700
 20
156.722579
 30
0.0
  0
SPLINE
  5
1ba
100
AcDbEntity
  8
case
 62
1
100
AcDbSpline
 70
8
 71
3
 72
8
 73
4
 74
0
 40
0
 40
0
 40
0
 40
0
 40
1
 40
1
 40
1
 40
1
 10
181.939700
 20
156.722579
 30
0.0
 10
181.987457
 20
156.838517
 30
0.0
 10
182.057148
 20
156.943575
 30
0.0
 10
182.142548
 20
157.031260
 30
0.0
  0
SPLINE
  5
1bb
100
AcDbEntity
  8
case
 62
1
100
AcDbSpline
 70
8
 71
3
 72
8
 73
4
 74
0
 40
0
 40
0
 40
0
 40
0
 40
1
 40
1
 40
1
 40
1
 10
182.142548
 20
157.031260
 30
0.0
 10
182.227945
 20
157.118943
 30
0.0
 10
182.329495
 20
157.185068
 30
0.0
 10
182.442408
 20
157.234106
 30
0.0
  0
SPLINE
  5
1bc
100
AcDbEntity
  8
case
 62
1
100
AcDbSpline
 70
8
 71
3
 72
8
 73
4
 74
0
 40
0
 40
0
 40
0
 40
0
 40
1
 40
1
 40
1
 40
1
 10
182.442408
 20
157.234106
 30
0.0
 10
182.555322
 20
157.283146
 30
0.0
 10
182.673768
 20
157.317838
 30
0.0
 10
182.804006
 20
157.313481
 30
0.0
  0
LWPOLYLINE
  5
1bd
100
AcDbEntity
  8
case
 62
1
100
AcDbPolyline
 90
2
 70
0
 10
181.860325
 20
139.815704
 30
0.0
 10
181.860325
 20
156.343344
 30
0.0
  0
SPLINE
  5
1be
100
AcDbEntity
  8
case
 62
1
100
AcDbSpline
 70
8
 71
3
 72
8
 73
4
 74
0
 40
0
 40
0
 40
0
 40
0
 40
1
 40
1
 40
1
 40
1
 10
184.523798
 20
159.368412
 30
0.0
 10
184.523798
 20
159.498722
 30
0.0
 10
184.546605
 20
159.625915
 30
0.0
 10
184.594352
 20
159.738829
 30
0.0
  0
SPLINE
  5
1bf
100
AcDbEntity
  8
case
 62
1
100
AcDbSpline
 70
8
 71
3
 72
8
 73
4
 74
0
 40
0
 40
0
 40
0
 40
0
 40
1
 40
1
 40
1
 40
1
 10
184.594352
 20
159.738829
 30
0.0
 10
184.642109
 20
159.851742
 30
0.0
 10
184.711803
 20
159.953292
 30
0.0
 10
184.797200
 20
160.038689
 30
0.0
  0
SPLINE
  5
1c0
100
AcDbEntity
  8
case
 62
1
100
AcDbSpline
 70
8
 71
3
 72
8
 73
4
 74
0
 40
0
 40
0
 40
0
 40
0
 40
1
 40
1
 40
1
 40
1
 10
184.797200
 20
160.038689
 30
0.0
 10
184.882597
 20
160.124086
 30
0.0
 10
184.984146
 20
160.193780
 30
0.0
 10
185.097060
 20
160.241537
 30
0.0
  0
SPLINE
  5
1c1
100
AcDbEntity
  8
case
 62
1
100
AcDbSpline
 70
8
 71
3
 72
8
 73
4
 74
0
 40
0
 40
0
 40
0
 40
0
 40
1
 40
1
 40
1
 40
1
 10
185.097060
 20
160.241537
 30
0.0
 10
185.209976
 20
160.289294
 30
0.0
 10
185.337167
 20
160.312094
 30
0.0
 10
185.467477
 20
160.312094
 30
0.0
  0
LWPOLYLINE
  5
1c2
100
AcDbEntity
  8
case
 62
1
100
AcDbPolyline
 90
3
 70
0
 10
182.804006
 20
157.313481
 30
0.0
 10
184.523798
 20
157.313481
 30
0.0
 10
184.523798
 20
159.368412
 30
0.0
  0
SPLINE
  5
1c3
100
AcDbEntity
  8
case
 62
1
100
AcDbSpline
 70
8
 71
3
 72
8
 73
4
 74
0
 40
0
 40
0
 40
0
 40
0
 40
1
 40
1
 40
1
 40
1
 10
191.517616
 20
160.312094
 30
0.0
 10
191.517616
 20
160.312094
 30
0.0
 10
191.485636
 20
158.422273
 30
0.0
 10
191.694006
 20
156.837231
 30
0.0
  0
SPLINE
  5
1c4
100
AcDbEntity
  8
case
 62
1
100
AcDbSpline
 70
8
 71
3
 72
8
 73
4
 74
0
 40
0
 40
0
 40
0
 40
0
 40
1
 40
1
 40
1
 40
1
 10
191.694006
 20
156.837231
 30
0.0
 10
191.902379
 20
155.252189
 30
0.0
 10
193.005215
 20
151.741927
 30
0.0
 10
193.237408
 20
149.975704
 30
0.0
  0
SPLINE
  5
1c5
100
AcDbEntity
  8
case
 62
1
100
AcDbSpline
 70
8
 71
3
 72
8
 73
4
 74
0
 40
0
 40
0
 40
0
 40
0
 40
1
 40
1
 40
1
 40
1
 10
193.237408
 20
149.975704
 30
0.0
 10
193.469593
 20
148.209481
 30
0.0
 10
193.484352
 20
145.345496
 30
0.0
 10
193.484352
 20
145.345496
 30
0.0
  0
SPLINE
  5
1c6
100
AcDbEntity
  8
case
 62
1
100
AcDbSpline
 70
8
 71
3
 72
8
 73
4
 74
0
 40
0
 40
0
 40
0
 40
0
 40
1
 40
1
 40
1
 40
1
 10
193.484352
 20
145.345496
 30
0.0
 10
193.484352
 20
145.070300
 30
0.0
 10
193.719317
 20
144.851606
 30
0.0
 10
194.004700
 20
144.851606
 30
0.0
  0
SPLINE
  5
1c7
100
AcDbEntity
  8
case
 62
1
100
AcDbSpline
 70
8
 71
3
 72
8
 73
4
 74
0
 40
0
 40
0
 40
0
 40
0
 40
1
 40
1
 40
1
 40
1
 10
194.004700
 20
144.851606
 30
0.0
 10
194.290082
 20
144.851606
 30
0.0
 10
194.516227
 20
145.070300
 30
0.0
 10
194.516227
 20
145.345496
 30
0.0
  0
SPLINE
  5
1c8
100
AcDbEntity
  8
case
 62
1
100
AcDbSpline
 70
8
 71
3
 72
8
 73
4
 74
0
 40
0
 40
0
 40
0
 40
0
 40
1
 40
1
 40
1
 40
1
 10
194.516227
 20
145.345496
 30
0.0
 10
194.516227
 20
145.345496
 30
0.0
 10
194.502309
 20
148.238355
 30
0.0
 10
194.269283
 20
150.010981
 30
0.0
  0
SPLINE
  5
1c9
100
AcDbEntity
  8
case
 62
1
100
AcDbSpline
 70
8
 71
3
 72
8
 73
4
 74
0
 40
0
 40
0
 40
0
 40
0
 40
1
 40
1
 40
1
 40
1
 10
194.269283
 20
150.010981
 30
0.0
 10
194.036249
 20
151.783610
 30
0.0
 10
192.933510
 20
155.293115
 30
0.0
 10
192.725881
 20
156.872510
 30
0.0
  0
SPLINE
  5
1ca
100
AcDbEntity
  8
case
 62
1
100
AcDbSpline
 70
8
 71
3
 72
8
 73
4
 74
0
 40
0
 40
0
 40
0
 40
0
 40
1
 40
1
 40
1
 40
1
 10
192.725881
 20
156.872510
 30
0.0
 10
192.518249
 20
158.451906
 30
0.0
 10
192.549491
 20
160.312094
 30
0.0
 10
192.549491
 20
160.312094
 30
0.0
  0
SPLINE
  5
1cb
100
AcDbEntity
  8
case
 62
1
100
AcDbSpline
 70
8
 71
3
 72
8
 73
4
 74
0
 40
0
 40
0
 40
0
 40
0
 40
1
 40
1
 40
1
 40
1
 10
192.549491
 20
160.312094
 30
0.0
 10
192.549491
 20
161.121690
 30
0.0
 10
193.220353
 20
161.776121
 30
0.0
 10
194.039977
 20
161.776121
 30
0.0
  0
SPLINE
  5
1cc
100
AcDbEntity
  8
case
 62
1
100
AcDbSpline
 70
8
 71
3
 72
8
 73
4
 74
0
 40
0
 40
0
 40
0
 40
0
 40
1
 40
1
 40
1
 40
1
 10
194.039977
 20
161.776121
 30
0.0
 10
194.859603
 20
161.776121
 30
0.0
 10
195.521643
 20
161.121690
 30
0.0
 10
195.521643
 20
160.312094
 30
0.0
  0
LWPOLYLINE
  5
1cd
100
AcDbEntity
  8
case
 62
1
100
AcDbPolyline
 90
2
 70
0
 10
185.467477
 20
160.312094
 30
0.0
 10
191.517616
 20
160.312094
 30
0.0
  0
SPLINE
  5
1ce
100
AcDbEntity
  8
case
 62
1
100
AcDbSpline
 70
8
 71
3
 72
8
 73
4
 74
0
 40
0
 40
0
 40
0
 40
0
 40
1
 40
1
 40
1
 40
1
 10
195.574560
 20
157.313481
 30
0.0
 10
195.704872
 20
157.313481
 30
0.0
 10
195.832063
 20
157.290674
 30
0.0
 10
195.944977
 20
157.242927
 30
0.0
  0
SPLINE
  5
1cf
100
AcDbEntity
  8
case
 62
1
100
AcDbSpline
 70
8
 71
3
 72
8
 73
4
 74
0
 40
0
 40
0
 40
0
 40
0
 40
1
 40
1
 40
1
 40
1
 10
195.944977
 20
157.242927
 30
0.0
 10
196.057893
 20
157.195167
 30
0.0
 10
196.159440
 20
157.125476
 30
0.0
 10
196.244839
 20
157.040079
 30
0.0
  0
SPLINE
  5
1d0
100
AcDbEntity
  8
case
 62
1
100
AcDbSpline
 70
8
 71
3
 72
8
 73
4
 74
0
 40
0
 40
0
 40
0
 40
0
 40
1
 40
1
 40
1
 40
1
 10
196.244839
 20
157.040079
 30
0.0
 10
196.330236
 20
156.954682
 30
0.0
 10
196.399928
 20
156.853132
 30
0.0
 10
196.447685
 20
156.740219
 30
0.0
  0
SPLINE
  5
1d1
100
AcDbEntity
  8
case
 62
1
100
AcDbSpline
 70
8
 71
3
 72
8
 73
4
 74
0
 40
0
 40
0
 40
0
 40
0
 40
1
 40
1
 40
1
 40
1
 10
196.447685
 20
156.740219
 30
0.0
 10
196.495442
 20
156.627302
 30
0.0
 10
196.518241
 20
156.500112
 30
0.0
 10
196.518241
 20
156.369802
 30
0.0
  0
SPLINE
  5
1d2
100
AcDbEntity
  8
case
 62
1
100
AcDbSpline
 70
8
 71
3
 72
8
 73
4
 74
0
 40
0
 40
0
 40
0
 40
0
 40
1
 40
1
 40
1
 40
1
 10
196.518241
 20
156.369802
 30
0.0
 10
196.518241
 20
156.006090
 30
0.0
 10
196.086089
 20
155.728095
 30
0.0
 10
196.086089
 20
155.364385
 30
0.0
  0
SPLINE
  5
1d3
100
AcDbEntity
  8
case
 62
1
100
AcDbSpline
 70
8
 71
3
 72
8
 73
4
 74
0
 40
0
 40
0
 40
0
 40
0
 40
1
 40
1
 40
1
 40
1
 10
196.086089
 20
155.364385
 30
0.0
 10
196.086089
 20
155.000673
 30
0.0
 10
196.518241
 20
154.731497
 30
0.0
 10
196.518241
 20
154.367787
 30
0.0
  0
SPLINE
  5
1d4
100
AcDbEntity
  8
case
 62
1
100
AcDbSpline
 70
8
 71
3
 72
8
 73
4
 74
0
 40
0
 40
0
 40
0
 40
0
 40
1
 40
1
 40
1
 40
1
 10
196.518241
 20
154.367787
 30
0.0
 10
196.518241
 20
154.004073
 30
0.0
 10
196.086089
 20
153.726077
 30
0.0
 10
196.086089
 20
153.362371
 30
0.0
  0
SPLINE
  5
1d5
100
AcDbEntity
  8
case
 62
1
100
AcDbSpline
 70
8
 71
3
 72
8
 73
4
 74
0
 40
0
 40
0
 40
0
 40
0
 40
1
 40
1
 40
1
 40
1
 10
196.086089
 20
153.362371
 30
0.0
 10
196.086089
 20
152.998658
 30
0.0
 10
196.518241
 20
152.729485
 30
0.0
 10
196.518241
 20
152.365773
 30
0.0
  0
SPLINE
  5
1d6
100
AcDbEntity
  8
case
 62
1
100
AcDbSpline
 70
8
 71
3
 72
8
 73
4
 74
0
 40
0
 40
0
 40
0
 40
0
 40
1
 40
1
 40
1
 40
1
 10
196.518241
 20
152.365773
 30
0.0
 10
196.518241
 20
152.002063
 30
0.0
 10
196.086089
 20
151.724068
 30
0.0
 10
196.086089
 20
151.360356
 30
0.0
  0
SPLINE
  5
1d7
100
AcDbEntity
  8
case
 62
1
100
AcDbSpline
 70
8
 71
3
 72
8
 73
4
 74
0
 40
0
 40
0
 40
0
 40
0
 40
1
 40
1
 40
1
 40
1
 10
196.086089
 20
151.360356
 30
0.0
 10
196.086089
 20
150.996646
 30
0.0
 10
196.518241
 20
150.718651
 30
0.0
 10
196.518241
 20
150.354939
 30
0.0
  0
SPLINE
  5
1d8
100
AcDbEntity
  8
case
 62
1
100
AcDbSpline
 70
8
 71
3
 72
8
 73
4
 74
0
 40
0
 40
0
 40
0
 40
0
 40
1
 40
1
 40
1
 40
1
 10
196.518241
 20
150.354939
 30
0.0
 10
196.518241
 20
149.991230
 30
0.0
 10
196.086089
 20
149.722053
 30
0.0
 10
196.086089
 20
149.358344
 30
0.0
  0
SPLINE
  5
1d9
100
AcDbEntity
  8
case
 62
1
100
AcDbSpline
 70
8
 71
3
 72
8
 73
4
 74
0
 40
0
 40
0
 40
0
 40
0
 40
1
 40
1
 40
1
 40
1
 10
196.086089
 20
149.358344
 30
0.0
 10
196.086089
 20
148.994632
 30
0.0
 10
196.518241
 20
148.716637
 30
0.0
 10
196.518241
 20
148.352927
 30
0.0
  0
LWPOLYLINE
  5
1da
100
AcDbEntity
  8
case
 62
1
100
AcDbPolyline
 90
4
 70
0
 10
195.521643
 20
160.312094
 30
0.0
 10
194.525048
 20
160.312094
 30
0.0
 10
194.525048
 20
157.313481
 30
0.0
 10
195.574560
 20
157.313481
 30
0.0
  0
SPLINE
  5
1db
100
AcDbEntity
  8
case
 62
1
100
AcDbSpline
 70
8
 71
3
 72
8
 73
4
 74
0
 40
0
 40
0
 40
0
 40
0
 40
1
 40
1
 40
1
 40
1
 10
196.518241
 20
20.824868
 30
0.0
 10
196.518241
 20
20.461156
 30
0.0
 10
196.086089
 20
20.183161
 30
0.0
 10
196.086089
 20
19.819451
 30
0.0
  0
SPLINE
  5
1dc
100
AcDbEntity
  8
case
 62
1
100
AcDbSpline
 70
8
 71
3
 72
8
 73
4
 74
0
 40
0
 40
0
 40
0
 40
0
 40
1
 40
1
 40
1
 40
1
 10
196.086089
 20
19.819451
 30
0.0
 10
196.086089
 20
19.455739
 30
0.0
 10
196.518241
 20
19.186563
 30
0.0
 10
196.518241
 20
18.822853
 30
0.0
  0
SPLINE
  5
1dd
100
AcDbEntity
  8
case
 62
1
100
AcDbSpline
 70
8
 71
3
 72
8
 73
4
 74
0
 40
0
 40
0
 40
0
 40
0
 40
1
 40
1
 40
1
 40
1
 10
196.518241
 20
18.822853
 30
0.0
 10
196.518241
 20
18.459141
 30
0.0
 10
196.086089
 20
18.181146
 30
0.0
 10
196.086089
 20
17.817437
 30
0.0
  0
SPLINE
  5
1de
100
AcDbEntity
  8
case
 62
1
100
AcDbSpline
 70
8
 71
3
 72
8
 73
4
 74
0
 40
0
 40
0
 40
0
 40
0
 40
1
 40
1
 40
1
 40
1
 10
196.086089
 20
17.817437
 30
0.0
 10
196.086089
 20
17.453724
 30
0.0
 10
196.518241
 20
17.184551
 30
0.0
 10
196.518241
 20
16.820839
 30
0.0
  0
SPLINE
  5
1df
100
AcDbEntity
  8
case
 62
1
100
AcDbSpline
 70
8
 71
3
 72
8
 73
4
 74
0
 40
0
 40
0
 40
0
 40
0
 40
1
 40
1
 40
1
 40
1
 10
196.518241
 20
16.820839
 30
0.0
 10
196.518241
 20
16.457129
 30
0.0
 10
196.086089
 20
16.179134
 30
0.0
 10
196.086089
 20
15.815422
 30
0.0
  0
SPLINE
  5
1e0
100
AcDbEntity
  8
case
 62
1
100
AcDbSpline
 70
8
 71
3
 72
8
 73
4
 74
0
 40
0
 40
0
 40
0
 40
0
 40
1
 40
1
 40
1
 40
1
 10
196.086089
 20
15.815422
 30
0.0
 10
196.086089
 20
15.451712
 30
0.0
 10
196.518241
 20
15.173720
 30
0.0
 10
196.518241
 20
14.810005
 30
0.0
  0
SPLINE
  5
1e1
100
AcDbEntity
  8
case
 62
1
100
AcDbSpline
 70
8
 71
3
 72
8
 73
4
 74
0
 40
0
 40
0
 40
0
 40
0
 40
1
 40
1
 40
1
 40
1
 10
196.518241
 20
14.810005
 30
0.0
 10
196.518241
 20
14.446296
 30
0.0
 10
196.086089
 20
14.177119
 30
0.0
 10
196.086089
 20
13.813410
 30
0.0
  0
SPLINE
  5
1e2
100
AcDbEntity
  8
case
 62
1
100
AcDbSpline
 70
8
 71
3
 72
8
 73
4
 74
0
 40
0
 40
0
 40
0
 40
0
 40
1
 40
1
 40
1
 40
1
 10
196.086089
 20
13.813410
 30
0.0
 10
196.086089
 20
13.449698
 30
0.0
 10
196.518241
 20
13.171703
 30
0.0
 10
196.518241
 20
12.807993
 30
0.0
  0
SPLINE
  5
1e3
100
AcDbEntity
  8
case
 62
1
100
AcDbSpline
 70
8
 71
3
 72
8
 73
4
 74
0
 40
0
 40
0
 40
0
 40
0
 40
1
 40
1
 40
1
 40
1
 10
196.518241
 20
12.807993
 30
0.0
 10
196.518241
 20
12.677681
 30
0.0
 10
196.495434
 20
12.559309
 30
0.0
 10
196.447685
 20
12.446395
 30
0.0
  0
SPLINE
  5
1e4
100
AcDbEntity
  8
case
 62
1
100
AcDbSpline
 70
8
 71
3
 72
8
 73
4
 74
0
 40
0
 40
0
 40
0
 40
0
 40
1
 40
1
 40
1
 40
1
 10
196.447685
 20
12.446395
 30
0.0
 10
196.399928
 20
12.333481
 30
0.0
 10
196.330236
 20
12.231932
 30
0.0
 10
196.244839
 20
12.146535
 30
0.0
  0
SPLINE
  5
1e5
100
AcDbEntity
  8
case
 62
1
100
AcDbSpline
 70
8
 71
3
 72
8
 73
4
 74
0
 40
0
 40
0
 40
0
 40
0
 40
1
 40
1
 40
1
 40
1
 10
196.244839
 20
12.146535
 30
0.0
 10
196.159440
 20
12.061135
 30
0.0
 10
196.057893
 20
11.991444
 30
0.0
 10
195.944977
 20
11.943687
 30
0.0
  0
SPLINE
  5
1e6
100
AcDbEntity
  8
case
 62
1
100
AcDbSpline
 70
8
 71
3
 72
8
 73
4
 74
0
 40
0
 40
0
 40
0
 40
0
 40
1
 40
1
 40
1
 40
1
 10
195.944977
 20
11.943687
 30
0.0
 10
195.832063
 20
11.895929
 30
0.0
 10
195.704872
 20
11.864312
 30
0.0
 10
195.574560
 20
11.864312
 30
0.0
  0
LWPOLYLINE
  5
1e7
100
AcDbEntity
  8
case
 62
1
100
AcDbPolyline
 90
2
 70
0
 10
196.518241
 20
148.352927
 30
0.0
 10
196.518241
 20
20.824868
 30
0.0
  0
SPLINE
  5
1e8
100
AcDbEntity
  8
case
 62
1
100
AcDbSpline
 70
8
 71
3
 72
8
 73
4
 74
0
 40
0
 40
0
 40
0
 40
0
 40
1
 40
1
 40
1
 40
1
 10
195.521643
 20
8.865701
 30
0.0
 10
195.521643
 20
8.056103
 30
0.0
 10
194.850782
 20
7.401672
 30
0.0
 10
194.031158
 20
7.401672
 30
0.0
  0
SPLINE
  5
1e9
100
AcDbEntity
  8
case
 62
1
100
AcDbSpline
 70
8
 71
3
 72
8
 73
4
 74
0
 40
0
 40
0
 40
0
 40
0
 40
1
 40
1
 40
1
 40
1
 10
194.031158
 20
7.401672
 30
0.0
 10
193.211534
 20
7.401672
 30
0.0
 10
192.549491
 20
8.056103
 30
0.0
 10
192.549491
 20
8.865701
 30
0.0
  0
SPLINE
  5
1ea
100
AcDbEntity
  8
case
 62
1
100
AcDbSpline
 70
8
 71
3
 72
8
 73
4
 74
0
 40
0
 40
0
 40
0
 40
0
 40
1
 40
1
 40
1
 40
1
 10
192.549491
 20
8.865701
 30
0.0
 10
192.549491
 20
8.865701
 30
0.0
 10
192.518249
 20
10.725886
 30
0.0
 10
192.725881
 20
12.305285
 30
0.0
  0
SPLINE
  5
1eb
100
AcDbEntity
  8
case
 62
1
100
AcDbSpline
 70
8
 71
3
 72
8
 73
4
 74
0
 40
0
 40
0
 40
0
 40
0
 40
1
 40
1
 40
1
 40
1
 10
192.725881
 20
12.305285
 30
0.0
 10
192.933510
 20
13.884678
 30
0.0
 10
194.036249
 20
17.403001
 30
0.0
 10
194.269283
 20
19.175630
 30
0.0
  0
SPLINE
  5
1ec
100
AcDbEntity
  8
case
 62
1
100
AcDbSpline
 70
8
 71
3
 72
8
 73
4
 74
0
 40
0
 40
0
 40
0
 40
0
 40
1
 40
1
 40
1
 40
1
 10
194.269283
 20
19.175630
 30
0.0
 10
194.502317
 20
20.948256
 30
0.0
 10
194.516227
 20
23.832297
 30
0.0
 10
194.516227
 20
23.832297
 30
0.0
  0
SPLINE
  5
1ed
100
AcDbEntity
  8
case
 62
1
100
AcDbSpline
 70
8
 71
3
 72
8
 73
4
 74
0
 40
0
 40
0
 40
0
 40
0
 40
1
 40
1
 40
1
 40
1
 10
194.516227
 20
23.832297
 30
0.0
 10
194.516227
 20
24.107493
 30
0.0
 10
194.290082
 20
24.326187
 30
0.0
 10
194.004700
 20
24.326187
 30
0.0
  0
SPLINE
  5
1ee
100
AcDbEntity
  8
case
 62
1
100
AcDbSpline
 70
8
 71
3
 72
8
 73
4
 74
0
 40
0
 40
0
 40
0
 40
0
 40
1
 40
1
 40
1
 40
1
 10
194.004700
 20
24.326187
 30
0.0
 10
193.719317
 20
24.326187
 30
0.0
 10
193.484352
 20
24.107493
 30
0.0
 10
193.484352
 20
23.832297
 30
0.0
  0
SPLINE
  5
1ef
100
AcDbEntity
  8
case
 62
1
100
AcDbSpline
 70
8
 71
3
 72
8
 73
4
 74
0
 40
0
 40
0
 40
0
 40
0
 40
1
 40
1
 40
1
 40
1
 10
193.484352
 20
23.832297
 30
0.0
 10
193.484352
 20
23.832297
 30
0.0
 10
193.469588
 20
20.968312
 30
0.0
 10
193.237408
 20
19.202088
 30
0.0
  0
SPLINE
  5
1f0
100
AcDbEntity
  8
case
 62
1
100
AcDbSpline
 70
8
 71
3
 72
8
 73
4
 74
0
 40
0
 40
0
 40
0
 40
0
 40
1
 40
1
 40
1
 40
1
 10
193.237408
 20
19.202088
 30
0.0
 10
193.005215
 20
17.435865
 30
0.0
 10
191.902379
 20
13.925604
 30
0.0
 10
191.694006
 20
12.340562
 30
0.0
  0
SPLINE
  5
1f1
100
AcDbEntity
  8
case
 62
1
100
AcDbSpline
 70
8
 71
3
 72
8
 73
4
 74
0
 40
0
 40
0
 40
0
 40
0
 40
1
 40
1
 40
1
 40
1
 10
191.694006
 20
12.340562
 30
0.0
 10
191.537727
 20
11.151778
 30
0.0
 10
191.518606
 20
9.789690
 30
0.0
 10
191.517616
 20
9.183201
 30
0.0
  0
SPLINE
  5
1f2
100
AcDbEntity
  8
case
 62
1
100
AcDbSpline
 70
8
 71
3
 72
8
 73
4
 74
0
 40
0
 40
0
 40
0
 40
0
 40
1
 40
1
 40
1
 40
1
 10
191.517616
 20
9.183201
 30
0.0
 10
191.517352
 20
8.981036
 30
0.0
 10
191.517616
 20
8.865701
 30
0.0
 10
191.517616
 20
8.865701
 30
0.0
  0
LWPOLYLINE
  5
1f3
100
AcDbEntity
  8
case
 62
1
100
AcDbPolyline
 90
4
 70
0
 10
195.574560
 20
11.864312
 30
0.0
 10
194.516227
 20
11.864312
 30
0.0
 10
194.516227
 20
8.865701
 30
0.0
 10
195.521643
 20
8.865701
 30
0.0
  0
SPLINE
  5
1f4
100
AcDbEntity
  8
case
 62
1
100
AcDbSpline
 70
8
 71
3
 72
8
 73
4
 74
0
 40
0
 40
0
 40
0
 40
0
 40
1
 40
1
 40
1
 40
1
 10
185.458658
 20
8.865701
 30
0.0
 10
185.328348
 20
8.865701
 30
0.0
 10
185.209976
 20
8.897317
 30
0.0
 10
185.097060
 20
8.945076
 30
0.0
  0
SPLINE
  5
1f5
100
AcDbEntity
  8
case
 62
1
100
AcDbSpline
 70
8
 71
3
 72
8
 73
4
 74
0
 40
0
 40
0
 40
0
 40
0
 40
1
 40
1
 40
1
 40
1
 10
185.097060
 20
8.945076
 30
0.0
 10
184.984146
 20
8.992834
 30
0.0
 10
184.882597
 20
9.062525
 30
0.0
 10
184.797200
 20
9.147922
 30
0.0
  0
SPLINE
  5
1f6
100
AcDbEntity
  8
case
 62
1
100
AcDbSpline
 70
8
 71
3
 72
8
 73
4
 74
0
 40
0
 40
0
 40
0
 40
0
 40
1
 40
1
 40
1
 40
1
 10
184.797200
 20
9.147922
 30
0.0
 10
184.711803
 20
9.233319
 30
0.0
 10
184.642109
 20
9.334869
 30
0.0
 10
184.594352
 20
9.447785
 30
0.0
  0
SPLINE
  5
1f7
100
AcDbEntity
  8
case
 62
1
100
AcDbSpline
 70
8
 71
3
 72
8
 73
4
 74
0
 40
0
 40
0
 40
0
 40
0
 40
1
 40
1
 40
1
 40
1
 10
184.594352
 20
9.447785
 30
0.0
 10
184.546594
 20
9.560698
 30
0.0
 10
184.514977
 20
9.679070
 30
0.0
 10
184.514977
 20
9.809380
 30
0.0
  0
LWPOLYLINE
  5
1f8
100
AcDbEntity
  8
case
 62
1
100
AcDbPolyline
 90
2
 70
0
 10
191.517616
 20
8.865701
 30
0.0
 10
185.458658
 20
8.865701
 30
0.0
  0
SPLINE
  5
1f9
100
AcDbEntity
  8
case
 62
1
100
AcDbSpline
 70
8
 71
3
 72
8
 73
4
 74
0
 40
0
 40
0
 40
0
 40
0
 40
1
 40
1
 40
1
 40
1
 10
174.566643
 20
9.809380
 30
0.0
 10
174.566643
 20
9.679070
 30
0.0
 10
174.535026
 20
9.560698
 30
0.0
 10
174.487268
 20
9.447785
 30
0.0
  0
SPLINE
  5
1fa
100
AcDbEntity
  8
case
 62
1
100
AcDbSpline
 70
8
 71
3
 72
8
 73
4
 74
0
 40
0
 40
0
 40
0
 40
0
 40
1
 40
1
 40
1
 40
1
 10
174.487268
 20
9.447785
 30
0.0
 10
174.439511
 20
9.334869
 30
0.0
 10
174.369820
 20
9.233319
 30
0.0
 10
174.284423
 20
9.147922
 30
0.0
  0
SPLINE
  5
1fb
100
AcDbEntity
  8
case
 62
1
100
AcDbSpline
 70
8
 71
3
 72
8
 73
4
 74
0
 40
0
 40
0
 40
0
 40
0
 40
1
 40
1
 40
1
 40
1
 10
174.284423
 20
9.147922
 30
0.0
 10
174.199023
 20
9.062525
 30
0.0
 10
174.097476
 20
8.992834
 30
0.0
 10
173.984560
 20
8.945076
 30
0.0
  0
SPLINE
  5
1fc
100
AcDbEntity
  8
case
 62
1
100
AcDbSpline
 70
8
 71
3
 72
8
 73
4
 74
0
 40
0
 40
0
 40
0
 40
0
 40
1
 40
1
 40
1
 40
1
 10
173.984560
 20
8.945076
 30
0.0
 10
173.871647
 20
8.897317
 30
0.0
 10
173.753275
 20
8.865701
 30
0.0
 10
173.622965
 20
8.865701
 30
0.0
  0
LWPOLYLINE
  5
1fd
100
AcDbEntity
  8
case
 62
1
100
AcDbPolyline
 90
4
 70
0
 10
184.514977
 20
9.809380
 30
0.0
 10
184.514977
 20
11.864312
 30
0.0
 10
174.566643
 20
11.864312
 30
0.0
 10
174.566643
 20
9.809380
 30
0.0
  0
SPLINE
  5
1fe
100
AcDbEntity
  8
case
 62
1
100
AcDbSpline
 70
8
 71
3
 72
8
 73
4
 74
0
 40
0
 40
0
 40
0
 40
0
 40
1
 40
1
 40
1
 40
1
 10
166.532131
 20
8.865701
 30
0.0
 10
166.532131
 20
8.056103
 30
0.0
 10
165.870088
 20
7.401672
 30
0.0
 10
165.050465
 20
7.401672
 30
0.0
  0
SPLINE
  5
1ff
100
AcDbEntity
  8
case
 62
1
100
AcDbSpline
 70
8
 71
3
 72
8
 73
4
 74
0
 40
0
 40
0
 40
0
 40
0
 40
1
 40
1
 40
1
 40
1
 10
165.050465
 20
7.401672
 30
0.0
 10
164.230839
 20
7.401672
 30
0.0
 10
163.559977
 20
8.056103
 30
0.0
 10
163.559977
 20
8.865701
 30
0.0
  0
LWPOLYLINE
  5
200
100
AcDbEntity
  8
case
 62
1
100
AcDbPolyline
 90
2
 70
0
 10
173.622965
 20
8.865701
 30
0.0
 10
166.532131
 20
8.865701
 30
0.0
  0
SPLINE
  5
201
100
AcDbEntity
  8
case
 62
1
100
AcDbSpline
 70
8
 71
3
 72
8
 73
4
 74
0
 40
0
 40
0
 40
0
 40
0
 40
1
 40
1
 40
1
 40
1
 10
163.498242
 20
11.864312
 30
0.0
 10
163.367932
 20
11.864312
 30
0.0
 10
163.249560
 20
11.895929
 30
0.0
 10
163.136644
 20
11.943687
 30
0.0
  0
SPLINE
  5
202
100
AcDbEntity
  8
case
 62
1
100
AcDbSpline
 70
8
 71
3
 72
8
 73
4
 74
0
 40
0
 40
0
 40
0
 40
0
 40
1
 40
1
 40
1
 40
1
 10
163.136644
 20
11.943687
 30
0.0
 10
163.023730
 20
11.991444
 30
0.0
 10
162.922178
 20
12.061135
 30
0.0
 10
162.836783
 20
12.146535
 30
0.0
  0
SPLINE
  5
203
100
AcDbEntity
  8
case
 62
1
100
AcDbSpline
 70
8
 71
3
 72
8
 73
4
 74
0
 40
0
 40
0
 40
0
 40
0
 40
1
 40
1
 40
1
 40
1
 10
162.836783
 20
12.146535
 30
0.0
 10
162.751389
 20
12.231932
 30
0.0
 10
162.681693
 20
12.333481
 30
0.0
 10
162.633935
 20
12.446395
 30
0.0
  0
SPLINE
  5
204
100
AcDbEntity
  8
case
 62
1
100
AcDbSpline
 70
8
 71
3
 72
8
 73
4
 74
0
 40
0
 40
0
 40
0
 40
0
 40
1
 40
1
 40
1
 40
1
 10
162.633935
 20
12.446395
 30
0.0
 10
162.586178
 20
12.559309
 30
0.0
 10
162.554560
 20
12.677681
 30
0.0
 10
162.554560
 20
12.807993
 30
0.0
  0
LWPOLYLINE
  5
205
100
AcDbEntity
  8
case
 62
1
100
AcDbPolyline
 90
4
 70
0
 10
163.559977
 20
8.865701
 30
0.0
 10
164.565394
 20
8.865701
 30
0.0
 10
164.565394
 20
11.864312
 30
0.0
 10
163.498242
 20
11.864312
 30
0.0
  0
LWPOLYLINE
  5
206
100
AcDbEntity
  8
case
 62
1
100
AcDbPolyline
 90
2
 70
0
 10
162.554560
 20
12.807993
 30
0.0
 10
162.554560
 20
156.369802
 30
0.0
  0
LWPOLYLINE
  5
207
100
AcDbEntity
  8
case
 62
1
100
AcDbPolyline
 90
4
 70
1
 10
164.556575
 20
142.091121
 30
0.0
 10
164.556575
 20
132.089871
 30
0.0
 10
167.555185
 20
132.089871
 30
0.0
 10
167.555185
 20
142.091121
 30
0.0
  0
LWPOLYLINE
  5
208
100
AcDbEntity
  8
case
 62
1
100
AcDbPolyline
 90
4
 70
1
 10
164.556575
 20
37.087922
 30
0.0
 10
164.556575
 20
27.095493
 30
0.0
 10
167.555185
 20
27.095493
 30
0.0
 10
167.555185
 20
37.087922
 30
0.0
  0
LWPOLYLINE
  5
209
100
AcDbEntity
  8
case
 62
1
100
AcDbPolyline
 90
4
 70
1
 10
191.517616
 20
142.091121
 30
0.0
 10
191.517616
 20
132.089871
 30
0.0
 10
194.516227
 20
132.089871
 30
0.0
 10
194.516227
 20
142.091121
 30
0.0
  0
SPLINE
  5
20a
100
AcDbEntity
  8
case
 62
1
100
AcDbSpline
 70
8
 71
3
 72
8
 73
4
 74
0
 40
0
 40
0
 40
0
 40
0
 40
1
 40
1
 40
1
 40
1
 10
148.282134
 20
34.058985
 30
0.0
 10
147.804248
 20
34.058985
 30
0.0
 10
147.362664
 20
34.314199
 30
0.0
 10
147.123721
 20
34.728489
 30
0.0
  0
SPLINE
  5
20b
100
AcDbEntity
  8
case
 62
1
100
AcDbSpline
 70
8
 71
3
 72
8
 73
4
 74
0
 40
0
 40
0
 40
0
 40
0
 40
1
 40
1
 40
1
 40
1
 10
147.123721
 20
34.728489
 30
0.0
 10
146.884778
 20
35.142780
 30
0.0
 10
146.884778
 20
35.653207
 30
0.0
 10
147.123721
 20
36.067498
 30
0.0
  0
SPLINE
  5
20c
100
AcDbEntity
  8
case
 62
1
100
AcDbSpline
 70
8
 71
3
 72
8
 73
4
 74
0
 40
0
 40
0
 40
0
 40
0
 40
1
 40
1
 40
1
 40
1
 10
147.123721
 20
36.067498
 30
0.0
 10
147.362664
 20
36.481788
 30
0.0
 10
147.804248
 20
36.737002
 30
0.0
 10
148.282134
 20
36.737002
 30
0.0
  0
SPLINE
  5
20d
100
AcDbEntity
  8
case
 62
1
100
AcDbSpline
 70
8
 71
3
 72
8
 73
4
 74
0
 40
0
 40
0
 40
0
 40
0
 40
1
 40
1
 40
1
 40
1
 10
148.282134
 20
36.737002
 30
0.0
 10
148.760019
 20
36.737002
 30
0.0
 10
149.201604
 20
36.481788
 30
0.0
 10
149.440547
 20
36.067498
 30
0.0
  0
SPLINE
  5
20e
100
AcDbEntity
  8
case
 62
1
100
AcDbSpline
 70
8
 71
3
 72
8
 73
4
 74
0
 40
0
 40
0
 40
0
 40
0
 40
1
 40
1
 40
1
 40
1
 10
149.440547
 20
36.067498
 30
0.0
 10
149.679489
 20
35.653207
 30
0.0
 10
149.679489
 20
35.142780
 30
0.0
 10
149.440547
 20
34.728489
 30
0.0
  0
SPLINE
  5
20f
100
AcDbEntity
  8
case
 62
1
100
AcDbSpline
 70
8
 71
3
 72
8
 73
4
 74
0
 40
0
 40
0
 40
0
 40
0
 40
1
 40
1
 40
1
 40
1
 10
149.440547
 20
34.728489
 30
0.0
 10
149.201604
 20
34.314199
 30
0.0
 10
148.760019
 20
34.058985
 30
0.0
 10
148.282134
 20
34.058985
 30
0.0
  0
LWPOLYLINE
  5
210
100
AcDbEntity
  8
case
 62
1
100
AcDbPolyline
 90
4
 70
1
 10
191.517616
 20
37.087922
 30
0.0
 10
191.517616
 20
27.095493
 30
0.0
 10
194.516227
 20
27.095493
 30
0.0
 10
194.516227
 20
37.087922
 30
0.0
  0
SPLINE
  5
211
100
AcDbEntity
  8
case
 62
1
100
AcDbSpline
 70
8
 71
3
 72
8
 73
4
 74
0
 40
0
 40
0
 40
0
 40
0
 40
1
 40
1
 40
1
 40
1
 10
99.280830
 20
34.058985
 30
0.0
 10
98.802945
 20
34.058985
 30
0.0
 10
98.361360
 20
34.314199
 30
0.0
 10
98.122417
 20
34.728489
 30
0.0
  0
SPLINE
  5
212
100
AcDbEntity
  8
case
 62
1
100
AcDbSpline
 70
8
 71
3
 72
8
 73
4
 74
0
 40
0
 40
0
 40
0
 40
0
 40
1
 40
1
 40
1
 40
1
 10
98.122417
 20
34.728489
 30
0.0
 10
97.883475
 20
35.142780
 30
0.0
 10
97.883475
 20
35.653207
 30
0.0
 10
98.122417
 20
36.067498
 30
0.0
  0
SPLINE
  5
213
100
AcDbEntity
  8
case
 62
1
100
AcDbSpline
 70
8
 71
3
 72
8
 73
4
 74
0
 40
0
 40
0
 40
0
 40
0
 40
1
 40
1
 40
1
 40
1
 10
98.122417
 20
36.067498
 30
0.0
 10
98.361360
 20
36.481788
 30
0.0
 10
98.802945
 20
36.737002
 30
0.0
 10
99.280830
 20
36.737002
 30
0.0
  0
SPLINE
  5
214
100
AcDbEntity
  8
case
 62
1
100
AcDbSpline
 70
8
 71
3
 72
8
 73
4
 74
0
 40
0
 40
0
 40
0
 40
0
 40
1
 40
1
 40
1
 40
1
 10
99.280830
 20
36.737002
 30
0.0
 10
99.758716
 20
36.737002
 30
0.0
 10
100.200300
 20
36.481788
 30
0.0
 10
100.439243
 20
36.067498
 30
0.0
  0
SPLINE
  5
215
100
AcDbEntity
  8
case
 62
1
100
AcDbSpline
 70
8
 71
3
 72
8
 73
4
 74
0
 40
0
 40
0
 40
0
 40
0
 40
1
 40
1
 40
1
 40
1
 10
100.439243
 20
36.067498
 30
0.0
 10
100.678186
 20
35.653207
 30
0.0
 10
100.678186
 20
35.142780
 30
0.0
 10
100.439243
 20
34.728489
 30
0.0
  0
SPLINE
  5
216
100
AcDbEntity
  8
case
 62
1
100
AcDbSpline
 70
8
 71
3
 72
8
 73
4
 74
0
 40
0
 40
0
 40
0
 40
0
 40
1
 40
1
 40
1
 40
1
 10
100.439243
 20
34.728489
 30
0.0
 10
100.200300
 20
34.314199
 30
0.0
 10
99.758716
 20
34.058985
 30
0.0
 10
99.280830
 20
34.058985
 30
0.0
  0
LWPOLYLINE
  5
217
100
AcDbEntity
  8
case
 62
1
100
AcDbPolyline
 90
1
 70
1
 10
148.282134
 20
34.058985
 30
0.0
  0
LWPOLYLINE
  5
218
100
AcDbEntity
  8
case
 62
1
100
AcDbPolyline
 90
1
 70
1
 10
99.280830
 20
34.058985
 30
0.0
  0
SPLINE
  5
219
100
AcDbEntity
  8
case
 62
1
100
AcDbSpline
 70
8
 71
3
 72
8
 73
4
 74
0
 40
0
 40
0
 40
0
 40
0
 40
1
 40
1
 40
1
 40
1
 10
91.132791
 20
37.129887
 30
0.0
 10
91.002478
 20
37.129887
 30
0.0
 10
90.875288
 20
37.098269
 30
0.0
 10
90.762374
 20
37.050512
 30
0.0
  0
SPLINE
  5
21a
100
AcDbEntity
  8
case
 62
1
100
AcDbSpline
 70
8
 71
3
 72
8
 73
4
 74
0
 40
0
 40
0
 40
0
 40
0
 40
1
 40
1
 40
1
 40
1
 10
90.762374
 20
37.050512
 30
0.0
 10
90.649458
 20
37.002755
 30
0.0
 10
90.547905
 20
36.933064
 30
0.0
 10
90.462511
 20
36.847664
 30
0.0
  0
SPLINE
  5
21b
100
AcDbEntity
  8
case
 62
1
100
AcDbSpline
 70
8
 71
3
 72
8
 73
4
 74
0
 40
0
 40
0
 40
0
 40
0
 40
1
 40
1
 40
1
 40
1
 10
90.462511
 20
36.847664
 30
0.0
 10
90.377117
 20
36.762267
 30
0.0
 10
90.307423
 20
36.660717
 30
0.0
 10
90.259666
 20
36.547804
 30
0.0
  0
SPLINE
  5
21c
100
AcDbEntity
  8
case
 62
1
100
AcDbSpline
 70
8
 71
3
 72
8
 73
4
 74
0
 40
0
 40
0
 40
0
 40
0
 40
1
 40
1
 40
1
 40
1
 10
90.259666
 20
36.547804
 30
0.0
 10
90.211906
 20
36.434890
 30
0.0
 10
90.189109
 20
36.316518
 30
0.0
 10
90.189109
 20
36.186206
 30
0.0
  0
LWPOLYLINE
  5
21d
100
AcDbEntity
  8
case
 62
1
100
AcDbPolyline
 90
2
 70
0
 10
93.187719
 20
37.129887
 30
0.0
 10
91.132791
 20
37.129887
 30
0.0
  0
SPLINE
  5
21e
100
AcDbEntity
  8
case
 62
1
100
AcDbSpline
 70
8
 71
3
 72
8
 73
4
 74
0
 40
0
 40
0
 40
0
 40
0
 40
1
 40
1
 40
1
 40
1
 10
90.189109
 20
28.072321
 30
0.0
 10
90.189109
 20
27.942011
 30
0.0
 10
90.211916
 20
27.814818
 30
0.0
 10
90.259666
 20
27.701905
 30
0.0
  0
SPLINE
  5
21f
100
AcDbEntity
  8
case
 62
1
100
AcDbSpline
 70
8
 71
3
 72
8
 73
4
 74
0
 40
0
 40
0
 40
0
 40
0
 40
1
 40
1
 40
1
 40
1
 10
90.259666
 20
27.701905
 30
0.0
 10
90.307423
 20
27.588988
 30
0.0
 10
90.377117
 20
27.487441
 30
0.0
 10
90.462511
 20
27.402042
 30
0.0
  0
SPLINE
  5
220
100
AcDbEntity
  8
case
 62
1
100
AcDbSpline
 70
8
 71
3
 72
8
 73
4
 74
0
 40
0
 40
0
 40
0
 40
0
 40
1
 40
1
 40
1
 40
1
 10
90.462511
 20
27.402042
 30
0.0
 10
90.547905
 20
27.316645
 30
0.0
 10
90.649458
 20
27.246954
 30
0.0
 10
90.762374
 20
27.199196
 30
0.0
  0
SPLINE
  5
221
100
AcDbEntity
  8
case
 62
1
100
AcDbSpline
 70
8
 71
3
 72
8
 73
4
 74
0
 40
0
 40
0
 40
0
 40
0
 40
1
 40
1
 40
1
 40
1
 10
90.762374
 20
27.199196
 30
0.0
 10
90.875288
 20
27.151439
 30
0.0
 10
91.002478
 20
27.128640
 30
0.0
 10
91.132791
 20
27.128640
 30
0.0
  0
LWPOLYLINE
  5
222
100
AcDbEntity
  8
case
 62
1
100
AcDbPolyline
 90
2
 70
0
 10
90.189109
 20
36.186206
 30
0.0
 10
90.189109
 20
28.072321
 30
0.0
  0
SPLINE
  5
223
100
AcDbEntity
  8
case
 62
1
100
AcDbSpline
 70
8
 71
3
 72
8
 73
4
 74
0
 40
0
 40
0
 40
0
 40
0
 40
1
 40
1
 40
1
 40
1
 10
93.187719
 20
11.994473
 30
0.0
 10
93.187719
 20
11.939072
 30
0.0
 10
93.229333
 20
11.897459
 30
0.0
 10
93.284734
 20
11.897459
 30
0.0
  0
LWPOLYLINE
  5
224
100
AcDbEntity
  8
case
 62
1
100
AcDbPolyline
 90
3
 70
0
 10
91.132791
 20
27.128640
 30
0.0
 10
93.187719
 20
27.128640
 30
0.0
 10
93.187719
 20
11.994473
 30
0.0
  0
SPLINE
  5
225
100
AcDbEntity
  8
case
 62
1
100
AcDbSpline
 70
8
 71
3
 72
8
 73
4
 74
0
 40
0
 40
0
 40
0
 40
0
 40
1
 40
1
 40
1
 40
1
 10
154.288832
 20
11.897459
 30
0.0
 10
154.344230
 20
11.897459
 30
0.0
 10
154.387780
 20
11.939107
 30
0.0
 10
154.385844
 20
11.994473
 30
0.0
  0
LWPOLYLINE
  5
226
100
AcDbEntity
  8
case
 62
1
100
AcDbPolyline
 90
2
 70
0
 10
93.284734
 20
11.897459
 30
0.0
 10
154.288832
 20
11.897459
 30
0.0
  0
SPLINE
  5
227
100
AcDbEntity
  8
case
 62
1
100
AcDbSpline
 70
8
 71
3
 72
8
 73
4
 74
0
 40
0
 40
0
 40
0
 40
0
 40
1
 40
1
 40
1
 40
1
 10
156.440775
 20
27.128640
 30
0.0
 10
156.571085
 20
27.128640
 30
0.0
 10
156.698278
 20
27.160258
 30
0.0
 10
156.811192
 20
27.208015
 30
0.0
  0
SPLINE
  5
228
100
AcDbEntity
  8
case
 62
1
100
AcDbSpline
 70
8
 71
3
 72
8
 73
4
 74
0
 40
0
 40
0
 40
0
 40
0
 40
1
 40
1
 40
1
 40
1
 10
156.811192
 20
27.208015
 30
0.0
 10
156.924105
 20
27.255772
 30
0.0
 10
157.025655
 20
27.316645
 30
0.0
 10
157.111052
 20
27.402042
 30
0.0
  0
SPLINE
  5
229
100
AcDbEntity
  8
case
 62
1
100
AcDbSpline
 70
8
 71
3
 72
8
 73
4
 74
0
 40
0
 40
0
 40
0
 40
0
 40
1
 40
1
 40
1
 40
1
 10
157.111052
 20
27.402042
 30
0.0
 10
157.196449
 20
27.487441
 30
0.0
 10
157.266143
 20
27.588988
 30
0.0
 10
157.313900
 20
27.701905
 30
0.0
  0
SPLINE
  5
22a
100
AcDbEntity
  8
case
 62
1
100
AcDbSpline
 70
8
 71
3
 72
8
 73
4
 74
0
 40
0
 40
0
 40
0
 40
0
 40
1
 40
1
 40
1
 40
1
 10
157.313900
 20
27.701905
 30
0.0
 10
157.361657
 20
27.814818
 30
0.0
 10
157.384457
 20
27.942011
 30
0.0
 10
157.384457
 20
28.072321
 30
0.0
  0
LWPOLYLINE
  5
22b
100
AcDbEntity
  8
case
 62
1
100
AcDbPolyline
 90
3
 70
0
 10
154.385844
 20
11.994473
 30
0.0
 10
154.385844
 20
27.128640
 30
0.0
 10
156.440775
 20
27.128640
 30
0.0
  0
SPLINE
  5
22c
100
AcDbEntity
  8
case
 62
1
100
AcDbSpline
 70
8
 71
3
 72
8
 73
4
 74
0
 40
0
 40
0
 40
0
 40
0
 40
1
 40
1
 40
1
 40
1
 10
157.384457
 20
36.186206
 30
0.0
 10
157.384457
 20
36.316518
 30
0.0
 10
157.361649
 20
36.443709
 30
0.0
 10
157.313900
 20
36.556622
 30
0.0
  0
SPLINE
  5
22d
100
AcDbEntity
  8
case
 62
1
100
AcDbSpline
 70
8
 71
3
 72
8
 73
4
 74
0
 40
0
 40
0
 40
0
 40
0
 40
1
 40
1
 40
1
 40
1
 10
157.313900
 20
36.556622
 30
0.0
 10
157.266143
 20
36.669539
 30
0.0
 10
157.196449
 20
36.771086
 30
0.0
 10
157.111052
 20
36.856485
 30
0.0
  0
SPLINE
  5
22e
100
AcDbEntity
  8
case
 62
1
100
AcDbSpline
 70
8
 71
3
 72
8
 73
4
 74
0
 40
0
 40
0
 40
0
 40
0
 40
1
 40
1
 40
1
 40
1
 10
157.111052
 20
36.856485
 30
0.0
 10
157.025655
 20
36.941882
 30
0.0
 10
156.924105
 20
37.011573
 30
0.0
 10
156.811192
 20
37.059331
 30
0.0
  0
SPLINE
  5
22f
100
AcDbEntity
  8
case
 62
1
100
AcDbSpline
 70
8
 71
3
 72
8
 73
4
 74
0
 40
0
 40
0
 40
0
 40
0
 40
1
 40
1
 40
1
 40
1
 10
156.811192
 20
37.059331
 30
0.0
 10
156.698278
 20
37.107088
 30
0.0
 10
156.571085
 20
37.129887
 30
0.0
 10
156.440775
 20
37.129887
 30
0.0
  0
LWPOLYLINE
  5
230
100
AcDbEntity
  8
case
 62
1
100
AcDbPolyline
 90
2
 70
0
 10
157.384457
 20
28.072321
 30
0.0
 10
157.384457
 20
36.186206
 30
0.0
  0
SPLINE
  5
231
100
AcDbEntity
  8
case
 62
1
100
AcDbSpline
 70
8
 71
3
 72
8
 73
4
 74
0
 40
0
 40
0
 40
0
 40
0
 40
1
 40
1
 40
1
 40
1
 10
156.440775
 20
79.183211
 30
0.0
 10
156.571085
 20
79.183211
 30
0.0
 10
156.698278
 20
79.214829
 30
0.0
 10
156.811192
 20
79.262586
 30
0.0
  0
SPLINE
  5
232
100
AcDbEntity
  8
case
 62
1
100
AcDbSpline
 70
8
 71
3
 72
8
 73
4
 74
0
 40
0
 40
0
 40
0
 40
0
 40
1
 40
1
 40
1
 40
1
 10
156.811192
 20
79.262586
 30
0.0
 10
156.924105
 20
79.310346
 30
0.0
 10
157.025655
 20
79.380038
 30
0.0
 10
157.111052
 20
79.465435
 30
0.0
  0
SPLINE
  5
233
100
AcDbEntity
  8
case
 62
1
100
AcDbSpline
 70
8
 71
3
 72
8
 73
4
 74
0
 40
0
 40
0
 40
0
 40
0
 40
1
 40
1
 40
1
 40
1
 10
157.111052
 20
79.465435
 30
0.0
 10
157.196449
 20
79.550831
 30
0.0
 10
157.266143
 20
79.652381
 30
0.0
 10
157.313900
 20
79.765295
 30
0.0
  0
SPLINE
  5
234
100
AcDbEntity
  8
case
 62
1
100
AcDbSpline
 70
8
 71
3
 72
8
 73
4
 74
0
 40
0
 40
0
 40
0
 40
0
 40
1
 40
1
 40
1
 40
1
 10
157.313900
 20
79.765295
 30
0.0
 10
157.361657
 20
79.878211
 30
0.0
 10
157.384457
 20
79.996583
 30
0.0
 10
157.384457
 20
80.126893
 30
0.0
  0
LWPOLYLINE
  5
235
100
AcDbEntity
  8
case
 62
1
100
AcDbPolyline
 90
4
 70
0
 10
156.440775
 20
37.129887
 30
0.0
 10
154.385844
 20
37.129887
 30
0.0
 10
154.385844
 20
79.183211
 30
0.0
 10
156.440775
 20
79.183211
 30
0.0
  0
SPLINE
  5
236
100
AcDbEntity
  8
case
 62
1
100
AcDbSpline
 70
8
 71
3
 72
8
 73
4
 74
0
 40
0
 40
0
 40
0
 40
0
 40
1
 40
1
 40
1
 40
1
 10
157.384457
 20
88.240783
 30
0.0
 10
157.384457
 20
88.371092
 30
0.0
 10
157.361649
 20
88.498283
 30
0.0
 10
157.313900
 20
88.611199
 30
0.0
  0
SPLINE
  5
237
100
AcDbEntity
  8
case
 62
1
100
AcDbSpline
 70
8
 71
3
 72
8
 73
4
 74
0
 40
0
 40
0
 40
0
 40
0
 40
1
 40
1
 40
1
 40
1
 10
157.313900
 20
88.611199
 30
0.0
 10
157.266143
 20
88.724113
 30
0.0
 10
157.196449
 20
88.825662
 30
0.0
 10
157.111052
 20
88.911059
 30
0.0
  0
SPLINE
  5
238
100
AcDbEntity
  8
case
 62
1
100
AcDbSpline
 70
8
 71
3
 72
8
 73
4
 74
0
 40
0
 40
0
 40
0
 40
0
 40
1
 40
1
 40
1
 40
1
 10
157.111052
 20
88.911059
 30
0.0
 10
157.025655
 20
88.996456
 30
0.0
 10
156.924105
 20
89.066150
 30
0.0
 10
156.811192
 20
89.113908
 30
0.0
  0
SPLINE
  5
239
100
AcDbEntity
  8
case
 62
1
100
AcDbSpline
 70
8
 71
3
 72
8
 73
4
 74
0
 40
0
 40
0
 40
0
 40
0
 40
1
 40
1
 40
1
 40
1
 10
156.811192
 20
89.113908
 30
0.0
 10
156.698278
 20
89.161665
 30
0.0
 10
156.571085
 20
89.184461
 30
0.0
 10
156.440775
 20
89.184461
 30
0.0
  0
LWPOLYLINE
  5
23a
100
AcDbEntity
  8
case
 62
1
100
AcDbPolyline
 90
2
 70
0
 10
157.384457
 20
80.126893
 30
0.0
 10
157.384457
 20
88.240783
 30
0.0
  0
SPLINE
  5
23b
100
AcDbEntity
  8
case
 62
1
100
AcDbSpline
 70
8
 71
3
 72
8
 73
4
 74
0
 40
0
 40
0
 40
0
 40
0
 40
1
 40
1
 40
1
 40
1
 10
156.440775
 20
132.099877
 30
0.0
 10
156.571085
 20
132.099877
 30
0.0
 10
156.698278
 20
132.131495
 30
0.0
 10
156.811192
 20
132.179252
 30
0.0
  0
SPLINE
  5
23c
100
AcDbEntity
  8
case
 62
1
100
AcDbSpline
 70
8
 71
3
 72
8
 73
4
 74
0
 40
0
 40
0
 40
0
 40
0
 40
1
 40
1
 40
1
 40
1
 10
156.811192
 20
132.179252
 30
0.0
 10
156.924105
 20
132.227012
 30
0.0
 10
157.025655
 20
132.296704
 30
0.0
 10
157.111052
 20
132.382101
 30
0.0
  0
SPLINE
  5
23d
100
AcDbEntity
  8
case
 62
1
100
AcDbSpline
 70
8
 71
3
 72
8
 73
4
 74
0
 40
0
 40
0
 40
0
 40
0
 40
1
 40
1
 40
1
 40
1
 10
157.111052
 20
132.382101
 30
0.0
 10
157.196449
 20
132.467497
 30
0.0
 10
157.266143
 20
132.569047
 30
0.0
 10
157.313900
 20
132.681961
 30
0.0
  0
SPLINE
  5
23e
100
AcDbEntity
  8
case
 62
1
100
AcDbSpline
 70
8
 71
3
 72
8
 73
4
 74
0
 40
0
 40
0
 40
0
 40
0
 40
1
 40
1
 40
1
 40
1
 10
157.313900
 20
132.681961
 30
0.0
 10
157.361657
 20
132.794877
 30
0.0
 10
157.384457
 20
132.913249
 30
0.0
 10
157.384457
 20
133.043559
 30
0.0
  0
LWPOLYLINE
  5
23f
100
AcDbEntity
  8
case
 62
1
100
AcDbPolyline
 90
4
 70
0
 10
156.440775
 20
89.184461
 30
0.0
 10
154.385844
 20
89.184461
 30
0.0
 10
154.385844
 20
132.099877
 30
0.0
 10
156.440775
 20
132.099877
 30
0.0
  0
SPLINE
  5
240
100
AcDbEntity
  8
case
 62
1
100
AcDbSpline
 70
8
 71
3
 72
8
 73
4
 74
0
 40
0
 40
0
 40
0
 40
0
 40
1
 40
1
 40
1
 40
1
 10
157.384457
 20
141.157449
 30
0.0
 10
157.384457
 20
141.287758
 30
0.0
 10
157.361649
 20
141.414949
 30
0.0
 10
157.313900
 20
141.527865
 30
0.0
  0
SPLINE
  5
241
100
AcDbEntity
  8
case
 62
1
100
AcDbSpline
 70
8
 71
3
 72
8
 73
4
 74
0
 40
0
 40
0
 40
0
 40
0
 40
1
 40
1
 40
1
 40
1
 10
157.313900
 20
141.527865
 30
0.0
 10
157.266143
 20
141.640779
 30
0.0
 10
157.196449
 20
141.742328
 30
0.0
 10
157.111052
 20
141.827725
 30
0.0
  0
SPLINE
  5
242
100
AcDbEntity
  8
case
 62
1
100
AcDbSpline
 70
8
 71
3
 72
8
 73
4
 74
0
 40
0
 40
0
 40
0
 40
0
 40
1
 40
1
 40
1
 40
1
 10
157.111052
 20
141.827725
 30
0.0
 10
157.025655
 20
141.913122
 30
0.0
 10
156.924105
 20
141.982816
 30
0.0
 10
156.811192
 20
142.030574
 30
0.0
  0
SPLINE
  5
243
100
AcDbEntity
  8
case
 62
1
100
AcDbSpline
 70
8
 71
3
 72
8
 73
4
 74
0
 40
0
 40
0
 40
0
 40
0
 40
1
 40
1
 40
1
 40
1
 10
156.811192
 20
142.030574
 30
0.0
 10
156.698278
 20
142.078331
 30
0.0
 10
156.571085
 20
142.101127
 30
0.0
 10
156.440775
 20
142.101127
 30
0.0
  0
LWPOLYLINE
  5
244
100
AcDbEntity
  8
case
 62
1
100
AcDbPolyline
 90
2
 70
0
 10
157.384457
 20
133.043559
 30
0.0
 10
157.384457
 20
141.157449
 30
0.0
  0
SPLINE
  5
245
100
AcDbEntity
  8
case
 62
1
100
AcDbSpline
 70
8
 71
3
 72
8
 73
4
 74
0
 40
0
 40
0
 40
0
 40
0
 40
1
 40
1
 40
1
 40
1
 10
154.385844
 20
157.217657
 30
0.0
 10
154.385844
 20
157.273055
 30
0.0
 10
154.344230
 20
157.314669
 30
0.0
 10
154.288832
 20
157.314669
 30
0.0
  0
LWPOLYLINE
  5
246
100
AcDbEntity
  8
case
 62
1
100
AcDbPolyline
 90
3
 70
0
 10
156.440775
 20
142.101127
 30
0.0
 10
154.385844
 20
142.101127
 30
0.0
 10
154.385844
 20
157.217657
 30
0.0
  0
SPLINE
  5
247
100
AcDbEntity
  8
case
 62
1
100
AcDbSpline
 70
8
 71
3
 72
8
 73
4
 74
0
 40
0
 40
0
 40
0
 40
0
 40
1
 40
1
 40
1
 40
1
 10
93.284734
 20
157.314669
 30
0.0
 10
93.229333
 20
157.314669
 30
0.0
 10
93.187719
 20
157.273055
 30
0.0
 10
93.187719
 20
157.217657
 30
0.0
  0
LWPOLYLINE
  5
248
100
AcDbEntity
  8
case
 62
1
100
AcDbPolyline
 90
2
 70
0
 10
154.288832
 20
157.314669
 30
0.0
 10
93.284734
 20
157.314669
 30
0.0
  0
SPLINE
  5
249
100
AcDbEntity
  8
case
 62
1
100
AcDbSpline
 70
8
 71
3
 72
8
 73
4
 74
0
 40
0
 40
0
 40
0
 40
0
 40
1
 40
1
 40
1
 40
1
 10
91.132791
 20
142.101127
 30
0.0
 10
91.002478
 20
142.101127
 30
0.0
 10
90.875288
 20
142.069512
 30
0.0
 10
90.762374
 20
142.021752
 30
0.0
  0
SPLINE
  5
24a
100
AcDbEntity
  8
case
 62
1
100
AcDbSpline
 70
8
 71
3
 72
8
 73
4
 74
0
 40
0
 40
0
 40
0
 40
0
 40
1
 40
1
 40
1
 40
1
 10
90.762374
 20
142.021752
 30
0.0
 10
90.649458
 20
141.973995
 30
0.0
 10
90.547905
 20
141.904304
 30
0.0
 10
90.462511
 20
141.818907
 30
0.0
  0
SPLINE
  5
24b
100
AcDbEntity
  8
case
 62
1
100
AcDbSpline
 70
8
 71
3
 72
8
 73
4
 74
0
 40
0
 40
0
 40
0
 40
0
 40
1
 40
1
 40
1
 40
1
 10
90.462511
 20
141.818907
 30
0.0
 10
90.377117
 20
141.733507
 30
0.0
 10
90.307423
 20
141.631960
 30
0.0
 10
90.259666
 20
141.519044
 30
0.0
  0
SPLINE
  5
24c
100
AcDbEntity
  8
case
 62
1
100
AcDbSpline
 70
8
 71
3
 72
8
 73
4
 74
0
 40
0
 40
0
 40
0
 40
0
 40
1
 40
1
 40
1
 40
1
 10
90.259666
 20
141.519044
 30
0.0
 10
90.211906
 20
141.406130
 30
0.0
 10
90.189109
 20
141.287758
 30
0.0
 10
90.189109
 20
141.157449
 30
0.0
  0
LWPOLYLINE
  5
24d
100
AcDbEntity
  8
case
 62
1
100
AcDbPolyline
 90
3
 70
0
 10
93.187719
 20
157.217657
 30
0.0
 10
93.187719
 20
142.101127
 30
0.0
 10
91.132791
 20
142.101127
 30
0.0
  0
SPLINE
  5
24e
100
AcDbEntity
  8
case
 62
1
100
AcDbSpline
 70
8
 71
3
 72
8
 73
4
 74
0
 40
0
 40
0
 40
0
 40
0
 40
1
 40
1
 40
1
 40
1
 10
90.189109
 20
133.043559
 30
0.0
 10
90.189109
 20
132.913249
 30
0.0
 10
90.211916
 20
132.786056
 30
0.0
 10
90.259666
 20
132.673142
 30
0.0
  0
SPLINE
  5
24f
100
AcDbEntity
  8
case
 62
1
100
AcDbSpline
 70
8
 71
3
 72
8
 73
4
 74
0
 40
0
 40
0
 40
0
 40
0
 40
1
 40
1
 40
1
 40
1
 10
90.259666
 20
132.673142
 30
0.0
 10
90.307423
 20
132.560229
 30
0.0
 10
90.377117
 20
132.458679
 30
0.0
 10
90.462511
 20
132.373282
 30
0.0
  0
SPLINE
  5
250
100
AcDbEntity
  8
case
 62
1
100
AcDbSpline
 70
8
 71
3
 72
8
 73
4
 74
0
 40
0
 40
0
 40
0
 40
0
 40
1
 40
1
 40
1
 40
1
 10
90.462511
 20
132.373282
 30
0.0
 10
90.547905
 20
132.287882
 30
0.0
 10
90.649458
 20
132.218191
 30
0.0
 10
90.762374
 20
132.170434
 30
0.0
  0
SPLINE
  5
251
100
AcDbEntity
  8
case
 62
1
100
AcDbSpline
 70
8
 71
3
 72
8
 73
4
 74
0
 40
0
 40
0
 40
0
 40
0
 40
1
 40
1
 40
1
 40
1
 10
90.762374
 20
132.170434
 30
0.0
 10
90.875288
 20
132.122677
 30
0.0
 10
91.002478
 20
132.099877
 30
0.0
 10
91.132791
 20
132.099877
 30
0.0
  0
LWPOLYLINE
  5
252
100
AcDbEntity
  8
case
 62
1
100
AcDbPolyline
 90
2
 70
0
 10
90.189109
 20
141.157449
 30
0.0
 10
90.189109
 20
133.043559
 30
0.0
  0
SPLINE
  5
253
100
AcDbEntity
  8
case
 62
1
100
AcDbSpline
 70
8
 71
3
 72
8
 73
4
 74
0
 40
0
 40
0
 40
0
 40
0
 40
1
 40
1
 40
1
 40
1
 10
91.132791
 20
89.184461
 30
0.0
 10
91.002478
 20
89.184461
 30
0.0
 10
90.875288
 20
89.152846
 30
0.0
 10
90.762374
 20
89.105086
 30
0.0
  0
SPLINE
  5
254
100
AcDbEntity
  8
case
 62
1
100
AcDbSpline
 70
8
 71
3
 72
8
 73
4
 74
0
 40
0
 40
0
 40
0
 40
0
 40
1
 40
1
 40
1
 40
1
 10
90.762374
 20
89.105086
 30
0.0
 10
90.649458
 20
89.057329
 30
0.0
 10
90.547905
 20
88.987638
 30
0.0
 10
90.462511
 20
88.902241
 30
0.0
  0
SPLINE
  5
255
100
AcDbEntity
  8
case
 62
1
100
AcDbSpline
 70
8
 71
3
 72
8
 73
4
 74
0
 40
0
 40
0
 40
0
 40
0
 40
1
 40
1
 40
1
 40
1
 10
90.462511
 20
88.902241
 30
0.0
 10
90.377117
 20
88.816841
 30
0.0
 10
90.307423
 20
88.715294
 30
0.0
 10
90.259666
 20
88.602378
 30
0.0
  0
SPLINE
  5
256
100
AcDbEntity
  8
case
 62
1
100
AcDbSpline
 70
8
 71
3
 72
8
 73
4
 74
0
 40
0
 40
0
 40
0
 40
0
 40
1
 40
1
 40
1
 40
1
 10
90.259666
 20
88.602378
 30
0.0
 10
90.211906
 20
88.489464
 30
0.0
 10
90.189109
 20
88.371092
 30
0.0
 10
90.189109
 20
88.240783
 30
0.0
  0
LWPOLYLINE
  5
257
100
AcDbEntity
  8
case
 62
1
100
AcDbPolyline
 90
4
 70
0
 10
91.132791
 20
132.099877
 30
0.0
 10
93.187719
 20
132.099877
 30
0.0
 10
93.187719
 20
89.184461
 30
0.0
 10
91.132791
 20
89.184461
 30
0.0
  0
SPLINE
  5
258
100
AcDbEntity
  8
case
 62
1
100
AcDbSpline
 70
8
 71
3
 72
8
 73
4
 74
0
 40
0
 40
0
 40
0
 40
0
 40
1
 40
1
 40
1
 40
1
 10
90.189109
 20
80.126893
 30
0.0
 10
90.189109
 20
79.996583
 30
0.0
 10
90.211916
 20
79.869390
 30
0.0
 10
90.259666
 20
79.756476
 30
0.0
  0
SPLINE
  5
259
100
AcDbEntity
  8
case
 62
1
100
AcDbSpline
 70
8
 71
3
 72
8
 73
4
 74
0
 40
0
 40
0
 40
0
 40
0
 40
1
 40
1
 40
1
 40
1
 10
90.259666
 20
79.756476
 30
0.0
 10
90.307423
 20
79.643563
 30
0.0
 10
90.377117
 20
79.542013
 30
0.0
 10
90.462511
 20
79.456616
 30
0.0
  0
SPLINE
  5
25a
100
AcDbEntity
  8
case
 62
1
100
AcDbSpline
 70
8
 71
3
 72
8
 73
4
 74
0
 40
0
 40
0
 40
0
 40
0
 40
1
 40
1
 40
1
 40
1
 10
90.462511
 20
79.456616
 30
0.0
 10
90.547905
 20
79.371216
 30
0.0
 10
90.649458
 20
79.301525
 30
0.0
 10
90.762374
 20
79.253768
 30
0.0
  0
SPLINE
  5
25b
100
AcDbEntity
  8
case
 62
1
100
AcDbSpline
 70
8
 71
3
 72
8
 73
4
 74
0
 40
0
 40
0
 40
0
 40
0
 40
1
 40
1
 40
1
 40
1
 10
90.762374
 20
79.253768
 30
0.0
 10
90.875288
 20
79.206011
 30
0.0
 10
91.002478
 20
79.183211
 30
0.0
 10
91.132791
 20
79.183211
 30
0.0
  0
LWPOLYLINE
  5
25c
100
AcDbEntity
  8
case
 62
1
100
AcDbPolyline
 90
2
 70
0
 10
90.189109
 20
88.240783
 30
0.0
 10
90.189109
 20
80.126893
 30
0.0
  0
SPLINE
  5
25d
100
AcDbEntity
  8
case
 62
1
100
AcDbSpline
 70
8
 71
3
 72
8
 73
4
 74
0
 40
0
 40
0
 40
0
 40
0
 40
1
 40
1
 40
1
 40
1
 10
99.281783
 20
93.033694
 30
0.0
 10
98.803897
 20
93.033694
 30
0.0
 10
98.362313
 20
93.288907
 30
0.0
 10
98.123370
 20
93.703198
 30
0.0
  0
SPLINE
  5
25e
100
AcDbEntity
  8
case
 62
1
100
AcDbSpline
 70
8
 71
3
 72
8
 73
4
 74
0
 40
0
 40
0
 40
0
 40
0
 40
1
 40
1
 40
1
 40
1
 10
98.123370
 20
93.703198
 30
0.0
 10
97.884427
 20
94.117489
 30
0.0
 10
97.884427
 20
94.627916
 30
0.0
 10
98.123370
 20
95.042207
 30
0.0
  0
SPLINE
  5
25f
100
AcDbEntity
  8
case
 62
1
100
AcDbSpline
 70
8
 71
3
 72
8
 73
4
 74
0
 40
0
 40
0
 40
0
 40
0
 40
1
 40
1
 40
1
 40
1
 10
98.123370
 20
95.042207
 30
0.0
 10
98.362313
 20
95.456497
 30
0.0
 10
98.803897
 20
95.711711
 30
0.0
 10
99.281783
 20
95.711711
 30
0.0
  0
SPLINE
  5
260
100
AcDbEntity
  8
case
 62
1
100
AcDbSpline
 70
8
 71
3
 72
8
 73
4
 74
0
 40
0
 40
0
 40
0
 40
0
 40
1
 40
1
 40
1
 40
1
 10
99.281783
 20
95.711711
 30
0.0
 10
99.759668
 20
95.711711
 30
0.0
 10
100.201253
 20
95.456497
 30
0.0
 10
100.440195
 20
95.042207
 30
0.0
  0
SPLINE
  5
261
100
AcDbEntity
  8
case
 62
1
100
AcDbSpline
 70
8
 71
3
 72
8
 73
4
 74
0
 40
0
 40
0
 40
0
 40
0
 40
1
 40
1
 40
1
 40
1
 10
100.440195
 20
95.042207
 30
0.0
 10
100.679138
 20
94.627916
 30
0.0
 10
100.679138
 20
94.117489
 30
0.0
 10
100.440195
 20
93.703198
 30
0.0
  0
SPLINE
  5
262
100
AcDbEntity
  8
case
 62
1
100
AcDbSpline
 70
8
 71
3
 72
8
 73
4
 74
0
 40
0
 40
0
 40
0
 40
0
 40
1
 40
1
 40
1
 40
1
 10
100.440195
 20
93.703198
 30
0.0
 10
100.201253
 20
93.288907
 30
0.0
 10
99.759668
 20
93.033694
 30
0.0
 10
99.281783
 20
93.033694
 30
0.0
  0
LWPOLYLINE
  5
263
100
AcDbEntity
  8
case
 62
1
100
AcDbPolyline
 90
3
 70
0
 10
91.132791
 20
79.183211
 30
0.0
 10
93.187719
 20
79.183211
 30
0.0
 10
93.187719
 20
37.129887
 30
0.0
  0
SPLINE
  5
264
100
AcDbEntity
  8
case
 62
1
100
AcDbSpline
 70
8
 71
3
 72
8
 73
4
 74
0
 40
0
 40
0
 40
0
 40
0
 40
1
 40
1
 40
1
 40
1
 10
148.283086
 20
93.033694
 30
0.0
 10
147.805201
 20
93.033694
 30
0.0
 10
147.363616
 20
93.288907
 30
0.0
 10
147.124674
 20
93.703198
 30
0.0
  0
SPLINE
  5
265
100
AcDbEntity
  8
case
 62
1
100
AcDbSpline
 70
8
 71
3
 72
8
 73
4
 74
0
 40
0
 40
0
 40
0
 40
0
 40
1
 40
1
 40
1
 40
1
 10
147.124674
 20
93.703198
 30
0.0
 10
146.885731
 20
94.117489
 30
0.0
 10
146.885731
 20
94.627916
 30
0.0
 10
147.124674
 20
95.042207
 30
0.0
  0
SPLINE
  5
266
100
AcDbEntity
  8
case
 62
1
100
AcDbSpline
 70
8
 71
3
 72
8
 73
4
 74
0
 40
0
 40
0
 40
0
 40
0
 40
1
 40
1
 40
1
 40
1
 10
147.124674
 20
95.042207
 30
0.0
 10
147.363616
 20
95.456497
 30
0.0
 10
147.805201
 20
95.711711
 30
0.0
 10
148.283086
 20
95.711711
 30
0.0
  0
SPLINE
  5
267
100
AcDbEntity
  8
case
 62
1
100
AcDbSpline
 70
8
 71
3
 72
8
 73
4
 74
0
 40
0
 40
0
 40
0
 40
0
 40
1
 40
1
 40
1
 40
1
 10
148.283086
 20
95.711711
 30
0.0
 10
148.760972
 20
95.711711
 30
0.0
 10
149.202556
 20
95.456497
 30
0.0
 10
149.441499
 20
95.042207
 30
0.0
  0
SPLINE
  5
268
100
AcDbEntity
  8
case
 62
1
100
AcDbSpline
 70
8
 71
3
 72
8
 73
4
 74
0
 40
0
 40
0
 40
0
 40
0
 40
1
 40
1
 40
1
 40
1
 10
149.441499
 20
95.042207
 30
0.0
 10
149.680442
 20
94.627916
 30
0.0
 10
149.680442
 20
94.117489
 30
0.0
 10
149.441499
 20
93.703198
 30
0.0
  0
SPLINE
  5
269
100
AcDbEntity
  8
case
 62
1
100
AcDbSpline
 70
8
 71
3
 72
8
 73
4
 74
0
 40
0
 40
0
 40
0
 40
0
 40
1
 40
1
 40
1
 40
1
 10
149.441499
 20
93.703198
 30
0.0
 10
149.202556
 20
93.288907
 30
0.0
 10
148.760972
 20
93.033694
 30
0.0
 10
148.283086
 20
93.033694
 30
0.0
  0
LWPOLYLINE
  5
26a
100
AcDbEntity
  8
case
 62
1
100
AcDbPolyline
 90
1
 70
1
 10
99.281783
 20
93.033694
 30
0.0
  0
LWPOLYLINE
  5
26b
100
AcDbEntity
  8
case
 62
1
100
AcDbPolyline
 90
1
 70
1
 10
148.283086
 20
93.033694
 30
0.0
  0
SPLINE
  5
26c
100
AcDbEntity
  8
case
 62
1
100
AcDbSpline
 70
8
 71
3
 72
8
 73
4
 74
0
 40
0
 40
0
 40
0
 40
0
 40
1
 40
1
 40
1
 40
1
 10
119.227905
 20
165.170562
 30
0.0
 10
119.227905
 20
165.040250
 30
0.0
 10
119.259522
 20
164.913059
 30
0.0
 10
119.307280
 20
164.800145
 30
0.0
  0
SPLINE
  5
26d
100
AcDbEntity
  8
case
 62
1
100
AcDbSpline
 70
8
 71
3
 72
8
 73
4
 74
0
 40
0
 40
0
 40
0
 40
0
 40
1
 40
1
 40
1
 40
1
 10
119.307280
 20
164.800145
 30
0.0
 10
119.355037
 20
164.687229
 30
0.0
 10
119.424731
 20
164.585677
 30
0.0
 10
119.510128
 20
164.500283
 30
0.0
  0
SPLINE
  5
26e
100
AcDbEntity
  8
case
 62
1
100
AcDbSpline
 70
8
 71
3
 72
8
 73
4
 74
0
 40
0
 40
0
 40
0
 40
0
 40
1
 40
1
 40
1
 40
1
 10
119.510128
 20
164.500283
 30
0.0
 10
119.595525
 20
164.414888
 30
0.0
 10
119.697075
 20
164.345194
 30
0.0
 10
119.809988
 20
164.297437
 30
0.0
  0
SPLINE
  5
26f
100
AcDbEntity
  8
case
 62
1
100
AcDbSpline
 70
8
 71
3
 72
8
 73
4
 74
0
 40
0
 40
0
 40
0
 40
0
 40
1
 40
1
 40
1
 40
1
 10
119.809988
 20
164.297437
 30
0.0
 10
119.922904
 20
164.249677
 30
0.0
 10
120.041276
 20
164.226881
 30
0.0
 10
120.171586
 20
164.226881
 30
0.0
  0
LWPOLYLINE
  5
270
100
AcDbEntity
  8
case
 62
1
100
AcDbPolyline
 90
2
 70
0
 10
119.227905
 20
167.225491
 30
0.0
 10
119.227905
 20
165.170562
 30
0.0
  0
SPLINE
  5
271
100
AcDbEntity
  8
case
 62
1
100
AcDbSpline
 70
8
 71
3
 72
8
 73
4
 74
0
 40
0
 40
0
 40
0
 40
0
 40
1
 40
1
 40
1
 40
1
 10
128.285476
 20
164.226881
 30
0.0
 10
128.415786
 20
164.226881
 30
0.0
 10
128.542976
 20
164.249688
 30
0.0
 10
128.655893
 20
164.297437
 30
0.0
  0
SPLINE
  5
272
100
AcDbEntity
  8
case
 62
1
100
AcDbSpline
 70
8
 71
3
 72
8
 73
4
 74
0
 40
0
 40
0
 40
0
 40
0
 40
1
 40
1
 40
1
 40
1
 10
128.655893
 20
164.297437
 30
0.0
 10
128.768806
 20
164.345194
 30
0.0
 10
128.870356
 20
164.414888
 30
0.0
 10
128.955753
 20
164.500283
 30
0.0
  0
SPLINE
  5
273
100
AcDbEntity
  8
case
 62
1
100
AcDbSpline
 70
8
 71
3
 72
8
 73
4
 74
0
 40
0
 40
0
 40
0
 40
0
 40
1
 40
1
 40
1
 40
1
 10
128.955753
 20
164.500283
 30
0.0
 10
129.041150
 20
164.585677
 30
0.0
 10
129.110841
 20
164.687229
 30
0.0
 10
129.158601
 20
164.800145
 30
0.0
  0
SPLINE
  5
274
100
AcDbEntity
  8
case
 62
1
100
AcDbSpline
 70
8
 71
3
 72
8
 73
4
 74
0
 40
0
 40
0
 40
0
 40
0
 40
1
 40
1
 40
1
 40
1
 10
129.158601
 20
164.800145
 30
0.0
 10
129.206358
 20
164.913059
 30
0.0
 10
129.229155
 20
165.040250
 30
0.0
 10
129.229155
 20
165.170562
 30
0.0
  0
LWPOLYLINE
  5
275
100
AcDbEntity
  8
case
 62
1
100
AcDbPolyline
 90
2
 70
0
 10
120.171586
 20
164.226881
 30
0.0
 10
128.285476
 20
164.226881
 30
0.0
  0
SPLINE
  5
276
100
AcDbEntity
  8
case
 62
1
100
AcDbSpline
 70
8
 71
3
 72
8
 73
4
 74
0
 40
0
 40
0
 40
0
 40
0
 40
1
 40
1
 40
1
 40
1
 10
171.243516
 20
165.170562
 30
0.0
 10
171.243516
 20
165.040250
 30
0.0
 10
171.275131
 20
164.913059
 30
0.0
 10
171.322891
 20
164.800145
 30
0.0
  0
SPLINE
  5
277
100
AcDbEntity
  8
case
 62
1
100
AcDbSpline
 70
8
 71
3
 72
8
 73
4
 74
0
 40
0
 40
0
 40
0
 40
0
 40
1
 40
1
 40
1
 40
1
 10
171.322891
 20
164.800145
 30
0.0
 10
171.370649
 20
164.687229
 30
0.0
 10
171.440340
 20
164.585677
 30
0.0
 10
171.525737
 20
164.500283
 30
0.0
  0
SPLINE
  5
278
100
AcDbEntity
  8
case
 62
1
100
AcDbSpline
 70
8
 71
3
 72
8
 73
4
 74
0
 40
0
 40
0
 40
0
 40
0
 40
1
 40
1
 40
1
 40
1
 10
171.525737
 20
164.500283
 30
0.0
 10
171.611136
 20
164.414888
 30
0.0
 10
171.712683
 20
164.345194
 30
0.0
 10
171.825600
 20
164.297437
 30
0.0
  0
SPLINE
  5
279
100
AcDbEntity
  8
case
 62
1
100
AcDbSpline
 70
8
 71
3
 72
8
 73
4
 74
0
 40
0
 40
0
 40
0
 40
0
 40
1
 40
1
 40
1
 40
1
 10
171.825600
 20
164.297437
 30
0.0
 10
171.938513
 20
164.249677
 30
0.0
 10
172.056885
 20
164.226881
 30
0.0
 10
172.187195
 20
164.226881
 30
0.0
  0
LWPOLYLINE
  5
27a
100
AcDbEntity
  8
case
 62
1
100
AcDbPolyline
 90
4
 70
0
 10
129.229155
 20
165.170562
 30
0.0
 10
129.229155
 20
167.225491
 30
0.0
 10
171.243516
 20
167.225491
 30
0.0
 10
171.243516
 20
165.170562
 30
0.0
  0
SPLINE
  5
27b
100
AcDbEntity
  8
case
 62
1
100
AcDbSpline
 70
8
 71
3
 72
8
 73
4
 74
0
 40
0
 40
0
 40
0
 40
0
 40
1
 40
1
 40
1
 40
1
 10
180.301085
 20
164.226881
 30
0.0
 10
180.431395
 20
164.226881
 30
0.0
 10
180.558588
 20
164.249688
 30
0.0
 10
180.671501
 20
164.297437
 30
0.0
  0
SPLINE
  5
27c
100
AcDbEntity
  8
case
 62
1
100
AcDbSpline
 70
8
 71
3
 72
8
 73
4
 74
0
 40
0
 40
0
 40
0
 40
0
 40
1
 40
1
 40
1
 40
1
 10
180.671501
 20
164.297437
 30
0.0
 10
180.784415
 20
164.345194
 30
0.0
 10
180.885965
 20
164.414888
 30
0.0
 10
180.971362
 20
164.500283
 30
0.0
  0
SPLINE
  5
27d
100
AcDbEntity
  8
case
 62
1
100
AcDbSpline
 70
8
 71
3
 72
8
 73
4
 74
0
 40
0
 40
0
 40
0
 40
0
 40
1
 40
1
 40
1
 40
1
 10
180.971362
 20
164.500283
 30
0.0
 10
181.056761
 20
164.585677
 30
0.0
 10
181.126453
 20
164.687229
 30
0.0
 10
181.174210
 20
164.800145
 30
0.0
  0
SPLINE
  5
27e
100
AcDbEntity
  8
case
 62
1
100
AcDbSpline
 70
8
 71
3
 72
8
 73
4
 74
0
 40
0
 40
0
 40
0
 40
0
 40
1
 40
1
 40
1
 40
1
 10
181.174210
 20
164.800145
 30
0.0
 10
181.221967
 20
164.913059
 30
0.0
 10
181.244766
 20
165.040250
 30
0.0
 10
181.244766
 20
165.170562
 30
0.0
  0
LWPOLYLINE
  5
27f
100
AcDbEntity
  8
case
 62
1
100
AcDbPolyline
 90
2
 70
0
 10
172.187195
 20
164.226881
 30
0.0
 10
180.301085
 20
164.226881
 30
0.0
  0
SPLINE
  5
280
100
AcDbEntity
  8
case
 62
1
100
AcDbSpline
 70
8
 71
3
 72
8
 73
4
 74
0
 40
0
 40
0
 40
0
 40
0
 40
1
 40
1
 40
1
 40
1
 10
196.378933
 20
167.225491
 30
0.0
 10
196.434331
 20
167.225491
 30
0.0
 10
196.475945
 20
167.267105
 30
0.0
 10
196.475945
 20
167.322506
 30
0.0
  0
LWPOLYLINE
  5
281
100
AcDbEntity
  8
case
 62
1
100
AcDbPolyline
 90
3
 70
0
 10
181.244766
 20
165.170562
 30
0.0
 10
181.244766
 20
167.225491
 30
0.0
 10
196.378933
 20
167.225491
 30
0.0
  0
SPLINE
  5
282
100
AcDbEntity
  8
case
 62
1
100
AcDbSpline
 70
8
 71
3
 72
8
 73
4
 74
0
 40
0
 40
0
 40
0
 40
0
 40
1
 40
1
 40
1
 40
1
 10
196.475945
 20
228.326603
 30
0.0
 10
196.475945
 20
228.382001
 30
0.0
 10
196.434297
 20
228.425552
 30
0.0
 10
196.378933
 20
228.423615
 30
0.0
  0
LWPOLYLINE
  5
283
100
AcDbEntity
  8
case
 62
1
100
AcDbPolyline
 90
2
 70
0
 10
196.475945
 20
167.322506
 30
0.0
 10
196.475945
 20
228.326603
 30
0.0
  0
SPLINE
  5
284
100
AcDbEntity
  8
case
 62
1
100
AcDbSpline
 70
8
 71
3
 72
8
 73
4
 74
0
 40
0
 40
0
 40
0
 40
0
 40
1
 40
1
 40
1
 40
1
 10
181.244766
 20
230.478547
 30
0.0
 10
181.244766
 20
230.608856
 30
0.0
 10
181.213149
 20
230.736050
 30
0.0
 10
181.165391
 20
230.848963
 30
0.0
  0
SPLINE
  5
285
100
AcDbEntity
  8
case
 62
1
100
AcDbSpline
 70
8
 71
3
 72
8
 73
4
 74
0
 40
0
 40
0
 40
0
 40
0
 40
1
 40
1
 40
1
 40
1
 10
181.165391
 20
230.848963
 30
0.0
 10
181.117631
 20
230.961877
 30
0.0
 10
181.056761
 20
231.063426
 30
0.0
 10
180.971362
 20
231.148823
 30
0.0
  0
SPLINE
  5
286
100
AcDbEntity
  8
case
 62
1
100
AcDbSpline
 70
8
 71
3
 72
8
 73
4
 74
0
 40
0
 40
0
 40
0
 40
0
 40
1
 40
1
 40
1
 40
1
 10
180.971362
 20
231.148823
 30
0.0
 10
180.885965
 20
231.234220
 30
0.0
 10
180.784415
 20
231.303914
 30
0.0
 10
180.671501
 20
231.351672
 30
0.0
  0
SPLINE
  5
287
100
AcDbEntity
  8
case
 62
1
100
AcDbSpline
 70
8
 71
3
 72
8
 73
4
 74
0
 40
0
 40
0
 40
0
 40
0
 40
1
 40
1
 40
1
 40
1
 10
180.671501
 20
231.351672
 30
0.0
 10
180.558588
 20
231.399429
 30
0.0
 10
180.431395
 20
231.422228
 30
0.0
 10
180.301085
 20
231.422228
 30
0.0
  0
LWPOLYLINE
  5
288
100
AcDbEntity
  8
case
 62
1
100
AcDbPolyline
 90
3
 70
0
 10
196.378933
 20
228.423615
 30
0.0
 10
181.244766
 20
228.423615
 30
0.0
 10
181.244766
 20
230.478547
 30
0.0
  0
SPLINE
  5
289
100
AcDbEntity
  8
case
 62
1
100
AcDbSpline
 70
8
 71
3
 72
8
 73
4
 74
0
 40
0
 40
0
 40
0
 40
0
 40
1
 40
1
 40
1
 40
1
 10
172.187195
 20
231.422228
 30
0.0
 10
172.056885
 20
231.422228
 30
0.0
 10
171.929695
 20
231.399421
 30
0.0
 10
171.816779
 20
231.351672
 30
0.0
  0
SPLINE
  5
28a
100
AcDbEntity
  8
case
 62
1
100
AcDbSpline
 70
8
 71
3
 72
8
 73
4
 74
0
 40
0
 40
0
 40
0
 40
0
 40
1
 40
1
 40
1
 40
1
 10
171.816779
 20
231.351672
 30
0.0
 10
171.703865
 20
231.303914
 30
0.0
 10
171.602315
 20
231.234220
 30
0.0
 10
171.516918
 20
231.148823
 30
0.0
  0
SPLINE
  5
28b
100
AcDbEntity
  8
case
 62
1
100
AcDbSpline
 70
8
 71
3
 72
8
 73
4
 74
0
 40
0
 40
0
 40
0
 40
0
 40
1
 40
1
 40
1
 40
1
 10
171.516918
 20
231.148823
 30
0.0
 10
171.431521
 20
231.063426
 30
0.0
 10
171.361827
 20
230.961877
 30
0.0
 10
171.314070
 20
230.848963
 30
0.0
  0
SPLINE
  5
28c
100
AcDbEntity
  8
case
 62
1
100
AcDbSpline
 70
8
 71
3
 72
8
 73
4
 74
0
 40
0
 40
0
 40
0
 40
0
 40
1
 40
1
 40
1
 40
1
 10
171.314070
 20
230.848963
 30
0.0
 10
171.266313
 20
230.736050
 30
0.0
 10
171.243516
 20
230.608856
 30
0.0
 10
171.243516
 20
230.478547
 30
0.0
  0
LWPOLYLINE
  5
28d
100
AcDbEntity
  8
case
 62
1
100
AcDbPolyline
 90
2
 70
0
 10
180.301085
 20
231.422228
 30
0.0
 10
172.187195
 20
231.422228
 30
0.0
  0
SPLINE
  5
28e
100
AcDbEntity
  8
case
 62
1
100
AcDbSpline
 70
8
 71
3
 72
8
 73
4
 74
0
 40
0
 40
0
 40
0
 40
0
 40
1
 40
1
 40
1
 40
1
 10
129.229155
 20
230.478547
 30
0.0
 10
129.229155
 20
230.608856
 30
0.0
 10
129.197537
 20
230.736050
 30
0.0
 10
129.149780
 20
230.848963
 30
0.0
  0
SPLINE
  5
28f
100
AcDbEntity
  8
case
 62
1
100
AcDbSpline
 70
8
 71
3
 72
8
 73
4
 74
0
 40
0
 40
0
 40
0
 40
0
 40
1
 40
1
 40
1
 40
1
 10
129.149780
 20
230.848963
 30
0.0
 10
129.102022
 20
230.961877
 30
0.0
 10
129.032331
 20
231.063426
 30
0.0
 10
128.946934
 20
231.148823
 30
0.0
  0
SPLINE
  5
290
100
AcDbEntity
  8
case
 62
1
100
AcDbSpline
 70
8
 71
3
 72
8
 73
4
 74
0
 40
0
 40
0
 40
0
 40
0
 40
1
 40
1
 40
1
 40
1
 10
128.946934
 20
231.148823
 30
0.0
 10
128.861535
 20
231.234220
 30
0.0
 10
128.759988
 20
231.303914
 30
0.0
 10
128.647071
 20
231.351672
 30
0.0
  0
SPLINE
  5
291
100
AcDbEntity
  8
case
 62
1
100
AcDbSpline
 70
8
 71
3
 72
8
 73
4
 74
0
 40
0
 40
0
 40
0
 40
0
 40
1
 40
1
 40
1
 40
1
 10
128.647071
 20
231.351672
 30
0.0
 10
128.534158
 20
231.399429
 30
0.0
 10
128.415786
 20
231.422228
 30
0.0
 10
128.285476
 20
231.422228
 30
0.0
  0
LWPOLYLINE
  5
292
100
AcDbEntity
  8
case
 62
1
100
AcDbPolyline
 90
4
 70
0
 10
171.243516
 20
230.478547
 30
0.0
 10
171.243516
 20
228.423615
 30
0.0
 10
129.229155
 20
228.423615
 30
0.0
 10
129.229155
 20
230.478547
 30
0.0
  0
SPLINE
  5
293
100
AcDbEntity
  8
case
 62
1
100
AcDbSpline
 70
8
 71
3
 72
8
 73
4
 74
0
 40
0
 40
0
 40
0
 40
0
 40
1
 40
1
 40
1
 40
1
 10
120.171586
 20
231.422228
 30
0.0
 10
120.041276
 20
231.422228
 30
0.0
 10
119.914083
 20
231.399421
 30
0.0
 10
119.801170
 20
231.351672
 30
0.0
  0
SPLINE
  5
294
100
AcDbEntity
  8
case
 62
1
100
AcDbSpline
 70
8
 71
3
 72
8
 73
4
 74
0
 40
0
 40
0
 40
0
 40
0
 40
1
 40
1
 40
1
 40
1
 10
119.801170
 20
231.351672
 30
0.0
 10
119.688256
 20
231.303914
 30
0.0
 10
119.586706
 20
231.234220
 30
0.0
 10
119.501309
 20
231.148823
 30
0.0
  0
SPLINE
  5
295
100
AcDbEntity
  8
case
 62
1
100
AcDbSpline
 70
8
 71
3
 72
8
 73
4
 74
0
 40
0
 40
0
 40
0
 40
0
 40
1
 40
1
 40
1
 40
1
 10
119.501309
 20
231.148823
 30
0.0
 10
119.415910
 20
231.063426
 30
0.0
 10
119.346219
 20
230.961877
 30
0.0
 10
119.298461
 20
230.848963
 30
0.0
  0
SPLINE
  5
296
100
AcDbEntity
  8
case
 62
1
100
AcDbSpline
 70
8
 71
3
 72
8
 73
4
 74
0
 40
0
 40
0
 40
0
 40
0
 40
1
 40
1
 40
1
 40
1
 10
119.298461
 20
230.848963
 30
0.0
 10
119.250704
 20
230.736050
 30
0.0
 10
119.227905
 20
230.608856
 30
0.0
 10
119.227905
 20
230.478547
 30
0.0
  0
LWPOLYLINE
  5
297
100
AcDbEntity
  8
case
 62
1
100
AcDbPolyline
 90
2
 70
0
 10
128.285476
 20
231.422228
 30
0.0
 10
120.171586
 20
231.422228
 30
0.0
  0
SPLINE
  5
298
100
AcDbEntity
  8
case
 62
1
100
AcDbSpline
 70
8
 71
3
 72
8
 73
4
 74
0
 40
0
 40
0
 40
0
 40
0
 40
1
 40
1
 40
1
 40
1
 10
76.312489
 20
230.478547
 30
0.0
 10
76.312489
 20
230.608856
 30
0.0
 10
76.280871
 20
230.736050
 30
0.0
 10
76.233114
 20
230.848963
 30
0.0
  0
SPLINE
  5
299
100
AcDbEntity
  8
case
 62
1
100
AcDbSpline
 70
8
 71
3
 72
8
 73
4
 74
0
 40
0
 40
0
 40
0
 40
0
 40
1
 40
1
 40
1
 40
1
 10
76.233114
 20
230.848963
 30
0.0
 10
76.185357
 20
230.961877
 30
0.0
 10
76.115665
 20
231.063426
 30
0.0
 10
76.030268
 20
231.148823
 30
0.0
  0
SPLINE
  5
29a
100
AcDbEntity
  8
case
 62
1
100
AcDbSpline
 70
8
 71
3
 72
8
 73
4
 74
0
 40
0
 40
0
 40
0
 40
0
 40
1
 40
1
 40
1
 40
1
 10
76.030268
 20
231.148823
 30
0.0
 10
75.944869
 20
231.234220
 30
0.0
 10
75.843322
 20
231.303914
 30
0.0
 10
75.730406
 20
231.351672
 30
0.0
  0
SPLINE
  5
29b
100
AcDbEntity
  8
case
 62
1
100
AcDbSpline
 70
8
 71
3
 72
8
 73
4
 74
0
 40
0
 40
0
 40
0
 40
0
 40
1
 40
1
 40
1
 40
1
 10
75.730406
 20
231.351672
 30
0.0
 10
75.617492
 20
231.399429
 30
0.0
 10
75.499120
 20
231.422228
 30
0.0
 10
75.368810
 20
231.422228
 30
0.0
  0
LWPOLYLINE
  5
29c
100
AcDbEntity
  8
case
 62
1
100
AcDbPolyline
 90
4
 70
0
 10
119.227905
 20
230.478547
 30
0.0
 10
119.227905
 20
228.423615
 30
0.0
 10
76.312489
 20
228.423615
 30
0.0
 10
76.312489
 20
230.478547
 30
0.0
  0
SPLINE
  5
29d
100
AcDbEntity
  8
case
 62
1
100
AcDbSpline
 70
8
 71
3
 72
8
 73
4
 74
0
 40
0
 40
0
 40
0
 40
0
 40
1
 40
1
 40
1
 40
1
 10
67.254920
 20
231.422228
 30
0.0
 10
67.124611
 20
231.422228
 30
0.0
 10
66.997417
 20
231.399421
 30
0.0
 10
66.884504
 20
231.351672
 30
0.0
  0
SPLINE
  5
29e
100
AcDbEntity
  8
case
 62
1
100
AcDbSpline
 70
8
 71
3
 72
8
 73
4
 74
0
 40
0
 40
0
 40
0
 40
0
 40
1
 40
1
 40
1
 40
1
 10
66.884504
 20
231.351672
 30
0.0
 10
66.771590
 20
231.303914
 30
0.0
 10
66.670041
 20
231.234220
 30
0.0
 10
66.584644
 20
231.148823
 30
0.0
  0
SPLINE
  5
29f
100
AcDbEntity
  8
case
 62
1
100
AcDbSpline
 70
8
 71
3
 72
8
 73
4
 74
0
 40
0
 40
0
 40
0
 40
0
 40
1
 40
1
 40
1
 40
1
 10
66.584644
 20
231.148823
 30
0.0
 10
66.499244
 20
231.063426
 30
0.0
 10
66.429553
 20
230.961877
 30
0.0
 10
66.381795
 20
230.848963
 30
0.0
  0
SPLINE
  5
2a0
100
AcDbEntity
  8
case
 62
1
100
AcDbSpline
 70
8
 71
3
 72
8
 73
4
 74
0
 40
0
 40
0
 40
0
 40
0
 40
1
 40
1
 40
1
 40
1
 10
66.381795
 20
230.848963
 30
0.0
 10
66.334038
 20
230.736050
 30
0.0
 10
66.311239
 20
230.608856
 30
0.0
 10
66.311239
 20
230.478547
 30
0.0
  0
LWPOLYLINE
  5
2a1
100
AcDbEntity
  8
case
 62
1
100
AcDbPolyline
 90
2
 70
0
 10
75.368810
 20
231.422228
 30
0.0
 10
67.254920
 20
231.422228
 30
0.0
  0
SPLINE
  5
2a2
100
AcDbEntity
  8
case
 62
1
100
AcDbSpline
 70
8
 71
3
 72
8
 73
4
 74
0
 40
0
 40
0
 40
0
 40
0
 40
1
 40
1
 40
1
 40
1
 10
51.194712
 20
228.423615
 30
0.0
 10
51.139311
 20
228.423615
 30
0.0
 10
51.097697
 20
228.382001
 30
0.0
 10
51.097697
 20
228.326603
 30
0.0
  0
LWPOLYLINE
  5
2a3
100
AcDbEntity
  8
case
 62
1
100
AcDbPolyline
 90
3
 70
0
 10
66.311239
 20
230.478547
 30
0.0
 10
66.311239
 20
228.423615
 30
0.0
 10
51.194712
 20
228.423615
 30
0.0
  0
SPLINE
  5
2a4
100
AcDbEntity
  8
case
 62
1
100
AcDbSpline
 70
8
 71
3
 72
8
 73
4
 74
0
 40
0
 40
0
 40
0
 40
0
 40
1
 40
1
 40
1
 40
1
 10
51.097697
 20
167.322506
 30
0.0
 10
51.097697
 20
167.267105
 30
0.0
 10
51.139311
 20
167.225491
 30
0.0
 10
51.194712
 20
167.225491
 30
0.0
  0
LWPOLYLINE
  5
2a5
100
AcDbEntity
  8
case
 62
1
100
AcDbPolyline
 90
2
 70
0
 10
51.097697
 20
228.326603
 30
0.0
 10
51.097697
 20
167.322506
 30
0.0
  0
SPLINE
  5
2a6
100
AcDbEntity
  8
case
 62
1
100
AcDbSpline
 70
8
 71
3
 72
8
 73
4
 74
0
 40
0
 40
0
 40
0
 40
0
 40
1
 40
1
 40
1
 40
1
 10
66.311239
 20
165.170562
 30
0.0
 10
66.311239
 20
165.040250
 30
0.0
 10
66.342857
 20
164.913059
 30
0.0
 10
66.390614
 20
164.800145
 30
0.0
  0
SPLINE
  5
2a7
100
AcDbEntity
  8
case
 62
1
100
AcDbSpline
 70
8
 71
3
 72
8
 73
4
 74
0
 40
0
 40
0
 40
0
 40
0
 40
1
 40
1
 40
1
 40
1
 10
66.390614
 20
164.800145
 30
0.0
 10
66.438371
 20
164.687229
 30
0.0
 10
66.508065
 20
164.585677
 30
0.0
 10
66.593462
 20
164.500283
 30
0.0
  0
SPLINE
  5
2a8
100
AcDbEntity
  8
case
 62
1
100
AcDbSpline
 70
8
 71
3
 72
8
 73
4
 74
0
 40
0
 40
0
 40
0
 40
0
 40
1
 40
1
 40
1
 40
1
 10
66.593462
 20
164.500283
 30
0.0
 10
66.678859
 20
164.414888
 30
0.0
 10
66.780409
 20
164.345194
 30
0.0
 10
66.893322
 20
164.297437
 30
0.0
  0
SPLINE
  5
2a9
100
AcDbEntity
  8
case
 62
1
100
AcDbSpline
 70
8
 71
3
 72
8
 73
4
 74
0
 40
0
 40
0
 40
0
 40
0
 40
1
 40
1
 40
1
 40
1
 10
66.893322
 20
164.297437
 30
0.0
 10
67.006239
 20
164.249677
 30
0.0
 10
67.124611
 20
164.226881
 30
0.0
 10
67.254920
 20
164.226881
 30
0.0
  0
LWPOLYLINE
  5
2aa
100
AcDbEntity
  8
case
 62
1
100
AcDbPolyline
 90
3
 70
0
 10
51.194712
 20
167.225491
 30
0.0
 10
66.311239
 20
167.225491
 30
0.0
 10
66.311239
 20
165.170562
 30
0.0
  0
SPLINE
  5
2ab
100
AcDbEntity
  8
case
 62
1
100
AcDbSpline
 70
8
 71
3
 72
8
 73
4
 74
0
 40
0
 40
0
 40
0
 40
0
 40
1
 40
1
 40
1
 40
1
 10
75.368810
 20
164.226881
 30
0.0
 10
75.499120
 20
164.226881
 30
0.0
 10
75.626311
 20
164.249688
 30
0.0
 10
75.739227
 20
164.297437
 30
0.0
  0
SPLINE
  5
2ac
100
AcDbEntity
  8
case
 62
1
100
AcDbSpline
 70
8
 71
3
 72
8
 73
4
 74
0
 40
0
 40
0
 40
0
 40
0
 40
1
 40
1
 40
1
 40
1
 10
75.739227
 20
164.297437
 30
0.0
 10
75.852140
 20
164.345194
 30
0.0
 10
75.953690
 20
164.414888
 30
0.0
 10
76.039087
 20
164.500283
 30
0.0
  0
SPLINE
  5
2ad
100
AcDbEntity
  8
case
 62
1
100
AcDbSpline
 70
8
 71
3
 72
8
 73
4
 74
0
 40
0
 40
0
 40
0
 40
0
 40
1
 40
1
 40
1
 40
1
 10
76.039087
 20
164.500283
 30
0.0
 10
76.124484
 20
164.585677
 30
0.0
 10
76.194175
 20
164.687229
 30
0.0
 10
76.241935
 20
164.800145
 30
0.0
  0
SPLINE
  5
2ae
100
AcDbEntity
  8
case
 62
1
100
AcDbSpline
 70
8
 71
3
 72
8
 73
4
 74
0
 40
0
 40
0
 40
0
 40
0
 40
1
 40
1
 40
1
 40
1
 10
76.241935
 20
164.800145
 30
0.0
 10
76.289692
 20
164.913059
 30
0.0
 10
76.312489
 20
165.040250
 30
0.0
 10
76.312489
 20
165.170562
 30
0.0
  0
LWPOLYLINE
  5
2af
100
AcDbEntity
  8
case
 62
1
100
AcDbPolyline
 90
2
 70
0
 10
67.254920
 20
164.226881
 30
0.0
 10
75.368810
 20
164.226881
 30
0.0
  0
LWPOLYLINE
  5
2b0
100
AcDbEntity
  8
case
 62
1
100
AcDbPolyline
 90
3
 70
0
 10
76.312489
 20
165.170562
 30
0.0
 10
76.312489
 20
167.225491
 30
0.0
 10
119.227905
 20
167.225491
 30
0.0
  0
SPLINE
  5
2b1
100
AcDbEntity
  8
case
 62
1
100
AcDbSpline
 70
8
 71
3
 72
8
 73
4
 74
0
 40
0
 40
0
 40
0
 40
0
 40
1
 40
1
 40
1
 40
1
 10
81.481459
 20
197.824558
 30
0.0
 10
81.481459
 20
193.358738
 30
0.0
 10
79.098972
 20
189.232151
 30
0.0
 10
75.231459
 20
186.999241
 30
0.0
  0
SPLINE
  5
2b2
100
AcDbEntity
  8
case
 62
1
100
AcDbSpline
 70
8
 71
3
 72
8
 73
4
 74
0
 40
0
 40
0
 40
0
 40
0
 40
1
 40
1
 40
1
 40
1
 10
75.231459
 20
186.999241
 30
0.0
 10
71.363945
 20
184.766331
 30
0.0
 10
66.598972
 20
184.766331
 30
0.0
 10
62.731459
 20
186.999241
 30
0.0
  0
SPLINE
  5
2b3
100
AcDbEntity
  8
case
 62
1
100
AcDbSpline
 70
8
 71
3
 72
8
 73
4
 74
0
 40
0
 40
0
 40
0
 40
0
 40
1
 40
1
 40
1
 40
1
 10
62.731459
 20
186.999241
 30
0.0
 10
58.863945
 20
189.232151
 30
0.0
 10
56.481459
 20
193.358738
 30
0.0
 10
56.481459
 20
197.824558
 30
0.0
  0
SPLINE
  5
2b4
100
AcDbEntity
  8
case
 62
1
100
AcDbSpline
 70
8
 71
3
 72
8
 73
4
 74
0
 40
0
 40
0
 40
0
 40
0
 40
1
 40
1
 40
1
 40
1
 10
56.481459
 20
197.824558
 30
0.0
 10
56.481459
 20
202.290378
 30
0.0
 10
58.863945
 20
206.416966
 30
0.0
 10
62.731459
 20
208.649876
 30
0.0
  0
SPLINE
  5
2b5
100
AcDbEntity
  8
case
 62
1
100
AcDbSpline
 70
8
 71
3
 72
8
 73
4
 74
0
 40
0
 40
0
 40
0
 40
0
 40
1
 40
1
 40
1
 40
1
 10
62.731459
 20
208.649876
 30
0.0
 10
66.598972
 20
210.882786
 30
0.0
 10
71.363945
 20
210.882786
 30
0.0
 10
75.231459
 20
208.649876
 30
0.0
  0
SPLINE
  5
2b6
100
AcDbEntity
  8
case
 62
1
100
AcDbSpline
 70
8
 71
3
 72
8
 73
4
 74
0
 40
0
 40
0
 40
0
 40
0
 40
1
 40
1
 40
1
 40
1
 10
75.231459
 20
208.649876
 30
0.0
 10
79.098972
 20
206.416966
 30
0.0
 10
81.481459
 20
202.290378
 30
0.0
 10
81.481459
 20
197.824558
 30
0.0
  0
LWPOLYLINE
  5
2b7
100
AcDbEntity
  8
case
 62
1
100
AcDbPolyline
 90
4
 70
1
 10
97.772917
 20
227.024530
 30
0.0
 10
194.772915
 20
227.024530
 30
0.0
 10
194.772915
 20
168.624531
 30
0.0
 10
97.772917
 20
168.624531
 30
0.0
  0
LWPOLYLINE
  5
2b8
100
AcDbEntity
  8
case
 62
1
100
AcDbPolyline
 90
1
 70
1
 10
81.481459
 20
197.824558
 30
0.0
  0
ENDSEC
  0
SECTION
  2
OBJECTS
  0
DICTIONARY
  5
C
330
0
100
AcDbDictionary
  3
ACAD_GROUP
350
D
  3
ACAD_MLINESTYLE
350
17
  0
DICTIONARY
  5
D
330
C
100
AcDbDictionary
  0
DICTIONARY
  5
1A
330
C
100
AcDbDictionary
  0
DICTIONARY
  5
17
330
C
100
AcDbDictionary
  3
STANDARD
350
18
  0
DICTIONARY
  5
19
330
C
100
AcDbDictionary
  0
ENDSEC
  0
EOF
